<?xml version="1.0" encoding="UTF-8" standalone="no"?>
<!-- Created with Inkscape (http://www.inkscape.org/) -->

<svg
   xmlns:dc="http://purl.org/dc/elements/1.1/"
   xmlns:cc="http://creativecommons.org/ns#"
   xmlns:rdf="http://www.w3.org/1999/02/22-rdf-syntax-ns#"
   xmlns:svg="http://www.w3.org/2000/svg"
   xmlns="http://www.w3.org/2000/svg"
   xmlns:sodipodi="http://sodipodi.sourceforge.net/DTD/sodipodi-0.dtd"
   xmlns:inkscape="http://www.inkscape.org/namespaces/inkscape"
   width="645mm"
   height="86.32814mm"
   viewBox="0 0 644.99999 86.32814"
   version="1.1"
   id="svg1687"
   inkscape:version="0.92.5 (2060ec1f9f, 2020-04-08)"
   sodipodi:docname="area-example-0.svg">
  <defs
     id="defs1681" />
  <sodipodi:namedview
     id="base"
     pagecolor="#ffffff"
     bordercolor="#666666"
     borderopacity="1.0"
     inkscape:pageopacity="0.0"
     inkscape:pageshadow="2"
     inkscape:zoom="0.35"
     inkscape:cx="250.58922"
     inkscape:cy="0.28265071"
     inkscape:document-units="mm"
     inkscape:current-layer="layer1"
     showgrid="false"
     fit-margin-top="0"
     fit-margin-left="0"
     fit-margin-right="0"
     fit-margin-bottom="0"
     inkscape:window-width="2488"
     inkscape:window-height="1376"
     inkscape:window-x="72"
     inkscape:window-y="27"
     inkscape:window-maximized="1" />
  <metadata
     id="metadata1684">
    <rdf:RDF>
      <cc:Work
         rdf:about="">
        <dc:format>image/svg+xml</dc:format>
        <dc:type
           rdf:resource="http://purl.org/dc/dcmitype/StillImage" />
        <dc:title></dc:title>
      </cc:Work>
    </rdf:RDF>
  </metadata>
  <g
     inkscape:label="Layer 1"
     inkscape:groupmode="layer"
     id="layer1"
     transform="translate(-108.32327,-62.579977)">
    <g
       id="g1679"
       transform="translate(452.87028,43.309738)">
      <path
         inkscape:connector-curvature="0"
         id="path1141"
         d="m 6.5170178,20.282025 c -0.13697,0.470543 0.34503,0.964787 0.47007,1.436243 9.1294102,20.44977 18.2765192,40.892729 27.5363402,61.283997 0.24707,0.462793 0.40204,1.000284 0.69893,1.42553 0.20498,-0.311465 -0.11124,-0.805783 -0.0934,-1.180192 -2.40193,-13.807345 -4.86419,-27.60875 -7.33579,-41.400817 -0.50822,-0.417198 -0.90375,-0.833784 -0.15996,-1.245828 6.52671,-6.602423 13.07837,-13.182266 19.496181,-19.89057 0.0646,-0.319725 -0.5824,-0.08817 -0.78008,-0.168148 C 33.072428,20.409191 19.794637,20.297513 6.5170578,20.282025 Z"
         style="opacity:1;fill:#0a800d;fill-opacity:0.53333285;stroke:none;stroke-width:1;stroke-linecap:round;stroke-linejoin:round;stroke-miterlimit:4;stroke-dasharray:none;stroke-dashoffset:0;stroke-opacity:1" />
      <path
         inkscape:connector-curvature="0"
         id="path1120"
         d="m 48.096449,21.282137 c -4.25357,4.19726 -8.431261,8.474953 -12.638791,12.719862 -2.32502,2.356535 -4.64693,4.716065 -6.95893,7.085359 0.11823,0.346887 0.55977,0.594913 0.80191,0.903269 4.14925,4.146936 8.25455,8.341151 12.44724,12.442327 0.235281,-0.135123 0.143071,-0.582681 0.253831,-0.832686 2.08234,-10.744811 4.15809,-21.491284 6.19418,-32.244919 0.0131,-0.05595 -0.0555,-0.09639 -0.0994,-0.07321 z"
         style="opacity:1;fill:#fb0010;fill-opacity:0.53333285;stroke:none;stroke-width:1;stroke-linecap:round;stroke-linejoin:round;stroke-miterlimit:4;stroke-dasharray:none;stroke-dashoffset:0;stroke-opacity:1" />
      <path
         inkscape:connector-curvature="0"
         id="path1122-5"
         d="m 28.115698,42.275974 c 0.96759,5.733243 2.01621,11.460885 3.02088,17.190895 1.53653,8.622641 3.04707,17.25485 4.60152,25.87121 0.23835,0.0448 0.14564,-0.39022 0.23334,-0.52984 1.89389,-9.69955 3.75053,-19.40651 5.62819,-29.109278 -1.09955,-1.205444 -2.31619,-2.34066 -3.4608,-3.519077 -3.30318,-3.310816 -6.59208,-6.636319 -9.9139,-9.928182 l -0.0607,-0.01514 z"
         style="opacity:1;fill:#0a800d;fill-opacity:0.53333285;stroke:none;stroke-width:1;stroke-linecap:round;stroke-linejoin:round;stroke-miterlimit:4;stroke-dasharray:none;stroke-dashoffset:0;stroke-opacity:1" />
      <path
         inkscape:connector-curvature="0"
         id="path1151"
         d="m 41.783049,55.983981 c -0.641271,2.863474 -1.133081,5.790906 -1.714711,8.678878 -1.27476,6.695745 -2.6064,13.386001 -3.83017,20.088098 0.15755,0.345845 0.33807,-0.338836 0.43618,-0.446701 3.7888,-7.330078 7.571251,-14.663838 11.316331,-22.016119 -0.36928,-0.613945 -1.01907,-1.089501 -1.49293,-1.646412 -1.54299,-1.560666 -3.0528,-3.160763 -4.65582,-4.658297 l -0.0572,-1.85e-4 z"
         style="opacity:1;fill:#0a800d;fill-opacity:0.53333285;stroke:none;stroke-width:1;stroke-linecap:round;stroke-linejoin:round;stroke-miterlimit:4;stroke-dasharray:none;stroke-dashoffset:0;stroke-opacity:1" />
      <path
         inkscape:connector-curvature="0"
         id="path1149"
         d="m 84.998389,26.289228 c -12.26521,11.983532 -24.34763,24.155593 -36.63324,36.117212 -0.54569,0.664549 -0.83117,1.529599 -1.27913,2.266341 -3.42414,6.578113 -6.878321,13.143696 -10.184921,19.780853 0.0899,0.318389 0.40667,-0.203565 0.48068,-0.286035 15.892261,-19.249406 31.847371,-38.447316 47.685631,-57.74106 0.0772,-0.05256 0.0345,-0.197192 -0.069,-0.137311 z"
         style="opacity:1;fill:#0a800d;fill-opacity:0.53333285;stroke:none;stroke-width:1;stroke-linecap:round;stroke-linejoin:round;stroke-miterlimit:4;stroke-dasharray:none;stroke-dashoffset:0;stroke-opacity:1" />
      <path
         inkscape:connector-curvature="0"
         id="path1147"
         d="m 90.022079,21.201497 c -1.92675,1.921348 -3.54566,4.123216 -5.32654,6.176441 -16.26453,19.537976 -32.43194,39.157071 -48.640451,58.741709 0.3026,0.34122 0.93922,0.364082 1.37126,0.579337 17.318261,5.943293 34.610051,11.965588 51.965831,17.798466 0.271,0.10905 0.90546,0.29088 0.74949,-0.23476 0,-27.67058 0,-55.341155 0,-83.011732 0.005,-0.06392 -0.0826,-0.09078 -0.11959,-0.04946 z"
         style="opacity:1;fill:#0a800d;fill-opacity:0.53333285;stroke:none;stroke-width:1;stroke-linecap:round;stroke-linejoin:round;stroke-miterlimit:4;stroke-dasharray:none;stroke-dashoffset:0;stroke-opacity:1" />
      <path
         inkscape:connector-curvature="0"
         id="path1143"
         d="m 6.5384278,21.556404 c -0.0588,8.291832 -0.0219,16.603561 -0.0439,24.903048 -0.001,17.50626 -0.0594,35.012913 0.0487,52.518913 0.0373,1.834035 0.009,3.676745 0.11293,5.505425 0.47128,-0.0616 0.87824,-0.52808 1.32412,-0.73112 C 17.188197,97.934951 26.395498,92.114327 35.538668,86.195683 35.408418,85.503329 34.943688,84.821633 34.694628,84.134161 25.378217,63.268235 16.000618,42.429607 6.6500878,21.57892 l -0.05,-0.04005 z"
         style="opacity:1;fill:#0a800d;fill-opacity:0.53333285;stroke:none;stroke-width:1;stroke-linecap:round;stroke-linejoin:round;stroke-miterlimit:4;stroke-dasharray:none;stroke-dashoffset:0;stroke-opacity:1" />
      <path
         inkscape:connector-curvature="0"
         id="path1145"
         d="m 35.955788,86.453882 c -2.68422,1.492654 -5.24326,3.21429 -7.86098,4.824148 -6.8865,4.351229 -13.775681,8.705564 -20.6466902,13.0762 0.0491,0.30181 0.58312,0.11381 0.81091,0.1885 10.2529492,0.1185 20.5074302,0.0451 30.7609902,0.0669 16.466021,-0.002 32.932041,-0.005 49.398061,-0.008 -0.0309,-0.33138 -0.90988,-0.37847 -1.28478,-0.58651 C 70.080139,98.153413 53.032829,92.269329 35.965208,86.453054 Z"
         style="opacity:1;fill:#0a800d;fill-opacity:0.53333285;stroke:none;stroke-width:1;stroke-linecap:round;stroke-linejoin:round;stroke-miterlimit:4;stroke-dasharray:none;stroke-dashoffset:0;stroke-opacity:1" />
      <path
         inkscape:connector-curvature="0"
         id="path1122"
         d="m 28.115698,42.275974 c 0.96759,5.733243 2.01621,11.460885 3.02088,17.190895 1.53652,8.622641 3.04707,17.254852 4.60152,25.871212 0.23835,0.04483 0.14564,-0.390223 0.23334,-0.529841 1.89389,-9.699549 3.75053,-19.40651 5.62819,-29.109279 -1.09955,-1.205444 -2.31619,-2.34066 -3.4608,-3.519077 -3.30318,-3.310816 -6.59208,-6.636319 -9.9139,-9.928182 l -0.0607,-0.01514 z"
         style="opacity:1;fill:#ff0000;fill-opacity:0.53333285;stroke:none;stroke-width:1;stroke-linecap:round;stroke-linejoin:round;stroke-miterlimit:4;stroke-dasharray:none;stroke-dashoffset:0;stroke-opacity:1" />
      <path
         inkscape:connector-curvature="0"
         id="path1068"
         d="m 6.0515977,105.09838 -0.0945,-85.328134 42.6168213,0.28348 -20.788691,21.07218 20.599701,20.694189 42.23884,-41.860859 v 85.139144 z"
         style="fill:none;stroke:#000000;stroke-width:1;stroke-linecap:butt;stroke-linejoin:round;stroke-miterlimit:4;stroke-dasharray:none;stroke-opacity:1" />
      <path
         inkscape:connector-curvature="0"
         id="path1084"
         d="M 48.384929,61.820094 35.796118,86.256999 90.623769,19.959236"
         style="fill:none;stroke:#000000;stroke-width:0.5;stroke-linecap:butt;stroke-linejoin:round;stroke-miterlimit:4;stroke-dasharray:none;stroke-opacity:1" />
      <path
         inkscape:connector-curvature="0"
         id="path1086"
         d="M 90.623769,105.09838 35.796118,86.256999 v 0 L 6.0515977,105.09838"
         style="fill:none;stroke:#000000;stroke-width:0.5;stroke-linecap:butt;stroke-linejoin:round;stroke-miterlimit:4;stroke-dasharray:none;stroke-opacity:1" />
      <path
         inkscape:connector-curvature="0"
         id="path1088"
         d="M 35.796118,86.256999 5.9570977,19.770247"
         style="fill:none;stroke:#000000;stroke-width:0.5;stroke-linecap:butt;stroke-linejoin:round;stroke-miterlimit:4;stroke-dasharray:none;stroke-opacity:1" />
      <path
         inkscape:connector-curvature="0"
         id="path1090"
         d="m 27.785228,41.125905 8.01089,45.131094 12.777801,-66.203273"
         style="fill:none;stroke:#000000;stroke-width:0.5;stroke-linecap:butt;stroke-linejoin:round;stroke-miterlimit:4;stroke-dasharray:none;stroke-opacity:1" />
      <path
         inkscape:connector-curvature="0"
         id="path1068-2"
         d="m -134.62329,105.09838 -0.0945,-85.328141 42.616823,0.28348 -20.788693,21.07218 20.599703,20.69419 42.23884,-41.86086 v 85.139151 z"
         style="fill:none;stroke:#000000;stroke-width:1;stroke-linecap:butt;stroke-linejoin:round;stroke-miterlimit:4;stroke-dasharray:none;stroke-opacity:1" />
    </g>
  </g>
</svg>
