<?xml version="1.0" encoding="UTF-8" standalone="no"?>
<!-- Created with Inkscape (http://www.inkscape.org/) -->

<svg
   xmlns:dc="http://purl.org/dc/elements/1.1/"
   xmlns:cc="http://creativecommons.org/ns#"
   xmlns:rdf="http://www.w3.org/1999/02/22-rdf-syntax-ns#"
   xmlns:svg="http://www.w3.org/2000/svg"
   xmlns="http://www.w3.org/2000/svg"
   xmlns:sodipodi="http://sodipodi.sourceforge.net/DTD/sodipodi-0.dtd"
   xmlns:inkscape="http://www.inkscape.org/namespaces/inkscape"
   width="455mm"
   height="80.020073mm"
   viewBox="0 0 455 80.020072"
   version="1.1"
   id="svg5746"
   inkscape:version="0.92.5 (2060ec1f9f, 2020-04-08)"
   sodipodi:docname="example-5.svg">
  <defs
     id="defs5740" />
  <sodipodi:namedview
     id="base"
     pagecolor="#ffffff"
     bordercolor="#666666"
     borderopacity="1.0"
     inkscape:pageopacity="0.0"
     inkscape:pageshadow="2"
     inkscape:zoom="0.98994949"
     inkscape:cx="889.20021"
     inkscape:cy="196.44144"
     inkscape:document-units="mm"
     inkscape:current-layer="layer1"
     showgrid="false"
     fit-margin-top="0"
     fit-margin-left="0"
     fit-margin-right="0"
     fit-margin-bottom="0"
     inkscape:window-width="2488"
     inkscape:window-height="1376"
     inkscape:window-x="72"
     inkscape:window-y="27"
     inkscape:window-maximized="1"
     showguides="true"
     inkscape:guide-bbox="true">
    <sodipodi:guide
       position="178.66552,10.129762"
       orientation="0,1"
       id="guide829"
       inkscape:locked="false" />
  </sodipodi:namedview>
  <metadata
     id="metadata5743">
    <rdf:RDF>
      <cc:Work
         rdf:about="">
        <dc:format>image/svg+xml</dc:format>
        <dc:type
           rdf:resource="http://purl.org/dc/dcmitype/StillImage" />
        <dc:title></dc:title>
      </cc:Work>
    </rdf:RDF>
  </metadata>
  <g
     inkscape:label="Layer 1"
     inkscape:groupmode="layer"
     id="layer1"
     transform="translate(-109.13324,-259.91443)">
    <g
       id="g921"
       transform="translate(0.49519125)">
      <g
         transform="translate(0,1.0583333)"
         id="g877">
        <path
           style="opacity:1;fill:#aaaaaa;fill-opacity:1;stroke:none;stroke-width:0.17857143;stroke-linecap:round;stroke-linejoin:round;stroke-miterlimit:4;stroke-dasharray:none;stroke-dashoffset:0;stroke-opacity:1"
           d="m 139.83992,298.72592 c 6.7472,6.62176 13.49443,13.24354 20.24158,19.86544 -0.009,0.24632 -0.36309,0.39264 -0.50134,0.59991 -6.5799,6.56166 -13.15979,13.12331 -19.73978,19.6849 -0.2554,-0.0185 -0.0573,-0.50834 -0.1203,-0.71091 -0.0212,-13.12984 -0.0201,-26.2597 8e-4,-39.38954 0.002,-0.0597 0.0786,-0.0885 0.1191,-0.0498 z"
           id="path1100-0-7-5-6-18-9-3-3-2-65-5"
           inkscape:connector-curvature="0"
           inkscape:export-xdpi="300"
           inkscape:export-ydpi="300" />
        <path
           style="fill:none;stroke:#000000;stroke-width:0.51800001;stroke-linecap:butt;stroke-linejoin:round;stroke-miterlimit:4;stroke-dasharray:none;stroke-opacity:1"
           d="m 109.3922,328.52277 30.21447,-0.0236 0.0236,-29.62389 z"
           id="path1583-2-7"
           inkscape:connector-curvature="0" />
      </g>
      <g
         transform="translate(-5.1089986,-0.52916667)"
         id="g881">
        <path
           style="opacity:1;fill:#aaaaaa;fill-opacity:1;stroke:none;stroke-width:0.17857143;stroke-linecap:round;stroke-linejoin:round;stroke-miterlimit:4;stroke-dasharray:none;stroke-dashoffset:0;stroke-opacity:1"
           d="m 199.69409,300.24985 c 9.45328,-0.0887 18.9066,-0.1774 28.35994,-0.26597 0.16781,0.18054 0.0209,0.53438 0.0697,0.7787 -0.0129,9.29249 -0.0258,18.58496 -0.0388,27.87746 -0.19367,0.16752 -0.39996,-0.31893 -0.58774,-0.41762 -9.29919,-9.26922 -18.58264,-18.5542 -27.85206,-27.85318 -0.0407,-0.0437 -0.007,-0.11815 0.049,-0.11943 z"
           id="path1100-0-7-5-6-18-9-3-3-2-65-5-8"
           inkscape:connector-curvature="0"
           inkscape:export-xdpi="300"
           inkscape:export-ydpi="300" />
        <path
           style="fill:none;stroke:#000000;stroke-width:0.51800001;stroke-linecap:butt;stroke-linejoin:round;stroke-miterlimit:4;stroke-dasharray:none;stroke-opacity:1"
           d="m 169.59965,330.09014 30.21447,-0.0236 0.0236,-29.62388 z"
           id="path1583-2-7-9"
           inkscape:connector-curvature="0" />
      </g>
      <g
         transform="translate(-4.5741071)"
         id="g853">
        <path
           style="opacity:1;fill:#aaaaaa;fill-opacity:1;stroke:none;stroke-width:0.17857143;stroke-linecap:round;stroke-linejoin:round;stroke-miterlimit:4;stroke-dasharray:none;stroke-dashoffset:0;stroke-opacity:1"
           d="m 252.23429,300.06329 c 6.62176,-6.7472 13.24355,-13.49443 19.86545,-20.24159 0.24632,0.009 0.39264,0.36309 0.5999,0.50134 6.56166,6.57991 13.12331,13.1598 19.68491,19.73978 -0.0185,0.25541 -0.50834,0.0573 -0.71091,0.12031 -13.12985,0.0212 -26.2597,0.0201 -39.38954,-8e-4 -0.0597,-0.002 -0.0885,-0.0786 -0.0498,-0.1191 z"
           id="path1100-0-7-5-6-18-9-3-3-2-65-5-2"
           inkscape:connector-curvature="0"
           inkscape:export-xdpi="300"
           inkscape:export-ydpi="300" />
        <path
           style="fill:none;stroke:#000000;stroke-width:0.51800001;stroke-linecap:butt;stroke-linejoin:round;stroke-miterlimit:4;stroke-dasharray:none;stroke-opacity:1"
           d="m 222.32733,329.71217 30.21447,-0.0236 0.0236,-29.62389 z"
           id="path1583-2-7-6"
           inkscape:connector-curvature="0" />
      </g>
      <g
         transform="translate(1.1811779)"
         id="g885">
        <path
           style="opacity:1;fill:#aaaaaa;fill-opacity:1;stroke:none;stroke-width:0.17857143;stroke-linecap:round;stroke-linejoin:round;stroke-miterlimit:4;stroke-dasharray:none;stroke-dashoffset:0;stroke-opacity:1"
           d="m 311.52969,300.06468 c -0.0887,-9.45328 -0.17741,-18.90659 -0.26597,-28.35994 0.18054,-0.1678 0.53438,-0.0209 0.77869,-0.0697 9.29249,0.0129 18.58497,0.0258 27.87747,0.0388 0.16751,0.19368 -0.31894,0.39997 -0.41763,0.58776 -9.26921,9.29918 -18.5542,18.58263 -27.85317,27.85205 -0.0436,0.0408 -0.11816,0.007 -0.11943,-0.049 z"
           id="path1100-0-7-5-6-18-9-3-3-2-65-5-6"
           inkscape:connector-curvature="0"
           inkscape:export-xdpi="300"
           inkscape:export-ydpi="300" />
        <path
           style="fill:none;stroke:#000000;stroke-width:0.51800001;stroke-linecap:butt;stroke-linejoin:round;stroke-miterlimit:4;stroke-dasharray:none;stroke-opacity:1"
           d="m 281.29162,329.71217 30.21447,-0.0236 0.0236,-29.62389 z"
           id="path1583-2-7-4"
           inkscape:connector-curvature="0" />
      </g>
      <g
         transform="translate(11.164645)"
         id="g889">
        <path
           style="opacity:1;fill:#aaaaaa;fill-opacity:1;stroke:none;stroke-width:0.17857143;stroke-linecap:round;stroke-linejoin:round;stroke-miterlimit:4;stroke-dasharray:none;stroke-dashoffset:0;stroke-opacity:1"
           d="m 374.65177,300.06469 c -6.7472,-6.62175 -13.49443,-13.24354 -20.24159,-19.86545 0.009,-0.24632 0.36309,-0.39264 0.50134,-0.59991 6.5799,-6.56166 13.15979,-13.1233 19.73978,-19.6849 0.2554,0.0185 0.0573,0.50834 0.1203,0.71091 0.0212,13.12984 0.0201,26.2597 -7.9e-4,39.38954 -0.002,0.0597 -0.0786,0.0885 -0.1191,0.0498 z"
           id="path1100-0-7-5-6-18-9-3-3-2-65-5-9"
           inkscape:connector-curvature="0"
           inkscape:export-xdpi="300"
           inkscape:export-ydpi="300" />
        <path
           style="fill:none;stroke:#000000;stroke-width:0.51800001;stroke-linecap:butt;stroke-linejoin:round;stroke-miterlimit:4;stroke-dasharray:none;stroke-opacity:1"
           d="m 344.41364,329.71217 30.21447,-0.0236 0.0236,-29.62389 z"
           id="path1583-2-7-5"
           inkscape:connector-curvature="0" />
      </g>
      <g
         transform="translate(7.8210665)"
         id="g893">
        <path
           style="opacity:1;fill:#aaaaaa;fill-opacity:1;stroke:none;stroke-width:0.17857143;stroke-linecap:round;stroke-linejoin:round;stroke-miterlimit:4;stroke-dasharray:none;stroke-dashoffset:0;stroke-opacity:1"
           d="m 437.01779,300.06468 c -9.45329,0.0887 -18.90661,0.1774 -28.35996,0.26597 -0.16781,-0.18054 -0.0209,-0.53438 -0.0697,-0.7787 0.0129,-9.29249 0.0258,-18.58497 0.0388,-27.87746 0.19369,-0.16752 0.39997,0.31893 0.58776,0.41762 9.29919,9.2692 18.58263,18.5542 27.85204,27.85318 0.0408,0.0436 0.007,0.11816 -0.049,0.11943 z"
           id="path1100-0-7-5-6-18-9-3-3-2-65-5-0"
           inkscape:connector-curvature="0"
           inkscape:export-xdpi="300"
           inkscape:export-ydpi="300" />
        <path
           style="fill:none;stroke:#000000;stroke-width:0.51800001;stroke-linecap:butt;stroke-linejoin:round;stroke-miterlimit:4;stroke-dasharray:none;stroke-opacity:1"
           d="m 406.77971,329.71217 30.21448,-0.0236 0.0236,-29.62389 z"
           id="path1583-2-7-48"
           inkscape:connector-curvature="0" />
      </g>
      <g
         transform="translate(8.1701731)"
         id="g897">
        <path
           style="opacity:1;fill:#aaaaaa;fill-opacity:1;stroke:none;stroke-width:0.17627947;stroke-linecap:round;stroke-linejoin:round;stroke-miterlimit:4;stroke-dasharray:none;stroke-dashoffset:0;stroke-opacity:1"
           d="m 500.5178,300.06116 c -6.62176,6.57511 -13.24355,13.15025 -19.86545,19.72532 -0.24632,-0.009 -0.39264,-0.35383 -0.59991,-0.48855 -6.56166,-6.41209 -13.12331,-12.82417 -19.6849,-19.23631 0.0185,-0.2489 0.50834,-0.0558 0.71091,-0.11724 13.12983,-0.0207 26.2597,-0.0196 39.38954,7.9e-4 0.0597,0.002 0.0885,0.0766 0.0498,0.11606 z"
           id="path1100-0-7-5-6-18-9-3-3-2-65-5-7"
           inkscape:connector-curvature="0"
           inkscape:export-xdpi="300"
           inkscape:export-ydpi="300" />
        <path
           style="fill:none;stroke:#000000;stroke-width:0.51800001;stroke-linecap:butt;stroke-linejoin:round;stroke-miterlimit:4;stroke-dasharray:none;stroke-opacity:1"
           d="m 470.27971,329.71217 30.21448,-0.0236 0.0236,-29.62389 z"
           id="path1583-2-7-1"
           inkscape:connector-curvature="0" />
      </g>
      <path
         inkscape:connector-curvature="0"
         id="path1583-2-7-7"
         d="m 532.64579,329.71217 30.21447,-0.0236 0.0236,-29.62389 z"
         style="fill:#222222;fill-opacity:1;stroke:#222222;stroke-width:0.51800001;stroke-linecap:butt;stroke-linejoin:round;stroke-miterlimit:4;stroke-dasharray:none;stroke-opacity:1" />
    </g>
  </g>
</svg>
