<?xml version="1.0" encoding="UTF-8" standalone="no"?>
<!-- Created with Inkscape (http://www.inkscape.org/) -->

<svg
   xmlns:dc="http://purl.org/dc/elements/1.1/"
   xmlns:cc="http://creativecommons.org/ns#"
   xmlns:rdf="http://www.w3.org/1999/02/22-rdf-syntax-ns#"
   xmlns:svg="http://www.w3.org/2000/svg"
   xmlns="http://www.w3.org/2000/svg"
   xmlns:sodipodi="http://sodipodi.sourceforge.net/DTD/sodipodi-0.dtd"
   xmlns:inkscape="http://www.inkscape.org/namespaces/inkscape"
   width="173.75491mm"
   height="20.623423mm"
   viewBox="0 0 173.75491 20.623423"
   version="1.1"
   id="svg8"
   inkscape:version="0.92.5 (2060ec1f9f, 2020-04-08)"
   sodipodi:docname="puzzles.svg">
  <defs
     id="defs2" />
  <sodipodi:namedview
     id="base"
     pagecolor="#ffffff"
     bordercolor="#666666"
     borderopacity="1.0"
     inkscape:pageopacity="0.0"
     inkscape:pageshadow="2"
     inkscape:zoom="1.979899"
     inkscape:cx="310.7133"
     inkscape:cy="26.814428"
     inkscape:document-units="mm"
     inkscape:current-layer="layer1"
     showgrid="false"
     fit-margin-top="0"
     fit-margin-left="0"
     fit-margin-right="0"
     fit-margin-bottom="0"
     inkscape:window-width="2488"
     inkscape:window-height="1376"
     inkscape:window-x="72"
     inkscape:window-y="27"
     inkscape:window-maximized="1" />
  <metadata
     id="metadata5">
    <rdf:RDF>
      <cc:Work
         rdf:about="">
        <dc:format>image/svg+xml</dc:format>
        <dc:type
           rdf:resource="http://purl.org/dc/dcmitype/StillImage" />
        <dc:title />
      </cc:Work>
    </rdf:RDF>
  </metadata>
  <g
     inkscape:label="Layer 1"
     inkscape:groupmode="layer"
     id="layer1"
     transform="translate(37.030396,-48.845346)">
    <path
       style="fill:#222222;fill-opacity:1;stroke:#000000;stroke-width:0.26458332px;stroke-linecap:butt;stroke-linejoin:miter;stroke-opacity:1"
       d="m -36.716151,55.354937 h 5.913337 v 4.075862 l 4.593696,-4.593696 9.872268,9.872268 h -8.285355 l -1.637028,1.637025 2.99008,2.99008 h -5.863227 l 2.898206,-2.898206 -2.864797,-2.864795 -3.006781,3.006783 -2.956668,-2.956671 v -4.125973 l 1.211064,-1.211064 z"
       id="path826"
       inkscape:connector-curvature="0" />
    <path
       style="fill:#222222;fill-opacity:1;stroke:#000000;stroke-width:0.26458332px;stroke-linecap:butt;stroke-linejoin:miter;stroke-opacity:1"
       d="m -10.230164,49.231543 v 6.013564 l 2.8731468,2.873147 -1.102487,1.102487 4.092565,4.092565 v 3.4578 l -2.363663,2.363665 h 14.073409 l 2.8188582,-2.81886 H 4.3026178 l -2.8334759,2.833476 v -8.291618 l -5.7995401,-5.799542 v -5.893501 l -3.016699,3.016699 z"
       id="path832"
       inkscape:connector-curvature="0" />
    <g
       id="g866"
       transform="translate(28.952598,-1.119189)"
       style="fill:#222222;fill-opacity:1">
      <path
         inkscape:connector-curvature="0"
         id="path840"
         d="M 55.892739,66.24617 59.9686,62.170309 55.809218,58.010927 Z"
         style="fill:#222222;fill-opacity:1;stroke:#000000;stroke-width:0.26458332px;stroke-linecap:butt;stroke-linejoin:miter;stroke-opacity:1" />
      <path
         inkscape:connector-curvature="0"
         id="path842"
         d="m 50.046217,66.24617 5.712889,-5.712885 -5.746295,-5.746295 v 3.307461 l -8.268652,8.268649 4.092564,4.092565 h 8.385582 l 4.109268,-4.109268 z"
         style="fill:#222222;fill-opacity:1;stroke:#000000;stroke-width:0.26458332px;stroke-linecap:butt;stroke-linejoin:miter;stroke-opacity:1" />
    </g>
    <path
       style="fill:#222222;fill-opacity:1;stroke:#000000;stroke-width:0.26458332px;stroke-linecap:butt;stroke-linejoin:miter;stroke-opacity:1"
       d="m 94.118961,61.448123 v 4.29948 l 4.11048,-4.110493 v 7.512277 l 5.882259,-5.882253 5.85864,5.858629 v -2.43322 l 5.87044,-5.870442 v -2.256047 l 2.76986,-2.769856 -2.85254,-2.852539 v 3.82701 h -4.11049 v -3.779764 l -2.9057,2.905691 2.9057,2.905694 v 1.842633 h -9.92188 l -3.330922,-3.330914 z"
       id="path846"
       inkscape:connector-curvature="0" />
    <path
       style="fill:#222222;fill-opacity:1;stroke:#000000;stroke-width:0.26458332px;stroke-linecap:butt;stroke-linejoin:miter;stroke-opacity:1"
       d="m 124.65026,54.597304 v 12.236979 l 4.03963,-4.039621 4.016,4.015997 v 2.338728 l 8.5399,-8.5399 -8.25642,-8.256418 v 2.385975 l -4.1223,4.122304 z"
       id="path852"
       inkscape:connector-curvature="0" />
    <path
       style="fill:#222222;fill-opacity:1;stroke:#000000;stroke-width:0.26458332px;stroke-linecap:butt;stroke-linejoin:miter;stroke-opacity:1"
       d="m 24.669956,69.336476 h 4.15774 v -4.157739 h 6.09486 l -4.06324,-4.063243 h 4.06324 l -8.2446,-8.244605 -8.315478,8.315476 h 4.417598 l -4.09868,4.098679 h 5.94131 z"
       id="path858"
       inkscape:connector-curvature="0" />
    <path
       style="fill:#222222;fill-opacity:1;stroke:#000000;stroke-width:0.26458332px;stroke-linecap:butt;stroke-linejoin:miter;stroke-opacity:1"
       d="m 150.82968,60.61185 8.66983,8.669829 8.78794,-8.787947 -5.76413,-5.764136 -2.91751,2.917502 -2.9175,-2.917502 z"
       id="path862"
       inkscape:connector-curvature="0" />
    <path
       style="fill:#222222;fill-opacity:1;stroke-width:0.04030231"
       d="m 63.104572,69.343169 0.117618,-0.125909 0.152609,0.105755 c 0.183627,0.127257 0.24903,0.13334 0.24903,0.02313 0,-0.198692 -0.250805,-0.491658 -0.486659,-0.568462 -0.155485,-0.05063 -0.49718,-0.09714 -1.140324,-0.155208 -0.240933,-0.02175 -0.508399,-0.0585 -0.594367,-0.08165 -0.192632,-0.05187 -0.478906,-0.314682 -0.478906,-0.439658 0,-0.04988 -0.106864,-0.250463 -0.237482,-0.445738 -0.382385,-0.57167 -0.420841,-0.705939 -0.427058,-1.491167 -0.0043,-0.52477 -0.02375,-0.74572 -0.09301,-1.047857 -0.15616,-0.681449 -0.109759,-1.129447 0.275515,-2.659953 0.08106,-0.322031 0.134578,-0.651555 0.148345,-0.913394 l 0.02152,-0.409613 0.569177,-0.106983 c 0.313049,-0.05885 0.687065,-0.1408 0.831144,-0.182122 0.144084,-0.04132 0.346899,-0.08636 0.450702,-0.100077 l 0.188739,-0.02494 -0.02028,0.233807 c -0.01114,0.12859 -0.03832,0.324483 -0.06035,0.435313 -0.02204,0.11083 -0.05403,0.376658 -0.07107,0.59073 -0.03285,0.412516 -0.01809,0.379505 -0.347208,0.776784 -0.09576,0.115595 -0.09965,0.116542 -0.179827,0.04398 -0.04508,-0.04079 -0.120784,-0.180661 -0.168242,-0.310822 -0.04746,-0.13016 -0.100486,-0.245426 -0.117837,-0.256151 -0.113024,-0.06985 -0.08012,0.492905 0.0456,0.780378 l 0.07612,0.174016 -0.178909,0.07914 c -0.0984,0.04351 -0.205151,0.116609 -0.237229,0.162411 l -0.05833,0.08327 -0.04527,-0.08454 c -0.0249,-0.04651 -0.06274,-0.08454 -0.08413,-0.08454 -0.05803,0 -0.04703,0.109116 0.02499,0.248449 0.124648,0.241048 -0.0792,0.249573 -0.227567,0.0095 -0.105722,-0.171069 -0.21262,-0.187192 -0.173935,-0.02623 0.07339,0.305362 0.311859,0.590945 0.532157,0.637299 0.05925,0.01247 0.149839,0.03127 0.201305,0.04179 0.14119,0.02885 0.340691,-0.116523 0.614955,-0.448089 0.169298,-0.204671 0.281932,-0.304647 0.363373,-0.322536 0.07005,-0.01538 0.171069,-0.09233 0.248502,-0.189276 0.07176,-0.08985 0.208935,-0.245941 0.304828,-0.346875 0.190814,-0.200848 0.288039,-0.371146 0.435417,-0.762699 0.136758,-0.36333 0.377639,-1.359117 0.377639,-1.561136 0,-0.114929 0.02447,-0.191647 0.07606,-0.23832 0.142751,-0.12919 0.291019,-0.537608 0.349745,-0.96339 0.104789,-0.759815 0.181489,-0.969255 0.491372,-1.341762 0.110311,-0.132608 0.190048,-0.181085 0.406017,-0.246846 0.899369,-0.273848 1.376452,-0.311055 2.042049,-0.159254 0.401066,0.09147 1.451654,0.348912 2.236778,0.548118 0.166247,0.04217 0.547104,0.179104 0.846348,0.304276 0.960411,0.40173 1.336933,0.547751 1.567767,0.608004 0.225614,0.05889 0.225769,0.05887 0.487651,-0.07261 0.205494,-0.103176 0.294544,-0.178624 0.413098,-0.350002 0.08312,-0.12016 0.150736,-0.238044 0.150248,-0.261963 -4.76e-4,-0.02394 -0.08222,-0.0979 -0.181623,-0.1644 -0.09941,-0.0665 -0.191436,-0.154304 -0.204511,-0.195122 -0.01563,-0.04878 -0.0499,-0.06738 -0.100015,-0.05427 -0.04711,0.01233 -0.111075,-0.0168 -0.167399,-0.07622 -0.109237,-0.115233 -0.139768,-0.120259 -0.164133,-0.02704 -0.01221,0.0467 -0.02001,0.0357 -0.02311,-0.03261 -0.0059,-0.129109 -0.09869,-0.260816 -0.15801,-0.224159 -0.02456,0.01519 -0.03514,0.05239 -0.02352,0.08268 0.01162,0.03027 0.0018,0.06706 -0.02191,0.08169 -0.02368,0.01461 -0.04305,9.52e-4 -0.04305,-0.02999 0,-0.09029 -0.142793,-0.194851 -0.271064,-0.198498 -0.07752,-0.0022 -0.130718,-0.03151 -0.155184,-0.08549 -0.05385,-0.118814 -0.137984,-0.132349 -0.137984,-0.0222 0,0.116985 -0.06868,0.05233 -0.08727,-0.08215 -0.01604,-0.116082 -0.112905,-0.163058 -0.117311,-0.05689 -0.0019,0.04513 -0.02148,0.02402 -0.05038,-0.0542 -0.06482,-0.175491 -0.106661,-0.207255 -0.134215,-0.101889 -0.03126,0.119515 -0.09446,0.113187 -0.09446,-0.0095 0,-0.11833 -0.0628,-0.168093 -0.108678,-0.08611 -0.02586,0.04621 -0.110186,-0.0083 -0.388466,-0.251042 -0.19549,-0.170532 -0.398501,-0.381518 -0.451135,-0.468858 -0.132815,-0.220396 -0.171092,-0.553311 -0.07966,-0.692853 0.04934,-0.07529 0.07846,-0.09159 0.100366,-0.05615 0.01804,0.02919 0.06504,0.03908 0.113155,0.02381 0.06942,-0.02203 0.07869,-0.01232 0.05924,0.06203 -0.02424,0.0927 0.004,0.09427 0.2614,0.01449 0.08364,-0.02592 0.08868,-0.01842 0.06549,0.0975 -0.0277,0.138504 0.0021,0.152769 0.164592,0.07874 0.131028,-0.0597 0.158232,-0.03115 0.09744,0.102265 -0.0266,0.05837 -0.03692,0.117566 -0.02295,0.131539 0.03289,0.03289 0.269804,-0.06479 0.269804,-0.11124 0,-0.01948 0.03674,-0.03541 0.08164,-0.03541 0.07739,0 0.07845,0.0062 0.0203,0.118619 -0.0695,0.134393 -0.02633,0.190575 0.09609,0.125058 0.110867,-0.05933 0.164692,-0.05247 0.164692,0.021 0,0.04389 0.02355,0.0557 0.07718,0.03867 0.05237,-0.01662 0.097,0.0038 0.138844,0.06354 0.05695,0.0813 0.07165,0.0839 0.192208,0.03397 0.09949,-0.04121 0.134368,-0.04259 0.14663,-0.0058 0.0088,0.02655 0.04027,0.04827 0.06983,0.04827 0.02956,0 0.06103,0.02187 0.06994,0.0486 0.01136,0.03408 0.05984,0.02285 0.162258,-0.03758 0.10309,-0.06083 0.139542,-0.06919 0.123906,-0.02845 -0.0483,0.125861 0.161654,0.05601 0.30795,-0.102461 l 0.147889,-0.160193 -0.0176,0.11989 c -0.02006,0.1367 0.01976,0.149057 0.192485,0.05974 0.103634,-0.05359 0.12309,-0.05339 0.178315,0.0019 0.08256,0.08256 0.352101,0.01377 0.454864,-0.116079 0.03998,-0.05052 0.102244,-0.103081 0.138365,-0.116807 0.08862,-0.03367 0.19629,-0.363789 0.19629,-0.601808 0,-0.225232 -0.08111,-0.449254 -0.274945,-0.75938 -0.222051,-0.355271 -0.357218,-0.472925 -0.690325,-0.600882 -0.748962,-0.287698 -1.761434,-0.60897 -2.163222,-0.68642 -0.241044,-0.04646 -0.49267,-0.104626 -0.559169,-0.129247 -0.139705,-0.05172 -0.514739,-0.113382 -0.806046,-0.132518 -0.42007,-0.0276 -0.692095,-0.168277 -0.959602,-0.496275 -0.04068,-0.04987 -0.09735,-0.09068 -0.125943,-0.09068 -0.02859,0 -0.12045,-0.05441 -0.204128,-0.120907 -0.08368,-0.0665 -0.200429,-0.120907 -0.259447,-0.120907 -0.05902,0 -0.125525,-0.01822 -0.147794,-0.04049 -0.02227,-0.02227 -0.139247,-0.04839 -0.25995,-0.05804 -0.120703,-0.0097 -0.356887,-0.02896 -0.524854,-0.0429 -0.494902,-0.04108 -1.202068,0.05684 -1.649268,0.228383 -0.302829,0.116161 -0.785172,0.461169 -1.233822,0.88252 -0.157693,0.148099 -0.393462,0.348174 -0.523927,0.444612 -0.269799,0.199425 -0.800823,0.480127 -0.908297,0.480127 -0.06536,0 -0.444913,-0.124741 -1.6463,-0.541064 -0.81863,-0.283686 -1.783262,-0.425718 -2.89869,-0.426802 -1.147769,-0.0011 -3.195746,0.229589 -3.892246,0.438463 -0.221665,0.06647 -0.647862,0.159712 -0.947106,0.207196 -1.745891,0.277035 -1.98474,0.310261 -2.579349,0.358811 -1.052005,0.0859 -1.216757,0.08756 -2.256928,0.02275 -1.278924,-0.07968 -2.163881,-0.04369 -3.486146,0.141754 -1.393376,0.195419 -2.186735,0.388633 -4.050382,0.986425 -2.686794,0.86183 -5.075991,1.927776 -7.254416,3.236574 -0.819087,0.492111 -0.967255,0.595881 -0.967255,0.677446 0,0.122573 0.118598,0.09314 0.646785,-0.160559 1.178419,-0.566006 3.107185,-1.302139 4.431306,-1.691257 2.488269,-0.731226 4.796416,-1.063311 6.333266,-0.911201 1.314806,0.130134 1.923615,0.342267 3.520643,1.226732 0.588588,0.325968 1.004875,0.513802 1.874057,0.845587 0.855236,0.326463 1.337507,0.482476 1.813604,0.586703 0.884839,0.193713 1.293376,0.296075 1.349455,0.338116 0.077,0.05773 0.158107,0.768944 0.122292,1.072387 -0.0178,0.150653 -0.0645,0.276044 -0.145817,0.391406 -0.199491,0.283007 -0.356271,0.661955 -0.384127,0.928474 -0.01837,0.17601 9.52e-4,0.413102 0.06569,0.807116 l 0.09174,0.557899 -0.09009,0.439902 c -0.04955,0.241942 -0.125186,0.533685 -0.168075,0.648318 -0.101666,0.271726 -0.365657,0.680991 -0.563269,0.873222 -0.101928,0.09916 -0.158159,0.190933 -0.160506,0.261964 -0.008,0.24208 0.0072,1.00725 0.02332,1.177348 0.02513,0.26461 -0.07392,0.678568 -0.238487,0.996577 -0.07918,0.153 -0.14396,0.326511 -0.14396,0.385579 0,0.272117 -0.204209,0.552354 -0.402492,0.552354 -0.125548,0 -0.32295,0.334755 -0.32295,0.547661 0,0.119108 0.01942,0.17661 0.06562,0.194341 0.03608,0.01385 0.88878,0.02375 1.894854,0.02204 l 1.829227,-0.0033 0.06553,-0.100005 0.06553,-0.10001 0.08756,0.08226 c 0.119907,0.112643 0.304028,0.111229 0.304028,-0.0024 0,-0.158165 -0.129522,-0.358227 -0.362701,-0.560232 l -0.232627,-0.201529 h -0.292119 c -0.160663,0 -0.364801,-0.02175 -0.453634,-0.04839 -0.176733,-0.05295 -0.453967,-0.286835 -0.414911,-0.350035 0.01347,-0.02175 -0.0038,-0.110634 -0.0387,-0.197468 -0.05687,-0.142123 -0.0572,-0.206261 -0.0033,-0.642568 0.06904,-0.559233 0.108026,-0.668063 0.357679,-0.99842 0.209512,-0.277229 0.278805,-0.476954 0.368052,-1.060806 0.03499,-0.228836 0.09995,-0.49823 0.144365,-0.598645 0.05347,-0.120874 0.269018,-0.375268 0.63776,-0.752698 0.790532,-0.809157 1.063472,-1.239243 1.131956,-1.783696 0.08691,-0.690978 0.249958,-1.001528 0.637198,-1.213682 0.248326,-0.136048 0.251206,-0.136553 0.503777,-0.08818 0.139715,0.02675 0.260407,0.05389 0.268209,0.0603 0.03608,0.02961 -0.139923,0.239839 -0.790293,0.943807 -0.317619,0.34379 -0.412812,0.494519 -0.412812,0.653636 0,0.04708 -0.02437,0.114242 -0.0542,0.149234 -0.08483,0.09958 -0.18763,0.394609 -0.187463,0.537998 2e-4,0.172716 0.133231,0.383608 0.262439,0.416039 0.140881,0.03537 0.155318,0.0086 0.07283,-0.135169 -0.0834,-0.145312 -0.03337,-0.238815 0.138724,-0.259145 0.07156,-0.0085 0.174387,-0.09368 0.31947,-0.264796 l 0.213944,-0.252329 v 0.159026 c 0,0.431657 0.29486,0.642749 0.722381,0.517149 0.234921,-0.06902 0.249168,-0.133931 0.03684,-0.167885 -0.09396,-0.01504 -0.194418,-0.04689 -0.223221,-0.07079 -0.09567,-0.0794 -0.05973,-0.25548 0.08193,-0.401339 0.07387,-0.07606 0.166576,-0.228467 0.206018,-0.338678 0.03946,-0.11021 0.101419,-0.260292 0.137734,-0.333507 l 0.06602,-0.133122 0.02994,0.233879 c 0.04298,0.335464 0.121492,0.540206 0.393823,1.026914 0.481048,0.859724 0.617563,1.530891 0.446675,2.196049 -0.04651,0.181022 -0.08456,0.382894 -0.08456,0.448602 0,0.157251 0.170522,0.607677 0.35402,0.935111 0.144426,0.257722 0.146697,0.268723 0.140204,0.679301 -0.0048,0.296103 -0.03223,0.503663 -0.09483,0.714532 -0.06786,0.228614 -0.07747,0.310169 -0.0416,0.353376 0.05208,0.06275 0.02785,0.155385 -0.08224,0.31443 -0.09285,0.13414 -0.09503,0.235592 -0.005,0.235592 0.114057,0 0.491225,-0.437892 0.536265,-0.622604 0.06912,-0.283465 0.09867,-0.35776 0.148935,-0.374449 0.101204,-0.03361 0.136705,0.432608 0.07322,0.961495 -0.02909,0.242123 -0.02409,0.274635 0.05392,0.352648 0.08517,0.08517 0.102091,0.08593 1.903523,0.08593 h 1.817583 z"
       id="path922"
       inkscape:connector-curvature="0" />
  </g>
</svg>
