<?xml version="1.0" encoding="UTF-8" standalone="no"?>
<!-- Created with Inkscape (http://www.inkscape.org/) -->

<svg
   xmlns:dc="http://purl.org/dc/elements/1.1/"
   xmlns:cc="http://creativecommons.org/ns#"
   xmlns:rdf="http://www.w3.org/1999/02/22-rdf-syntax-ns#"
   xmlns:svg="http://www.w3.org/2000/svg"
   xmlns="http://www.w3.org/2000/svg"
   xmlns:sodipodi="http://sodipodi.sourceforge.net/DTD/sodipodi-0.dtd"
   xmlns:inkscape="http://www.inkscape.org/namespaces/inkscape"
   width="455mm"
   height="550.45587mm"
   viewBox="0 0 455 550.45587"
   version="1.1"
   id="svg8"
   inkscape:version="0.92.5 (2060ec1f9f, 2020-04-08)"
   sodipodi:docname="puzzle-solving.svg">
  <defs
     id="defs2" />
  <sodipodi:namedview
     id="base"
     pagecolor="#ffffff"
     bordercolor="#666666"
     borderopacity="1.0"
     inkscape:pageopacity="0.0"
     inkscape:pageshadow="2"
     inkscape:zoom="0.35"
     inkscape:cx="743.51047"
     inkscape:cy="879.15885"
     inkscape:document-units="mm"
     inkscape:current-layer="layer1"
     showgrid="false"
     inkscape:snap-global="false"
     fit-margin-top="0"
     fit-margin-left="0"
     fit-margin-right="0"
     fit-margin-bottom="0"
     inkscape:window-width="2488"
     inkscape:window-height="1376"
     inkscape:window-x="72"
     inkscape:window-y="27"
     inkscape:window-maximized="1" />
  <metadata
     id="metadata5">
    <rdf:RDF>
      <cc:Work
         rdf:about="">
        <dc:format>image/svg+xml</dc:format>
        <dc:type
           rdf:resource="http://purl.org/dc/dcmitype/StillImage" />
        <dc:title></dc:title>
      </cc:Work>
    </rdf:RDF>
  </metadata>
  <g
     inkscape:label="Layer 1"
     inkscape:groupmode="layer"
     id="layer1"
     transform="translate(144.29114,-20.328523)">
    <g
       id="g1964"
       transform="translate(0.49519218,8.466651)">
      <rect
         y="20.587465"
         x="110.3834"
         height="29.66396"
         width="30.175144"
         id="rect917"
         style="opacity:1;fill:none;fill-opacity:1;stroke:#222222;stroke-width:0.51785964;stroke-linecap:round;stroke-linejoin:round;stroke-miterlimit:4;stroke-dasharray:none;stroke-dashoffset:0;stroke-opacity:1" />
      <path
         inkscape:export-ydpi="300"
         inkscape:export-xdpi="300"
         inkscape:connector-curvature="0"
         id="path1100-0-7-5"
         d="m 67.474219,50.285812 c 6.621758,-6.747199 13.243551,-13.49442 19.865423,-20.241547 0.246334,0.009 0.392649,0.363092 0.59991,0.501339 6.561661,6.579905 13.123318,13.159802 19.684908,19.739781 -0.0185,0.25539 -0.50835,0.0573 -0.71091,0.120292 -13.129846,0.0212 -26.2597,0.02009 -39.389536,-8.02e-4 -0.05968,-0.002 -0.0885,-0.0786 -0.04978,-0.119077 z"
         style="opacity:1;fill:#222222;fill-opacity:1;stroke:#222222;stroke-width:0.17857143;stroke-linecap:round;stroke-linejoin:round;stroke-miterlimit:4;stroke-dasharray:none;stroke-dashoffset:0;stroke-opacity:1" />
      <path
         inkscape:export-ydpi="300"
         inkscape:export-xdpi="300"
         inkscape:connector-curvature="0"
         id="path1100-0-7-5-3"
         d="m 24.716915,50.285811 c 6.621757,-6.747199 13.243551,-13.49442 19.865421,-20.241547 0.246334,0.009 0.392649,0.363092 0.59991,0.501339 6.561662,6.579905 13.123316,13.159802 19.684913,19.739781 -0.01849,0.25539 -0.508354,0.0573 -0.710914,0.120292 -13.129846,0.0212 -26.259699,0.02009 -39.389535,-7.94e-4 -0.05968,-0.002 -0.0885,-0.0786 -0.04978,-0.119077 z"
         style="opacity:1;fill:#222222;fill-opacity:1;stroke:#222222;stroke-width:0.17857143;stroke-linecap:round;stroke-linejoin:round;stroke-miterlimit:4;stroke-dasharray:none;stroke-dashoffset:0;stroke-opacity:1" />
    </g>
    <g
       id="g1487"
       transform="translate(-31.752019,-38.177584)">
      <g
         transform="translate(302.38096,-41.57738)"
         id="g1389">
        <rect
           style="opacity:1;fill:none;fill-opacity:1;stroke:#222222;stroke-width:0.51800001;stroke-linecap:round;stroke-linejoin:round;stroke-miterlimit:4;stroke-dasharray:none;stroke-dashoffset:0;stroke-opacity:1"
           id="rect917-5"
           width="30.175144"
           height="29.66396"
           x="-393.81094"
           y="206.79324" />
        <path
           style="opacity:1;fill:#aaaaaa;fill-opacity:1;stroke:none;stroke-width:0.51800001;stroke-linecap:round;stroke-linejoin:round;stroke-miterlimit:4;stroke-dasharray:none;stroke-dashoffset:0;stroke-opacity:1"
           d="m -394.13578,206.8973 c 6.62176,-6.7472 13.24355,-13.49442 19.86543,-20.24155 0.24633,0.009 0.39264,0.36309 0.59991,0.50134 6.56166,6.5799 13.12331,13.1598 19.6849,19.73978 -0.0185,0.2554 -0.50834,0.0573 -0.71091,0.1203 -13.12984,0.0212 -26.2597,0.0201 -39.38954,-8e-4 -0.0597,-0.002 -0.0885,-0.0786 -0.0498,-0.11908 z"
           id="path1100-0-7-5-6"
           inkscape:connector-curvature="0"
           inkscape:export-xdpi="300"
           inkscape:export-ydpi="300" />
      </g>
      <g
         transform="translate(265.41779,-41.57738)"
         id="g1393">
        <rect
           style="opacity:1;fill:none;fill-opacity:1;stroke:#222222;stroke-width:0.51800001;stroke-linecap:round;stroke-linejoin:round;stroke-miterlimit:4;stroke-dasharray:none;stroke-dashoffset:0;stroke-opacity:1"
           id="rect917-5-6"
           width="30.175144"
           height="29.66396"
           x="-313.40503"
           y="206.79324" />
        <path
           style="opacity:1;fill:#aaaaaa;fill-opacity:1;stroke:none;stroke-width:0.51800001;stroke-linecap:round;stroke-linejoin:round;stroke-miterlimit:4;stroke-dasharray:none;stroke-dashoffset:0;stroke-opacity:1"
           d="m -313.58058,207.02662 c -0.0887,-9.45328 -0.17739,-18.9066 -0.26596,-28.35992 0.18055,-0.16781 0.53438,-0.0209 0.7787,-0.0697 9.29249,0.0129 18.58497,0.0258 27.87746,0.0388 0.16752,0.19368 -0.31893,0.39997 -0.41762,0.58776 -9.26921,9.29919 -18.5542,18.58262 -27.85317,27.85205 -0.0436,0.0408 -0.11816,0.007 -0.11942,-0.049 z"
           id="path1100-0-7-5-6-18"
           inkscape:connector-curvature="0"
           inkscape:export-xdpi="300"
           inkscape:export-ydpi="300" />
      </g>
      <g
         transform="translate(248.54321,-41.57738)"
         id="g1397">
        <rect
           style="opacity:1;fill:none;fill-opacity:1;stroke:#222222;stroke-width:0.51800001;stroke-linecap:round;stroke-linejoin:round;stroke-miterlimit:4;stroke-dasharray:none;stroke-dashoffset:0;stroke-opacity:1"
           id="rect917-5-6-7"
           width="30.175144"
           height="29.66396"
           x="-242.73962"
           y="206.79324" />
        <path
           style="opacity:1;fill:#aaaaaa;fill-opacity:1;stroke:none;stroke-width:0.51800001;stroke-linecap:round;stroke-linejoin:round;stroke-miterlimit:4;stroke-dasharray:none;stroke-dashoffset:0;stroke-opacity:1"
           d="m -242.67892,207.28095 c -6.7472,-6.62175 -13.49442,-13.24355 -20.24156,-19.86543 0.009,-0.24632 0.36309,-0.39264 0.50134,-0.59991 6.5799,-6.56166 13.1598,-13.12331 19.73978,-19.6849 0.2554,0.0185 0.0573,0.50834 0.1203,0.71091 0.0212,13.12984 0.0201,26.2597 -7.9e-4,39.38954 -0.002,0.0597 -0.0786,0.0885 -0.11909,0.0498 z"
           id="path1100-0-7-5-6-18-9"
           inkscape:connector-curvature="0"
           inkscape:export-xdpi="300"
           inkscape:export-ydpi="300" />
      </g>
      <g
         transform="translate(231.66857,-41.57738)"
         id="g1401">
        <rect
           style="opacity:1;fill:none;fill-opacity:1;stroke:#222222;stroke-width:0.51800001;stroke-linecap:round;stroke-linejoin:round;stroke-miterlimit:4;stroke-dasharray:none;stroke-dashoffset:0;stroke-opacity:1"
           id="rect917-5-6-7-2"
           width="30.175144"
           height="29.66396"
           x="-172.07416"
           y="206.79324" />
        <path
           style="opacity:1;fill:#aaaaaa;fill-opacity:1;stroke:none;stroke-width:0.51800001;stroke-linecap:round;stroke-linejoin:round;stroke-miterlimit:4;stroke-dasharray:none;stroke-dashoffset:0;stroke-opacity:1"
           d="m -172.01345,207.28095 c -6.7472,-6.62175 -13.49442,-13.24355 -20.24156,-19.86543 0.009,-0.24632 0.36309,-0.39264 0.50134,-0.59991 6.5799,-6.56166 13.1598,-13.12331 19.73978,-19.6849 0.2554,0.0185 0.0573,0.50834 0.1203,0.71091 0.0212,13.12984 0.0201,26.2597 -8e-4,39.38954 -0.002,0.0597 -0.0786,0.0885 -0.11909,0.0498 z"
           id="path1100-0-7-5-6-18-9-3"
           inkscape:connector-curvature="0"
           inkscape:export-xdpi="300"
           inkscape:export-ydpi="300" />
      </g>
      <g
         id="g1461">
        <rect
           style="opacity:1;fill:none;fill-opacity:1;stroke:#222222;stroke-width:0.51800001;stroke-linecap:round;stroke-linejoin:round;stroke-miterlimit:4;stroke-dasharray:none;stroke-dashoffset:0;stroke-opacity:1"
           id="rect917-5-6-7-2-7"
           width="30.175144"
           height="29.66396"
           x="121.11441"
           y="165.21587" />
        <path
           style="opacity:1;fill:#aaaaaa;fill-opacity:1;stroke:none;stroke-width:0.51800001;stroke-linecap:round;stroke-linejoin:round;stroke-miterlimit:4;stroke-dasharray:none;stroke-dashoffset:0;stroke-opacity:1"
           d="m 121.51369,165.4419 c -9.45328,0.0887 -18.9066,0.1774 -28.359935,0.26597 -0.16781,-0.18054 -0.0209,-0.53438 -0.0697,-0.7787 0.0129,-9.29249 0.0258,-18.58497 0.0388,-27.87746 0.19368,-0.16752 0.39997,0.31893 0.58776,0.41762 9.299195,9.26921 18.582625,18.5542 27.852055,27.85317 0.0408,0.0436 0.007,0.11816 -0.049,0.11943 z"
           id="path1100-0-7-5-6-18-9-3-5"
           inkscape:connector-curvature="0"
           inkscape:export-xdpi="300"
           inkscape:export-ydpi="300" />
      </g>
      <g
         transform="translate(225.52149,-41.57738)"
         id="g1409">
        <rect
           style="opacity:1;fill:none;fill-opacity:1;stroke:#222222;stroke-width:0.51800001;stroke-linecap:round;stroke-linejoin:round;stroke-miterlimit:4;stroke-dasharray:none;stroke-dashoffset:0;stroke-opacity:1"
           id="rect917-5-6-7-2-9"
           width="30.175144"
           height="29.66396"
           x="-30.74334"
           y="206.79324" />
        <path
           style="opacity:1;fill:#aaaaaa;fill-opacity:1;stroke:none;stroke-width:0.51800001;stroke-linecap:round;stroke-linejoin:round;stroke-miterlimit:4;stroke-dasharray:none;stroke-dashoffset:0;stroke-opacity:1"
           d="m -30.646875,206.59714 c -6.62176,6.7472 -13.24354,13.49442 -19.86543,20.24157 -0.24632,-0.009 -0.39264,-0.36309 -0.59991,-0.50134 -6.56166,-6.57991 -13.12331,-13.15981 -19.6849,-19.73978 0.0185,-0.25541 0.50834,-0.0573 0.71091,-0.12031 13.12983,-0.0212 26.2597,-0.0201 39.38954,8.1e-4 0.0597,0.002 0.0885,0.0786 0.0498,0.11909 z"
           id="path1100-0-7-5-6-18-9-3-2"
           inkscape:connector-curvature="0"
           inkscape:export-xdpi="300"
           inkscape:export-ydpi="300" />
      </g>
      <g
         id="g1457">
        <rect
           style="opacity:1;fill:none;fill-opacity:1;stroke:#222222;stroke-width:0.51800001;stroke-linecap:round;stroke-linejoin:round;stroke-miterlimit:4;stroke-dasharray:none;stroke-dashoffset:0;stroke-opacity:1"
           id="rect917-5-6-7-2-2"
           width="30.175144"
           height="29.66396"
           x="257.33838"
           y="165.21587" />
        <path
           style="opacity:1;fill:#aaaaaa;fill-opacity:1;stroke:none;stroke-width:0.52363998;stroke-linecap:round;stroke-linejoin:round;stroke-miterlimit:4;stroke-dasharray:none;stroke-dashoffset:0;stroke-opacity:1"
           d="m 257.56998,165.39063 c 0.091,9.78296 0.18213,19.56596 0.27306,29.34898 -0.18535,0.17365 -0.54861,0.0216 -0.79944,0.0722 -9.53992,-0.0134 -19.07984,-0.0267 -28.61977,-0.0402 -0.17198,-0.20044 0.32742,-0.41391 0.42874,-0.60825 9.51602,-9.62351 19.04826,-19.2307 28.59485,-28.82339 0.0448,-0.0422 0.12131,-0.007 0.1226,0.0507 z"
           id="path1100-0-7-5-6-18-9-3-8"
           inkscape:connector-curvature="0"
           inkscape:export-xdpi="300"
           inkscape:export-ydpi="300" />
      </g>
      <g
         transform="translate(180.67258,-51.519337)"
         id="g1417">
        <rect
           style="opacity:1;fill:none;fill-opacity:1;stroke:#222222;stroke-width:0.51800001;stroke-linecap:round;stroke-linejoin:round;stroke-miterlimit:4;stroke-dasharray:none;stroke-dashoffset:0;stroke-opacity:1"
           id="rect917-5-6-7-2-97"
           width="30.175144"
           height="29.66396"
           x="110.58749"
           y="206.79324" />
        <path
           style="opacity:1;fill:#aaaaaa;fill-opacity:1;stroke:none;stroke-width:0.51800001;stroke-linecap:round;stroke-linejoin:round;stroke-miterlimit:4;stroke-dasharray:none;stroke-dashoffset:0;stroke-opacity:1"
           d="m 110.41102,206.50791 c 6.7472,6.62176 13.49443,13.24354 20.24158,19.86544 -0.009,0.24632 -0.36309,0.39264 -0.50134,0.59991 -6.5799,6.56166 -13.1598,13.12331 -19.73978,19.6849 -0.2554,-0.0185 -0.0573,-0.50834 -0.1203,-0.71091 -0.0212,-13.12984 -0.0201,-26.2597 7.9e-4,-39.38954 0.002,-0.0597 0.0786,-0.0885 0.1191,-0.0498 z"
           id="path1100-0-7-5-6-18-9-3-3"
           inkscape:connector-curvature="0"
           inkscape:export-xdpi="300"
           inkscape:export-ydpi="300" />
      </g>
    </g>
    <g
       id="g1924"
       transform="translate(-6.2056783,-29.997501)">
      <g
         transform="translate(-337.91075,1.035562)"
         id="g1421">
        <rect
           style="opacity:1;fill:none;fill-opacity:1;stroke:#222222;stroke-width:0.51785964;stroke-linecap:round;stroke-linejoin:round;stroke-miterlimit:4;stroke-dasharray:none;stroke-dashoffset:0;stroke-opacity:1"
           id="rect917-5-6-7-2-97-1"
           width="30.175144"
           height="29.66396"
           x="249.30247"
           y="237.50775" />
        <path
           style="opacity:1;fill:#aaaaaa;fill-opacity:1;stroke:none;stroke-width:0.17857143;stroke-linecap:round;stroke-linejoin:round;stroke-miterlimit:4;stroke-dasharray:none;stroke-dashoffset:0;stroke-opacity:1"
           d="m 229.15857,217.60866 c 6.7472,6.62176 13.49443,13.24354 20.24158,19.86544 -0.009,0.24632 -0.36309,0.39264 -0.50134,0.59991 -6.5799,6.56166 -13.1598,13.12331 -19.73978,19.6849 -0.2554,-0.0185 -0.0573,-0.50834 -0.1203,-0.71091 -0.0212,-13.12984 -0.0201,-26.2597 7.9e-4,-39.38954 0.002,-0.0597 0.0786,-0.0885 0.1191,-0.0498 z"
           id="path1100-0-7-5-6-18-9-3-3-2"
           inkscape:connector-curvature="0"
           inkscape:export-xdpi="300"
           inkscape:export-ydpi="300" />
      </g>
      <g
         transform="translate(-351.75786,-3.983435)"
         id="g1425">
        <rect
           style="opacity:1;fill:none;fill-opacity:1;stroke:#222222;stroke-width:0.51785964;stroke-linecap:round;stroke-linejoin:round;stroke-miterlimit:4;stroke-dasharray:none;stroke-dashoffset:0;stroke-opacity:1"
           id="rect917-5-6-7-2-97-1-9"
           width="30.175144"
           height="29.66396"
           x="326.83026"
           y="242.52675" />
        <path
           style="opacity:1;fill:#aaaaaa;fill-opacity:1;stroke:none;stroke-width:0.18089442;stroke-linecap:round;stroke-linejoin:round;stroke-miterlimit:4;stroke-dasharray:none;stroke-dashoffset:0;stroke-opacity:1"
           d="m 298.65022,242.90011 c 9.45252,-0.0911 18.90508,-0.18207 28.35767,-0.27296 0.16779,0.18528 0.0209,0.54842 0.0697,0.79916 -0.0129,9.5366 -0.0258,19.07318 -0.0388,28.60978 -0.19367,0.17193 -0.39994,-0.3273 -0.58771,-0.42858 -9.29844,-9.51271 -18.58112,-19.04162 -27.8498,-28.58486 -0.0408,-0.0447 -0.007,-0.12127 0.049,-0.12257 z"
           id="path1100-0-7-5-6-18-9-3-3-2-3"
           inkscape:connector-curvature="0"
           inkscape:export-xdpi="300"
           inkscape:export-ydpi="300" />
      </g>
      <g
         transform="translate(-388.57496,-0.959616)"
         id="g1429">
        <rect
           style="opacity:1;fill:none;fill-opacity:1;stroke:#222222;stroke-width:0.51785964;stroke-linecap:round;stroke-linejoin:round;stroke-miterlimit:4;stroke-dasharray:none;stroke-dashoffset:0;stroke-opacity:1"
           id="rect917-5-6-7-2-97-1-1"
           width="30.175144"
           height="29.66396"
           x="419.05643"
           y="239.50293" />
        <path
           style="opacity:1;fill:#aaaaaa;fill-opacity:1;stroke:none;stroke-width:0.17857143;stroke-linecap:round;stroke-linejoin:round;stroke-miterlimit:4;stroke-dasharray:none;stroke-dashoffset:0;stroke-opacity:1"
           d="m 399.09867,259.68566 c 6.62176,-6.7472 13.24355,-13.49442 19.86545,-20.24158 0.24632,0.009 0.39264,0.36309 0.59991,0.50134 6.56166,6.5799 13.12331,13.1598 19.6849,19.73978 -0.0185,0.2554 -0.50834,0.0573 -0.7109,0.1203 -13.12985,0.0212 -26.25971,0.0201 -39.38955,-7.9e-4 -0.0597,-0.002 -0.0885,-0.0786 -0.0498,-0.1191 z"
           id="path1100-0-7-5-6-18-9-3-3-2-9"
           inkscape:connector-curvature="0"
           inkscape:export-xdpi="300"
           inkscape:export-ydpi="300" />
      </g>
      <g
         transform="translate(-441.3288,-2.849509)"
         id="g1433">
        <rect
           style="opacity:1;fill:none;fill-opacity:1;stroke:#222222;stroke-width:0.51785964;stroke-linecap:round;stroke-linejoin:round;stroke-miterlimit:4;stroke-dasharray:none;stroke-dashoffset:0;stroke-opacity:1"
           id="rect917-5-6-7-2-97-1-4"
           width="30.175144"
           height="29.66396"
           x="507.5029"
           y="241.39282" />
        <path
           style="opacity:1;fill:#222222;fill-opacity:1;stroke:#222222;stroke-width:0.18501422;stroke-linecap:round;stroke-linejoin:round;stroke-miterlimit:4;stroke-dasharray:none;stroke-dashoffset:0;stroke-opacity:1"
           d="m 507.80914,270.70915 c -0.0925,-9.73313 -0.18496,-19.46632 -0.27729,-29.19953 0.18823,-0.17278 0.55713,-0.0215 0.81186,-0.0718 9.6883,0.0133 19.37661,0.0265 29.06492,0.04 0.17465,0.19939 -0.33252,0.41181 -0.43541,0.60514 -9.66403,9.57449 -19.34452,19.13276 -29.0396,28.67659 -0.0455,0.042 -0.1232,0.007 -0.12451,-0.0505 z"
           id="path1100-0-7-5-6-18-9-3-3-2-7"
           inkscape:connector-curvature="0"
           inkscape:export-xdpi="300"
           inkscape:export-ydpi="300" />
      </g>
      <g
         transform="translate(-517.13913,-6.629263)"
         id="g1437">
        <rect
           style="opacity:1;fill:none;fill-opacity:1;stroke:#222222;stroke-width:0.51785964;stroke-linecap:round;stroke-linejoin:round;stroke-miterlimit:4;stroke-dasharray:none;stroke-dashoffset:0;stroke-opacity:1"
           id="rect917-5-6-7-2-97-1-8"
           width="30.175144"
           height="29.66396"
           x="619.00586"
           y="245.17258" />
        <path
           style="opacity:1;fill:#aaaaaa;fill-opacity:1;stroke:none;stroke-width:0.17857143;stroke-linecap:round;stroke-linejoin:round;stroke-miterlimit:4;stroke-dasharray:none;stroke-dashoffset:0;stroke-opacity:1"
           d="m 639.19436,264.95016 c -6.7472,-6.62175 -13.49443,-13.24354 -20.24159,-19.86545 0.009,-0.24632 0.36309,-0.39264 0.50134,-0.59991 6.5799,-6.56166 13.1598,-13.12331 19.73978,-19.6849 0.2554,0.0185 0.0573,0.50834 0.1203,0.71091 0.0212,13.12984 0.0201,26.2597 -7.9e-4,39.38954 -0.002,0.0597 -0.0786,0.0885 -0.1191,0.0498 z"
           id="path1100-0-7-5-6-18-9-3-3-2-4"
           inkscape:connector-curvature="0"
           inkscape:export-xdpi="300"
           inkscape:export-ydpi="300" />
      </g>
      <g
         transform="translate(-585.76797,-14.188788)"
         id="g1441">
        <rect
           style="opacity:1;fill:none;fill-opacity:1;stroke:#222222;stroke-width:0.51785964;stroke-linecap:round;stroke-linejoin:round;stroke-miterlimit:4;stroke-dasharray:none;stroke-dashoffset:0;stroke-opacity:1"
           id="rect917-5-6-7-2-97-1-5"
           width="30.175144"
           height="29.66396"
           x="723.32733"
           y="252.7321" />
        <path
           style="opacity:1;fill:#aaaaaa;fill-opacity:1;stroke:none;stroke-width:0.18530361;stroke-linecap:round;stroke-linejoin:round;stroke-miterlimit:4;stroke-dasharray:none;stroke-dashoffset:0;stroke-opacity:1"
           d="m 753.30814,252.62636 c -9.95234,0.0907 -19.90475,0.18145 -29.85718,0.27204 -0.17667,-0.18466 -0.022,-0.54658 -0.0734,-0.79647 0.0136,-9.50458 0.0272,-19.00913 0.0408,-28.5137 0.2039,-0.17135 0.42109,0.3262 0.6188,0.42715 9.79012,9.48075 19.56366,18.97766 29.32246,28.48886 0.043,0.0446 0.007,0.12085 -0.0516,0.12215 z"
           id="path1100-0-7-5-6-18-9-3-3-2-0"
           inkscape:connector-curvature="0"
           inkscape:export-xdpi="300"
           inkscape:export-ydpi="300" />
      </g>
      <g
         transform="translate(-605.98441,1.686212)"
         id="g1445">
        <rect
           style="opacity:1;fill:none;fill-opacity:1;stroke:#222222;stroke-width:0.51785964;stroke-linecap:round;stroke-linejoin:round;stroke-miterlimit:4;stroke-dasharray:none;stroke-dashoffset:0;stroke-opacity:1"
           id="rect917-5-6-7-2-97-1-3"
           width="30.175144"
           height="29.66396"
           x="799.30054"
           y="236.8571" />
        <path
           style="opacity:1;fill:#aaaaaa;fill-opacity:1;stroke:none;stroke-width:0.17857143;stroke-linecap:round;stroke-linejoin:round;stroke-miterlimit:4;stroke-dasharray:none;stroke-dashoffset:0;stroke-opacity:1"
           d="m 819.12773,216.89741 c -6.62175,6.74719 -13.24354,13.49443 -19.86545,20.24159 -0.24632,-0.009 -0.39264,-0.36309 -0.59991,-0.50134 -6.56166,-6.5799 -13.12331,-13.1598 -19.6849,-19.73978 0.0185,-0.2554 0.50834,-0.0573 0.71091,-0.1203 13.12984,-0.0212 26.2597,-0.0201 39.38954,7.9e-4 0.0597,0.002 0.0885,0.0786 0.0498,0.1191 z"
           id="path1100-0-7-5-6-18-9-3-3-2-6"
           inkscape:connector-curvature="0"
           inkscape:export-xdpi="300"
           inkscape:export-ydpi="300" />
      </g>
      <g
         transform="translate(-607.78594,-10.409033)"
         id="g1449">
        <rect
           style="opacity:1;fill:none;fill-opacity:1;stroke:#222222;stroke-width:0.51785964;stroke-linecap:round;stroke-linejoin:round;stroke-miterlimit:4;stroke-dasharray:none;stroke-dashoffset:0;stroke-opacity:1"
           id="rect917-5-6-7-2-97-1-10"
           width="30.175144"
           height="29.66396"
           x="865.06836"
           y="248.95235" />
        <path
           style="opacity:1;fill:#aaaaaa;fill-opacity:1;stroke:none;stroke-width:0.17857143;stroke-linecap:round;stroke-linejoin:round;stroke-miterlimit:4;stroke-dasharray:none;stroke-dashoffset:0;stroke-opacity:1"
           d="m 864.96087,220.68897 c 0.089,9.45322 0.1774,18.90652 0.266,28.35988 -0.1812,0.1671 -0.5344,0.0209 -0.7787,0.0697 -9.2925,-0.0129 -18.58497,-0.0258 -27.87749,-0.0388 -0.16787,-0.19333 0.31899,-0.40003 0.41759,-0.58773 9.26926,-9.29925 18.55424,-18.58267 27.8532,-27.85211 0.044,-0.041 0.1185,-0.0103 0.1196,0.0489 z"
           id="path1100-0-7-5-6-18-9-3-3-2-63"
           inkscape:connector-curvature="0"
           inkscape:export-xdpi="300"
           inkscape:export-ydpi="300" />
      </g>
    </g>
    <g
       id="g1941"
       transform="translate(-10.19089,-50.860159)">
      <path
         inkscape:connector-curvature="0"
         id="path1583"
         d="m 139.44959,361.35045 30.21447,-0.0236 0.0236,-29.62389 z"
         style="fill:none;stroke:#000000;stroke-width:0.51800001;stroke-linecap:butt;stroke-linejoin:round;stroke-miterlimit:4;stroke-dasharray:none;stroke-opacity:1" />
      <rect
         y="331.69473"
         x="17.111771"
         height="29.66396"
         width="30.175144"
         id="rect917-5-2-6"
         style="opacity:1;fill:none;fill-opacity:1;stroke:#222222;stroke-width:0.51785964;stroke-linecap:round;stroke-linejoin:round;stroke-miterlimit:4;stroke-dasharray:none;stroke-dashoffset:0;stroke-opacity:1" />
      <path
         inkscape:export-ydpi="300"
         inkscape:export-xdpi="300"
         inkscape:connector-curvature="0"
         id="path1100-0-7-5-6-18-9-3-3-2-7-7"
         d="m 84.744982,361.1348 c -0.0925,-9.73313 -0.18496,-19.46632 -0.27729,-29.19953 0.18823,-0.17278 0.55713,-0.0215 0.81186,-0.0718 9.6883,0.0133 19.376608,0.0265 29.064918,0.04 0.17465,0.19939 -0.33252,0.41181 -0.43541,0.60514 -9.66403,9.57449 -19.344518,19.13276 -29.039598,28.67659 -0.0455,0.042 -0.1232,0.007 -0.12451,-0.0505 z"
         style="opacity:1;fill:#222222;fill-opacity:1;stroke:#222222;stroke-width:0.18501422;stroke-linecap:round;stroke-linejoin:round;stroke-miterlimit:4;stroke-dasharray:none;stroke-dashoffset:0;stroke-opacity:1" />
      <rect
         y="344.58902"
         x="56.527504"
         height="3.8754082"
         width="14.967093"
         id="rect1646"
         style="opacity:1;fill:#000000;fill-opacity:1;stroke:none;stroke-width:0.31568787;stroke-linecap:round;stroke-linejoin:round;stroke-miterlimit:4;stroke-dasharray:none;stroke-dashoffset:0;stroke-opacity:1" />
      <g
         transform="translate(0,-1.0540324)"
         id="g1928">
        <rect
           style="opacity:1;fill:#000000;fill-opacity:1;stroke:none;stroke-width:0.31568787;stroke-linecap:round;stroke-linejoin:round;stroke-miterlimit:4;stroke-dasharray:none;stroke-dashoffset:0;stroke-opacity:1"
           id="rect1646-4"
           width="14.967093"
           height="3.8754082"
           x="118.93493"
           y="342.63626" />
        <rect
           style="opacity:1;fill:#000000;fill-opacity:1;stroke:none;stroke-width:0.31568787;stroke-linecap:round;stroke-linejoin:round;stroke-miterlimit:4;stroke-dasharray:none;stroke-dashoffset:0;stroke-opacity:1"
           id="rect1646-4-5"
           width="14.967093"
           height="3.8754082"
           x="118.93493"
           y="348.64984" />
      </g>
    </g>
    <g
       id="g1932"
       transform="translate(47.975619,-48.151191)">
      <path
         inkscape:connector-curvature="0"
         id="path1583-2"
         d="m 46.779228,445.39052 30.21447,-0.0236 0.0236,-29.62389 z"
         style="fill:none;stroke:#000000;stroke-width:0.51800001;stroke-linecap:butt;stroke-linejoin:round;stroke-miterlimit:4;stroke-dasharray:none;stroke-opacity:1" />
      <path
         inkscape:export-ydpi="300"
         inkscape:export-xdpi="300"
         inkscape:connector-curvature="0"
         id="path1100-0-7-5-3-4"
         d="m -6.7027626,445.42498 c 6.62175696,-6.7472 13.243552,-13.49442 19.8654216,-20.24155 0.246334,0.009 0.392649,0.36309 0.599909,0.50134 6.561663,6.5799 13.123317,13.1598 19.684915,19.73978 -0.0185,0.25539 -0.508355,0.0573 -0.710915,0.12029 -13.129846,0.0212 -26.2596996,0.0201 -39.3895356,-7.9e-4 -0.05968,-0.002 -0.0885,-0.0786 -0.04978,-0.11908 z"
         style="opacity:1;fill:#222222;fill-opacity:1;stroke:#222222;stroke-width:0.17857143;stroke-linecap:round;stroke-linejoin:round;stroke-miterlimit:4;stroke-dasharray:none;stroke-dashoffset:0;stroke-opacity:1" />
    </g>
    <g
       id="g957"
       transform="matrix(-1,0,0,1,206.332,497.55762)">
      <path
         inkscape:export-ydpi="300"
         inkscape:export-xdpi="300"
         inkscape:connector-curvature="0"
         id="path1100-0"
         d="m 109.2216,36.432234 c 9.45328,-0.0887 18.9066,-0.177389 28.35991,-0.265957 0.16781,0.180545 0.0209,0.53439 0.0697,0.7787 -0.0129,9.292488 -0.0258,18.584958 -0.0388,27.877448 -0.19369,0.16752 -0.39998,-0.31894 -0.58776,-0.41762 -9.2992,-9.26921 -18.58263,-18.5542 -27.85205,-27.853169 -0.0408,-0.04363 -0.007,-0.118157 0.049,-0.119423 z"
         style="opacity:1;fill:#222222;fill-opacity:1;stroke:#222222;stroke-width:0.17857143;stroke-linecap:round;stroke-linejoin:round;stroke-miterlimit:4;stroke-dasharray:none;stroke-dashoffset:0;stroke-opacity:1" />
      <path
         inkscape:export-ydpi="300"
         inkscape:export-xdpi="300"
         inkscape:connector-curvature="0"
         id="path1100-0-7"
         d="m 137.02468,65.463145 c -9.45328,0.0887 -18.9066,0.17739 -28.35991,0.26596 -0.16782,-0.18055 -0.0209,-0.53439 -0.0697,-0.7787 0.0129,-9.29249 0.0258,-18.58497 0.0388,-27.877465 0.19367,-0.167507 0.39998,0.31894 0.58775,0.417631 9.29919,9.269214 18.58262,18.554204 27.85204,27.853174 0.0408,0.0436 0.007,0.11816 -0.049,0.1194 z"
         style="opacity:1;fill:#222222;fill-opacity:1;stroke:#222222;stroke-width:0.17857143;stroke-linecap:round;stroke-linejoin:round;stroke-miterlimit:4;stroke-dasharray:none;stroke-dashoffset:0;stroke-opacity:1" />
    </g>
    <g
       id="g1959"
       transform="translate(-39.026569,-21.328871)">
      <path
         inkscape:export-ydpi="300"
         inkscape:export-xdpi="300"
         inkscape:connector-curvature="0"
         id="path1100-0-7-5-6-18-9-3-3-2-65-5"
         d="m -74.062697,475.73968 c 6.7472,6.62176 13.49443,13.24354 20.24158,19.86544 -0.009,0.24632 -0.36309,0.39264 -0.50134,0.59991 -6.5799,6.56166 -13.15979,13.12331 -19.73978,19.6849 -0.2554,-0.0185 -0.0573,-0.50834 -0.1203,-0.71091 -0.0212,-13.12984 -0.0201,-26.2597 8e-4,-39.38954 0.002,-0.0597 0.0786,-0.0885 0.1191,-0.0498 z"
         style="opacity:1;fill:#aaaaaa;fill-opacity:1;stroke:none;stroke-width:0.17857143;stroke-linecap:round;stroke-linejoin:round;stroke-miterlimit:4;stroke-dasharray:none;stroke-dashoffset:0;stroke-opacity:1" />
      <path
         inkscape:connector-curvature="0"
         id="path1583-2-7"
         d="m -104.51042,505.53653 30.214467,-0.0236 0.0236,-29.62389 z"
         style="fill:none;stroke:#000000;stroke-width:0.51800001;stroke-linecap:butt;stroke-linejoin:round;stroke-miterlimit:4;stroke-dasharray:none;stroke-opacity:1" />
      <path
         inkscape:export-ydpi="300"
         inkscape:export-xdpi="300"
         inkscape:connector-curvature="0"
         id="path1100-0-7-5-6-18-9-3-3-2-65-5-8"
         d="m -14.208529,477.26361 c 9.4532822,-0.0887 18.9065982,-0.1774 28.359944,-0.26597 0.16781,0.18054 0.0209,0.53438 0.0697,0.7787 -0.0129,9.29249 -0.0258,18.58496 -0.03881,27.87746 -0.193678,0.16752 -0.399961,-0.31893 -0.587748,-0.41762 -9.2991888,-9.26922 -18.5826388,-18.5542 -27.852056,-27.85318 -0.04073,-0.0437 -0.007,-0.11815 0.049,-0.11943 z"
         style="opacity:1;fill:#aaaaaa;fill-opacity:1;stroke:none;stroke-width:0.17857143;stroke-linecap:round;stroke-linejoin:round;stroke-miterlimit:4;stroke-dasharray:none;stroke-dashoffset:0;stroke-opacity:1" />
      <path
         inkscape:connector-curvature="0"
         id="path1583-2-7-9"
         d="m -44.302969,507.1039 30.214471,-0.0236 0.0236,-29.62388 z"
         style="fill:none;stroke:#000000;stroke-width:0.51800001;stroke-linecap:butt;stroke-linejoin:round;stroke-miterlimit:4;stroke-dasharray:none;stroke-opacity:1" />
      <path
         inkscape:export-ydpi="300"
         inkscape:export-xdpi="300"
         inkscape:connector-curvature="0"
         id="path1100-0-7-5-6-18-9-3-3-2-65-5-2"
         d="m 38.331667,477.07705 c 6.621759,-6.7472 13.243549,-13.49443 19.865449,-20.24159 0.24632,0.009 0.39264,0.36309 0.5999,0.50134 6.56166,6.57991 13.12331,13.1598 19.68491,19.73978 -0.0185,0.25541 -0.50834,0.0573 -0.71091,0.12031 -13.12985,0.0212 -26.2597,0.0201 -39.389537,-8e-4 -0.0597,-0.002 -0.0885,-0.0786 -0.0498,-0.1191 z"
         style="opacity:1;fill:#aaaaaa;fill-opacity:1;stroke:none;stroke-width:0.17857143;stroke-linecap:round;stroke-linejoin:round;stroke-miterlimit:4;stroke-dasharray:none;stroke-dashoffset:0;stroke-opacity:1" />
      <path
         inkscape:connector-curvature="0"
         id="path1583-2-7-6"
         d="m 8.4247102,506.72593 30.2144698,-0.0236 0.0236,-29.62389 z"
         style="fill:none;stroke:#000000;stroke-width:0.51800001;stroke-linecap:butt;stroke-linejoin:round;stroke-miterlimit:4;stroke-dasharray:none;stroke-opacity:1" />
      <path
         inkscape:export-ydpi="300"
         inkscape:export-xdpi="300"
         inkscape:connector-curvature="0"
         id="path1100-0-7-5-6-18-9-3-3-2-65-5-6"
         d="m 97.720236,512.65421 c -0.0887,-9.45328 -0.17741,-18.90659 -0.26597,-28.35994 0.18054,-0.1678 0.53438,-0.0209 0.77869,-0.0697 9.292494,0.0129 18.584974,0.0258 27.877474,0.0388 0.16751,0.19368 -0.31894,0.39997 -0.41763,0.58776 -9.26921,9.29918 -18.5542,18.58263 -27.853174,27.85205 -0.0436,0.0408 -0.11816,0.007 -0.11943,-0.049 z"
         style="opacity:1;fill:#aaaaaa;fill-opacity:1;stroke:none;stroke-width:0.17857143;stroke-linecap:round;stroke-linejoin:round;stroke-miterlimit:4;stroke-dasharray:none;stroke-dashoffset:0;stroke-opacity:1" />
      <path
         inkscape:connector-curvature="0"
         id="path1583-2-7-4"
         d="m 67.388996,513.15153 30.21447,-0.0236 0.0236,-29.62389 z"
         style="fill:none;stroke:#000000;stroke-width:0.51800001;stroke-linecap:butt;stroke-linejoin:round;stroke-miterlimit:4;stroke-dasharray:none;stroke-opacity:1" />
      <path
         inkscape:export-ydpi="300"
         inkscape:export-xdpi="300"
         inkscape:connector-curvature="0"
         id="path1100-0-7-5-6-18-9-3-3-2-65-5-9"
         d="m 180.74479,498.26241 c -6.7472,-6.62175 -13.49443,-13.24354 -20.24159,-19.86545 0.009,-0.24632 0.36309,-0.39264 0.50134,-0.59991 6.5799,-6.56166 13.15979,-13.1233 19.73978,-19.6849 0.2554,0.0185 0.0573,0.50834 0.1203,0.71091 0.0212,13.12984 0.0201,26.2597 -7.9e-4,39.38954 -0.002,0.0597 -0.0786,0.0885 -0.1191,0.0498 z"
         style="opacity:1;fill:#aaaaaa;fill-opacity:1;stroke:none;stroke-width:0.17857143;stroke-linecap:round;stroke-linejoin:round;stroke-miterlimit:4;stroke-dasharray:none;stroke-dashoffset:0;stroke-opacity:1" />
      <path
         inkscape:connector-curvature="0"
         id="path1583-2-7-5"
         d="m 130.51102,507.85986 30.21447,-0.0236 0.0236,-29.62389 z"
         style="fill:none;stroke:#000000;stroke-width:0.51800001;stroke-linecap:butt;stroke-linejoin:round;stroke-miterlimit:4;stroke-dasharray:none;stroke-opacity:1" />
      <path
         inkscape:export-ydpi="300"
         inkscape:export-xdpi="300"
         inkscape:connector-curvature="0"
         id="path1100-0-7-5-6-18-9-3-3-2-65-5-0"
         d="m 251.08134,478.70543 c -9.45329,0.0887 -18.90661,0.1774 -28.35996,0.26597 -0.16781,-0.18054 -0.0209,-0.53438 -0.0697,-0.7787 0.0129,-9.29249 0.0258,-18.58497 0.0388,-27.87746 0.19369,-0.16752 0.39997,0.31893 0.58776,0.41762 9.29919,9.2692 18.58263,18.5542 27.85204,27.85318 0.0408,0.0436 0.007,0.11816 -0.049,0.11943 z"
         style="opacity:1;fill:#aaaaaa;fill-opacity:1;stroke:none;stroke-width:0.17857143;stroke-linecap:round;stroke-linejoin:round;stroke-miterlimit:4;stroke-dasharray:none;stroke-dashoffset:0;stroke-opacity:1" />
      <path
         inkscape:connector-curvature="0"
         id="path1583-2-7-48"
         d="m 192.87709,508.23784 30.21448,-0.0236 0.0236,-29.62389 z"
         style="fill:none;stroke:#000000;stroke-width:0.51800001;stroke-linecap:butt;stroke-linejoin:round;stroke-miterlimit:4;stroke-dasharray:none;stroke-opacity:1" />
      <path
         inkscape:export-ydpi="300"
         inkscape:export-xdpi="300"
         inkscape:connector-curvature="0"
         id="path1100-0-7-5-6-18-9-3-3-2-65-5-7"
         d="m 306.34983,462.7163 c -6.62176,6.7472 -13.24355,13.49443 -19.86545,20.24159 -0.24632,-0.009 -0.39264,-0.36309 -0.59991,-0.50134 -6.56166,-6.57991 -13.12331,-13.15981 -19.6849,-19.73978 0.0185,-0.25541 0.50834,-0.0573 0.71091,-0.12031 13.12983,-0.0212 26.2597,-0.0201 39.38954,8.1e-4 0.0597,0.002 0.0885,0.0786 0.0498,0.1191 z"
         style="opacity:1;fill:#aaaaaa;fill-opacity:1;stroke:none;stroke-width:0.17857143;stroke-linecap:round;stroke-linejoin:round;stroke-miterlimit:4;stroke-dasharray:none;stroke-dashoffset:0;stroke-opacity:1" />
      <path
         inkscape:connector-curvature="0"
         id="path1583-2-7-1"
         d="m 256.37709,512.0176 30.21448,-0.0236 0.0236,-29.62389 z"
         style="fill:none;stroke:#000000;stroke-width:0.51800001;stroke-linecap:butt;stroke-linejoin:round;stroke-miterlimit:4;stroke-dasharray:none;stroke-opacity:1" />
      <path
         inkscape:export-ydpi="300"
         inkscape:export-xdpi="300"
         inkscape:connector-curvature="0"
         id="path1100-0-7-5-6-18-9-3-3-2-65-5-72"
         d="m 348.69862,478.96505 c 0.0939,9.80777 0.18773,19.61558 0.28146,29.42342 -0.19106,0.1741 -0.56549,0.0217 -0.82404,0.0723 -9.83351,-0.0134 -19.66702,-0.0268 -29.50053,-0.0403 -0.17727,-0.20095 0.33749,-0.41496 0.44193,-0.6098 9.80887,-9.64789 19.63445,-19.27945 29.47484,-28.89645 0.0461,-0.0423 0.12504,-0.007 0.12638,0.0508 z"
         style="opacity:1;fill:#aaaaaa;fill-opacity:1;stroke:#222222;stroke-width:0.18710873;stroke-linecap:round;stroke-linejoin:round;stroke-miterlimit:4;stroke-dasharray:none;stroke-dashoffset:0;stroke-opacity:1" />
      <path
         inkscape:connector-curvature="0"
         id="path1583-2-7-7"
         d="m 318.74317,508.23784 30.21447,-0.0236 0.0236,-29.62389 z"
         style="fill:#222222;fill-opacity:1;stroke:#222222;stroke-width:0.51800001;stroke-linecap:butt;stroke-linejoin:round;stroke-miterlimit:4;stroke-dasharray:none;stroke-opacity:1" />
    </g>
  </g>
</svg>
