<?xml version="1.0" encoding="UTF-8" standalone="no"?>
<!-- Created with Inkscape (http://www.inkscape.org/) -->

<svg
   xmlns:dc="http://purl.org/dc/elements/1.1/"
   xmlns:cc="http://creativecommons.org/ns#"
   xmlns:rdf="http://www.w3.org/1999/02/22-rdf-syntax-ns#"
   xmlns:svg="http://www.w3.org/2000/svg"
   xmlns="http://www.w3.org/2000/svg"
   xmlns:sodipodi="http://sodipodi.sourceforge.net/DTD/sodipodi-0.dtd"
   xmlns:inkscape="http://www.inkscape.org/namespaces/inkscape"
   width="173.75491mm"
   height="20.623423mm"
   viewBox="0 0 173.75491 20.623423"
   version="1.1"
   id="svg8"
   inkscape:version="0.92.5 (2060ec1f9f, 2020-04-08)"
   sodipodi:docname="puzzles.svg">
  <defs
     id="defs2" />
  <sodipodi:namedview
     id="base"
     pagecolor="#ffffff"
     bordercolor="#666666"
     borderopacity="1.0"
     inkscape:pageopacity="0.0"
     inkscape:pageshadow="2"
     inkscape:zoom="1.979899"
     inkscape:cx="310.7133"
     inkscape:cy="26.814428"
     inkscape:document-units="mm"
     inkscape:current-layer="layer1"
     showgrid="false"
     fit-margin-top="0"
     fit-margin-left="0"
     fit-margin-right="0"
     fit-margin-bottom="0"
     inkscape:window-width="2488"
     inkscape:window-height="1376"
     inkscape:window-x="72"
     inkscape:window-y="27"
     inkscape:window-maximized="1" />
  <metadata
     id="metadata5">
    <rdf:RDF>
      <cc:Work
         rdf:about="">
        <dc:format>image/svg+xml</dc:format>
        <dc:type
           rdf:resource="http://purl.org/dc/dcmitype/StillImage" />
        <dc:title></dc:title>
      </cc:Work>
    </rdf:RDF>
  </metadata>
  <g
     inkscape:label="Layer 1"
     inkscape:groupmode="layer"
     id="layer1"
     transform="translate(37.030396,-48.845346)">
    <path
       style="fill:#222222;fill-opacity:1;stroke:#000000;stroke-width:0.26458332px;stroke-linecap:butt;stroke-linejoin:miter;stroke-opacity:1"
       d="m -36.716151,55.354937 h 5.913337 v 4.075862 l 4.593696,-4.593696 9.872268,9.872268 h -8.285355 l -1.637028,1.637025 2.99008,2.99008 h -5.863227 l 2.898206,-2.898206 -2.864797,-2.864795 -3.006781,3.006783 -2.956668,-2.956671 v -4.125973 l 1.211064,-1.211064 z"
       id="path826"
       inkscape:connector-curvature="0" />
    <path
       style="fill:#222222;fill-opacity:1;stroke:#000000;stroke-width:0.26458332px;stroke-linecap:butt;stroke-linejoin:miter;stroke-opacity:1"
       d="m -11.091295,49.231543 v 6.013564 l 2.8731466,2.873147 -1.102487,1.102487 4.092565,4.092565 v 3.4578 l -2.363663,2.363665 h 14.073409 l 2.8188583,-2.81886 H 3.4414866 L 0.60801063,69.149387 V 60.857769 L -5.1915294,55.058227 v -5.893501 l -3.016699,3.016699 z"
       id="path832"
       inkscape:connector-curvature="0" />
    <g
       id="g866"
       transform="translate(-0.21402521,-1.119189)"
       style="fill:#222222;fill-opacity:1">
      <path
         inkscape:connector-curvature="0"
         id="path840"
         d="M 55.892739,66.24617 59.9686,62.170309 55.809218,58.010927 Z"
         style="fill:#222222;fill-opacity:1;stroke:#000000;stroke-width:0.26458332px;stroke-linecap:butt;stroke-linejoin:miter;stroke-opacity:1" />
      <path
         inkscape:connector-curvature="0"
         id="path842"
         d="m 50.046217,66.24617 5.712889,-5.712885 -5.746295,-5.746295 v 3.307461 l -8.268652,8.268649 4.092564,4.092565 h 8.385582 l 4.109268,-4.109268 z"
         style="fill:#222222;fill-opacity:1;stroke:#000000;stroke-width:0.26458332px;stroke-linecap:butt;stroke-linejoin:miter;stroke-opacity:1" />
    </g>
    <path
       style="fill:#222222;fill-opacity:1;stroke:#000000;stroke-width:0.26458332px;stroke-linecap:butt;stroke-linejoin:miter;stroke-opacity:1"
       d="m 64.091217,61.448123 v 4.29948 l 4.110489,-4.110493 v 7.512277 l 5.882254,-5.882253 5.858632,5.858629 v -2.43322 l 5.870442,-5.870442 v -2.256047 l 2.769857,-2.769856 -2.852539,-2.852539 v 3.82701 h -4.11049 v -3.779764 l -2.905694,2.905691 2.905694,2.905694 v 1.842633 h -9.921875 l -3.330916,-3.330914 z"
       id="path846"
       inkscape:connector-curvature="0" />
    <path
       style="fill:#222222;fill-opacity:1;stroke:#000000;stroke-width:0.26458332px;stroke-linecap:butt;stroke-linejoin:miter;stroke-opacity:1"
       d="m 93.761389,54.597304 v 12.236979 l 4.03962,-4.039621 4.016001,4.015997 v 2.338728 l 8.5399,-8.5399 -8.25642,-8.256418 v 2.385975 l -4.122301,4.122304 z"
       id="path852"
       inkscape:connector-curvature="0" />
    <path
       style="fill:#222222;fill-opacity:1;stroke:#000000;stroke-width:0.26458332px;stroke-linecap:butt;stroke-linejoin:miter;stroke-opacity:1"
       d="m 22.947698,69.336476 h 4.15774 v -4.157739 h 6.09486 l -4.06324,-4.063243 h 4.06324 l -8.2446,-8.244605 -8.315478,8.315476 h 4.417598 l -4.09868,4.098679 h 5.94131 z"
       id="path858"
       inkscape:connector-curvature="0" />
    <path
       style="fill:#222222;fill-opacity:1;stroke:#000000;stroke-width:0.26458332px;stroke-linecap:butt;stroke-linejoin:miter;stroke-opacity:1"
       d="m 119.07966,60.61185 8.66983,8.669829 8.78794,-8.787947 -5.76413,-5.764136 -2.91751,2.917502 -2.9175,-2.917502 z"
       id="path862"
       inkscape:connector-curvature="0" />
  </g>
</svg>
