<?xml version="1.0" encoding="UTF-8" standalone="no"?>
<!-- Created with Inkscape (http://www.inkscape.org/) -->

<svg
   xmlns:dc="http://purl.org/dc/elements/1.1/"
   xmlns:cc="http://creativecommons.org/ns#"
   xmlns:rdf="http://www.w3.org/1999/02/22-rdf-syntax-ns#"
   xmlns:svg="http://www.w3.org/2000/svg"
   xmlns="http://www.w3.org/2000/svg"
   xmlns:sodipodi="http://sodipodi.sourceforge.net/DTD/sodipodi-0.dtd"
   xmlns:inkscape="http://www.inkscape.org/namespaces/inkscape"
   width="11.811303in"
   height="2.3315952in"
   viewBox="0 0 300.0071 59.222519"
   version="1.1"
   id="svg1304"
   inkscape:version="0.92.5 (2060ec1f9f, 2020-04-08)"
   sodipodi:docname="tangram-pieces.svg">
  <defs
     id="defs1298" />
  <sodipodi:namedview
     id="base"
     pagecolor="#ffffff"
     bordercolor="#666666"
     borderopacity="1.0"
     inkscape:pageopacity="0.0"
     inkscape:pageshadow="2"
     inkscape:zoom="0.98994949"
     inkscape:cx="564.97266"
     inkscape:cy="170.77871"
     inkscape:document-units="mm"
     inkscape:current-layer="layer1"
     showgrid="false"
     units="in"
     fit-margin-top="0"
     fit-margin-left="0"
     fit-margin-right="0"
     fit-margin-bottom="0"
     inkscape:window-width="2488"
     inkscape:window-height="1376"
     inkscape:window-x="72"
     inkscape:window-y="27"
     inkscape:window-maximized="1" />
  <metadata
     id="metadata1301">
    <rdf:RDF>
      <cc:Work
         rdf:about="">
        <dc:format>image/svg+xml</dc:format>
        <dc:type
           rdf:resource="http://purl.org/dc/dcmitype/StillImage" />
        <dc:title></dc:title>
      </cc:Work>
    </rdf:RDF>
  </metadata>
  <g
     inkscape:label="Layer 1"
     inkscape:groupmode="layer"
     id="layer1"
     transform="translate(-276.35359,-118.46613)">
    <g
       transform="translate(340.86079,180.34876)"
       id="g1189"
       style="fill:#222222;fill-opacity:1;stroke:#222222;stroke-opacity:1"
       inkscape:export-xdpi="300"
       inkscape:export-ydpi="300">
      <path
         inkscape:export-ydpi="300"
         inkscape:export-xdpi="300"
         inkscape:connector-curvature="0"
         id="path1092-9"
         d="m 166.11455,-2.9127546 c -0.38852,0.14217 -0.90282,0.019 -1.33882,0.0603 -9.00645,-0.009 -18.01329,0.0229 -27.01935,-0.0298 -0.16864,-0.28588 -0.0196,-0.70159 -0.0764,-1.03211 -0.045,-9.1169394 -0.0403,-18.2342794 -0.0576,-27.3514594 0.29895,-0.0852 0.58561,0.52111 0.87559,0.70627 9.19889,9.19598 18.39769,18.39196 27.5965,27.5879394 z"
         style="opacity:1;fill:#222222;fill-opacity:1;stroke:#222222;stroke-width:0.25253814;stroke-linecap:round;stroke-linejoin:round;stroke-miterlimit:4;stroke-dasharray:none;stroke-dashoffset:0;stroke-opacity:1" />
      <path
         inkscape:export-ydpi="300"
         inkscape:export-xdpi="300"
         inkscape:connector-curvature="0"
         id="path1094-1"
         d="m 190.88037,-2.846881 c 6.87663,-5.3e-4 13.75326,-10e-4 20.62988,-0.002 0.18307,-0.1348 -0.18623,-0.29549 -0.25787,-0.42642 -6.73296,-6.7230592 -13.46593,-13.446129 -20.1989,-20.169189 -0.53174,-0.0478 -1.08113,-0.007 -1.61966,-0.0205 -13.22093,0 -26.44185,0 -39.66277,0 -0.18309,0.13479 0.18601,0.29566 0.25757,0.42665 6.7241,6.72414 13.4482,13.448279 20.17229,20.172419 0.53178,0.0477 1.08118,0.007 1.61974,0.0204 6.35324,-5.3e-4 12.70648,-10e-4 19.05972,-0.002 z"
         style="opacity:1;fill:#222222;fill-opacity:1;stroke:#222222;stroke-width:0.12626907;stroke-linecap:round;stroke-linejoin:round;stroke-miterlimit:4;stroke-dasharray:none;stroke-dashoffset:0;stroke-opacity:1" />
      <path
         inkscape:export-ydpi="300"
         inkscape:export-xdpi="300"
         inkscape:connector-curvature="0"
         id="path1096-2"
         d="m 101.68442,-23.500759 c -5.3e-4,-6.86263 -8e-4,-13.72525 -0.001,-20.58789 -0.19359,-0.16771 -0.39963,0.31944 -0.58723,0.41837 -13.536658,13.55081 -27.091775,27.08328 -40.609309,40.6531392 -0.13686,0.24053 0.290517,0.12168 0.413389,0.15182 13.571806,0.0381 27.14369,0.0166 40.71552,0.0225 0.15994,-0.20095 0.0259,-0.56325 0.07,-0.826 -2.7e-4,-6.6106292 -7.9e-4,-13.2212992 -9.9e-4,-19.8319292 z"
         style="opacity:1;fill:#222222;fill-opacity:1;stroke:#222222;stroke-width:0.17857143;stroke-linecap:round;stroke-linejoin:round;stroke-miterlimit:4;stroke-dasharray:none;stroke-dashoffset:0;stroke-opacity:1" />
      <path
         inkscape:export-ydpi="300"
         inkscape:export-xdpi="300"
         inkscape:connector-curvature="0"
         id="path1098-7"
         d="m 105.27122,-32.04498 c -0.0478,9.36544 -0.0437,18.73121 -0.0679,28.0968099 0.0162,0.36196 -0.0354,0.7391 0.0239,1.09142 2.18274,0.0332 4.37706,-10e-4 6.56426,0.006 7.50026,-0.0115 15.00053,-0.0231 22.50078,-0.0347 0.1607,-0.20059 0.0332,-0.56259 0.0806,-0.82493 0.10354,-9.4432799 0.17681,-18.8868599 0.26509,-28.3303499 -0.18056,-0.16783 -0.53436,-0.0215 -0.77872,-0.0706 -9.50599,-7.5e-4 -19.01197,-0.002 -28.51796,-0.002 -0.0228,0.0236 -0.0821,0.0139 -0.07,0.0692 z"
         style="opacity:1;fill:#222222;fill-opacity:1;stroke:#222222;stroke-width:0.17857143;stroke-linecap:round;stroke-linejoin:round;stroke-miterlimit:4;stroke-dasharray:none;stroke-dashoffset:0;stroke-opacity:1" />
      <path
         inkscape:export-ydpi="300"
         inkscape:export-xdpi="300"
         inkscape:connector-curvature="0"
         id="path1100-0"
         d="m 235.39285,-23.083546 c -6.62176,6.747205 -13.24356,13.4944197 -19.86543,20.2415541 -0.24633,-0.009 -0.39265,-0.3630921 -0.59991,-0.5013456 -6.56166,-6.5798982 -13.12331,-13.1597965 -19.6849,-19.7397715 0.0185,-0.255392 0.50835,-0.0573 0.71091,-0.120293 13.12984,-0.0212 26.2597,-0.0201 39.38953,8e-4 0.0597,0.002 0.0885,0.0786 0.0498,0.119063 z"
         style="opacity:1;fill:#222222;fill-opacity:1;stroke:#222222;stroke-width:0.17857143;stroke-linecap:round;stroke-linejoin:round;stroke-miterlimit:4;stroke-dasharray:none;stroke-dashoffset:0;stroke-opacity:1" />
      <path
         inkscape:export-ydpi="300"
         inkscape:export-xdpi="300"
         inkscape:connector-curvature="0"
         id="path1104-9"
         d="m 56.833163,-2.9412919 c -19.56762,0.0404 -39.1353,0.0825 -58.7029697,0.0993 -0.17936,-0.15377 0.22933,-0.3272 0.30172,-0.47424 C 17.880683,-22.803471 37.359813,-42.260401 56.824733,-61.731541 c 0.25549,0.0183 0.0564,0.50845 0.11904,0.71105 -0.0145,19.33641 -0.0284,38.67281 -0.0408,58.0092291 -0.0235,0.0231 -0.0142,0.0825 -0.0698,0.0699 z"
         style="opacity:1;fill:#222222;fill-opacity:1;stroke:#222222;stroke-width:0.17857143;stroke-linecap:round;stroke-linejoin:round;stroke-miterlimit:4;stroke-dasharray:none;stroke-dashoffset:0;stroke-opacity:1" />
      <path
         inkscape:export-ydpi="300"
         inkscape:export-xdpi="300"
         inkscape:connector-curvature="0"
         id="path1106-3"
         d="m -64.32863,-3.0313593 c 19.5432,-19.5663997 39.11061,-39.1134497 58.6627951,-58.6727097 0.28632,0.28774 0.0385,1.08583 0.12423,1.5611 0.053,19.07236 0.0842,38.14499 0.12568,57.2174397 -0.65615,0.16897 -1.44385,0.0206 -2.14895,0.0715 -18.8992151,0.01 -37.7984751,-0.0512 -56.6977051,-0.0844 l -0.0569,-0.0295 z"
         style="opacity:1;fill:#222222;fill-opacity:1;stroke:#222222;stroke-width:0.35714287;stroke-linecap:round;stroke-linejoin:round;stroke-miterlimit:4;stroke-dasharray:none;stroke-dashoffset:0;stroke-opacity:1" />
    </g>
  </g>
</svg>
