<?xml version="1.0" encoding="UTF-8" standalone="no"?>
<!-- Created with Inkscape (http://www.inkscape.org/) -->

<svg
   width="512"
   height="128"
   viewBox="0 0 135.46666 33.866667"
   version="1.1"
   id="svg5"
   inkscape:version="1.1.2 (0a00cf5339, 2022-02-04)"
   sodipodi:docname="lidar-coordinates.svg"
   xmlns:inkscape="http://www.inkscape.org/namespaces/inkscape"
   xmlns:sodipodi="http://sodipodi.sourceforge.net/DTD/sodipodi-0.dtd"
   xmlns="http://www.w3.org/2000/svg"
   xmlns:svg="http://www.w3.org/2000/svg">
  <sodipodi:namedview
     id="namedview7"
     pagecolor="#ffffff"
     bordercolor="#666666"
     borderopacity="1.0"
     inkscape:pageshadow="2"
     inkscape:pageopacity="0.0"
     inkscape:pagecheckerboard="0"
     inkscape:document-units="mm"
     showgrid="false"
     units="px"
     width="512px"
     inkscape:zoom="2.8284271"
     inkscape:cx="252.6139"
     inkscape:cy="143.01235"
     inkscape:window-width="2486"
     inkscape:window-height="1376"
     inkscape:window-x="74"
     inkscape:window-y="27"
     inkscape:window-maximized="1"
     inkscape:current-layer="layer1" />
  <defs
     id="defs2">
    <inkscape:path-effect
       effect="bspline"
       id="path-effect10267"
       is_visible="true"
       lpeversion="1"
       weight="33.333333"
       steps="2"
       helper_size="0"
       apply_no_weight="true"
       apply_with_weight="true"
       only_selected="false" />
    <inkscape:path-effect
       effect="bspline"
       id="path-effect9286"
       is_visible="true"
       lpeversion="1"
       weight="33.333333"
       steps="2"
       helper_size="0"
       apply_no_weight="true"
       apply_with_weight="true"
       only_selected="false" />
    <marker
       style="overflow:visible"
       id="DotM"
       refX="0"
       refY="0"
       orient="auto"
       inkscape:stockid="DotM"
       inkscape:isstock="true">
      <path
         transform="matrix(0.4,0,0,0.4,2.96,0.4)"
         style="fill:context-stroke;fill-rule:evenodd;stroke:context-stroke;stroke-width:1pt"
         d="m -2.5,-1 c 0,2.76 -2.24,5 -5,5 -2.76,0 -5,-2.24 -5,-5 0,-2.76 2.24,-5 5,-5 2.76,0 5,2.24 5,5 z"
         id="path9023" />
    </marker>
    <marker
       style="overflow:visible"
       id="Arrow2Mend"
       refX="0"
       refY="0"
       orient="auto"
       inkscape:stockid="Arrow2Mend"
       inkscape:isstock="true">
      <path
         transform="scale(-0.6)"
         d="M 8.7185878,4.0337352 -2.2072895,0.01601326 8.7185884,-4.0017078 c -1.7454984,2.3720609 -1.7354408,5.6174519 -6e-7,8.035443 z"
         style="fill:context-stroke;fill-rule:evenodd;stroke:context-stroke;stroke-width:0.625;stroke-linejoin:round"
         id="path8986" />
    </marker>
    <marker
       style="overflow:visible"
       id="Arrow2Lend"
       refX="0"
       refY="0"
       orient="auto"
       inkscape:stockid="Arrow2Lend"
       inkscape:isstock="true">
      <path
         transform="matrix(-1.1,0,0,-1.1,-1.1,0)"
         d="M 8.7185878,4.0337352 -2.2072895,0.01601326 8.7185884,-4.0017078 c -1.7454984,2.3720609 -1.7354408,5.6174519 -6e-7,8.035443 z"
         style="fill:context-stroke;fill-rule:evenodd;stroke:context-stroke;stroke-width:0.625;stroke-linejoin:round"
         id="path8980" />
    </marker>
    <inkscape:path-effect
       effect="bspline"
       id="path-effect7500"
       is_visible="true"
       lpeversion="1"
       weight="33.333333"
       steps="2"
       helper_size="0"
       apply_no_weight="true"
       apply_with_weight="true"
       only_selected="false" />
    <inkscape:path-effect
       effect="bspline"
       id="path-effect7223"
       is_visible="true"
       lpeversion="1"
       weight="33.333333"
       steps="2"
       helper_size="0"
       apply_no_weight="true"
       apply_with_weight="true"
       only_selected="false" />
    <inkscape:path-effect
       effect="bspline"
       id="path-effect6855"
       is_visible="true"
       lpeversion="1"
       weight="33.333333"
       steps="2"
       helper_size="0"
       apply_no_weight="true"
       apply_with_weight="true"
       only_selected="false" />
    <inkscape:path-effect
       effect="bspline"
       id="path-effect4715"
       is_visible="true"
       lpeversion="1"
       weight="33.333333"
       steps="2"
       helper_size="0"
       apply_no_weight="true"
       apply_with_weight="true"
       only_selected="false" />
    <inkscape:path-effect
       effect="bspline"
       id="path-effect1815"
       is_visible="true"
       lpeversion="1"
       weight="33.333333"
       steps="2"
       helper_size="0"
       apply_no_weight="true"
       apply_with_weight="true"
       only_selected="false" />
    <inkscape:path-effect
       effect="bspline"
       id="path-effect1428"
       is_visible="true"
       lpeversion="1"
       weight="33.333333"
       steps="2"
       helper_size="0"
       apply_no_weight="true"
       apply_with_weight="true"
       only_selected="false" />
    <inkscape:path-effect
       effect="bspline"
       id="path-effect1424"
       is_visible="true"
       lpeversion="1"
       weight="33.333333"
       steps="2"
       helper_size="0"
       apply_no_weight="true"
       apply_with_weight="true"
       only_selected="false" />
    <inkscape:path-effect
       effect="bspline"
       id="path-effect1147"
       is_visible="true"
       lpeversion="1"
       weight="33.333333"
       steps="2"
       helper_size="0"
       apply_no_weight="true"
       apply_with_weight="true"
       only_selected="false" />
    <inkscape:path-effect
       effect="bspline"
       id="path-effect1143"
       is_visible="true"
       lpeversion="1"
       weight="33.333333"
       steps="2"
       helper_size="0"
       apply_no_weight="true"
       apply_with_weight="true"
       only_selected="false" />
    <clipPath
       clipPathUnits="userSpaceOnUse"
       id="clipPath2157">
      <rect
         style="fill:none;fill-opacity:1;stroke:#000000;stroke-width:0.322136;stroke-linecap:round;stroke-linejoin:round;stroke-miterlimit:4;stroke-dasharray:none;stroke-opacity:1"
         id="rect2159"
         width="25.567127"
         height="3.5476012"
         x="90.602509"
         y="103.74283" />
    </clipPath>
    <clipPath
       clipPathUnits="userSpaceOnUse"
       id="clipPath2157-5">
      <rect
         style="fill:none;fill-opacity:1;stroke:#000000;stroke-width:0.322136;stroke-linecap:round;stroke-linejoin:round;stroke-miterlimit:4;stroke-dasharray:none;stroke-opacity:1"
         id="rect2159-3"
         width="25.567127"
         height="3.5476012"
         x="90.602509"
         y="103.74283" />
    </clipPath>
    <clipPath
       clipPathUnits="userSpaceOnUse"
       id="clipPath2157-5-6">
      <rect
         style="fill:none;fill-opacity:1;stroke:#000000;stroke-width:0.322136;stroke-linecap:round;stroke-linejoin:round;stroke-miterlimit:4;stroke-dasharray:none;stroke-opacity:1"
         id="rect2159-3-2"
         width="25.567127"
         height="3.5476012"
         x="90.602509"
         y="103.74283" />
    </clipPath>
    <inkscape:path-effect
       effect="bspline"
       id="path-effect4715-9"
       is_visible="true"
       lpeversion="1"
       weight="33.333333"
       steps="2"
       helper_size="0"
       apply_no_weight="true"
       apply_with_weight="true"
       only_selected="false" />
    <inkscape:path-effect
       effect="bspline"
       id="path-effect4715-9-6"
       is_visible="true"
       lpeversion="1"
       weight="33.333333"
       steps="2"
       helper_size="0"
       apply_no_weight="true"
       apply_with_weight="true"
       only_selected="false" />
    <inkscape:path-effect
       effect="bspline"
       id="path-effect4715-9-6-6"
       is_visible="true"
       lpeversion="1"
       weight="33.333333"
       steps="2"
       helper_size="0"
       apply_no_weight="true"
       apply_with_weight="true"
       only_selected="false" />
    <marker
       style="overflow:visible"
       id="Arrow2Mend-7"
       refX="0"
       refY="0"
       orient="auto"
       inkscape:stockid="Arrow2Mend"
       inkscape:isstock="true">
      <path
         transform="scale(-0.6)"
         d="M 8.7185878,4.0337352 -2.2072895,0.01601326 8.7185884,-4.0017078 c -1.7454984,2.3720609 -1.7354408,5.6174519 -6e-7,8.035443 z"
         style="fill:context-stroke;fill-rule:evenodd;stroke:context-stroke;stroke-width:0.625;stroke-linejoin:round"
         id="path8986-9" />
    </marker>
    <inkscape:path-effect
       effect="bspline"
       id="path-effect6855-2"
       is_visible="true"
       lpeversion="1"
       weight="33.333333"
       steps="2"
       helper_size="0"
       apply_no_weight="true"
       apply_with_weight="true"
       only_selected="false" />
    <marker
       style="overflow:visible"
       id="Arrow2Mend-7-2"
       refX="0"
       refY="0"
       orient="auto"
       inkscape:stockid="Arrow2Mend"
       inkscape:isstock="true">
      <path
         transform="scale(-0.6)"
         d="M 8.7185878,4.0337352 -2.2072895,0.01601326 8.7185884,-4.0017078 c -1.7454984,2.3720609 -1.7354408,5.6174519 -6e-7,8.035443 z"
         style="fill:context-stroke;fill-rule:evenodd;stroke:context-stroke;stroke-width:0.625;stroke-linejoin:round"
         id="path8986-9-3" />
    </marker>
    <inkscape:path-effect
       effect="bspline"
       id="path-effect6855-2-7"
       is_visible="true"
       lpeversion="1"
       weight="33.333333"
       steps="2"
       helper_size="0"
       apply_no_weight="true"
       apply_with_weight="true"
       only_selected="false" />
    <marker
       style="overflow:visible"
       id="Arrow2Mend-9"
       refX="0"
       refY="0"
       orient="auto"
       inkscape:stockid="Arrow2Mend"
       inkscape:isstock="true">
      <path
         transform="scale(-0.6)"
         d="M 8.7185878,4.0337352 -2.2072895,0.01601326 8.7185884,-4.0017078 c -1.7454984,2.3720609 -1.7354408,5.6174519 -6e-7,8.035443 z"
         style="fill:context-stroke;fill-rule:evenodd;stroke:context-stroke;stroke-width:0.625;stroke-linejoin:round"
         id="path8986-2" />
    </marker>
    <inkscape:path-effect
       effect="bspline"
       id="path-effect9286-2"
       is_visible="true"
       lpeversion="1"
       weight="33.333333"
       steps="2"
       helper_size="0"
       apply_no_weight="true"
       apply_with_weight="true"
       only_selected="false" />
  </defs>
  <g
     inkscape:label="Layer 1"
     inkscape:groupmode="layer"
     id="layer1">
    <path
       style="fill:#e5e5e4;fill-opacity:1;stroke:#000000;stroke-width:0.00809272;stroke-linecap:round;stroke-linejoin:round;stroke-miterlimit:4;stroke-dasharray:none;stroke-opacity:1"
       d="m 38.249922,17.937114 c -0.176125,0.235721 -0.420204,0.361387 -0.657162,0.470325 -0.525142,0.22699 -1.076224,0.339946 -1.626035,0.420416 -0.853738,0.119189 -1.716106,0.130897 -2.573372,0.06848 -0.65635,-0.05567 -1.314069,-0.155282 -1.950894,-0.371749 -0.278031,-0.100098 -0.559035,-0.215964 -0.801483,-0.421094 -0.05759,-0.04614 -0.105516,-0.110828 -0.159636,-0.160385 -0.01805,0.03749 -0.0022,0.09516 -0.0075,0.140199 0.0015,0.317158 7.53e-4,0.634684 0.0037,0.951615 0.06473,0.201826 0.220333,0.320684 0.365265,0.417989 0.352153,0.221982 0.737883,0.340324 1.121447,0.438009 0.775861,0.185938 1.566749,0.256105 2.355528,0.261932 0.810286,6.4e-5 1.62295,-0.06758 2.420621,-0.253937 0.355889,-0.08788 0.712552,-0.194263 1.045155,-0.381338 0.158428,-0.09566 0.327252,-0.199219 0.432678,-0.384482 0.04105,-0.06579 0.04753,-0.150325 0.04533,-0.231148 0.0029,-0.31882 7.51e-4,-0.637675 0.0015,-0.956514 -1.8e-4,-0.01 -0.01031,-0.01476 -0.01557,-0.0084 z"
       id="path2602" />
    <path
       style="fill:#e5e5e4;fill-opacity:1;stroke:#000000;stroke-width:0.00809272;stroke-linecap:round;stroke-linejoin:round;stroke-miterlimit:4;stroke-dasharray:none;stroke-opacity:1"
       d="m 38.250651,14.020216 c -0.156404,0.21123 -0.371332,0.329533 -0.580104,0.434673 -0.487391,0.228751 -1.003058,0.343303 -1.516997,0.42883 -0.991646,0.15651 -1.996826,0.170329 -2.993088,0.07524 -0.616795,-0.06635 -1.235807,-0.169371 -1.830977,-0.391544 -0.269049,-0.106602 -0.542601,-0.230471 -0.766086,-0.454466 -0.02872,-0.02644 -0.05158,-0.06512 -0.08237,-0.0862 -0.01797,0.03748 -0.0022,0.09519 -0.0068,0.140244 0.0015,0.161807 7.45e-4,0.323988 0.0037,0.485562 0.06316,0.187952 0.204133,0.308785 0.340747,0.40281 0.342288,0.225961 0.720695,0.344497 1.09626,0.443415 0.676486,0.168415 1.365746,0.242838 2.054192,0.268051 0.396506,0.0034 0.793394,0.0046 1.189531,-0.01951 0.688245,-0.04967 1.378443,-0.14195 2.047335,-0.360858 0.290875,-0.101075 0.585291,-0.21703 0.839205,-0.42929 0.09019,-0.08171 0.187711,-0.182158 0.212749,-0.326291 0.01015,-0.200351 0.0045,-0.401564 0.0082,-0.602248 -1.79e-4,-0.01004 -0.01023,-0.01489 -0.01557,-0.0085 z"
       id="path2526" />
    <path
       style="fill:#ff0000;fill-opacity:1;stroke:#ff0000;stroke-width:0.220238;stroke-linecap:butt;stroke-linejoin:miter;stroke-miterlimit:4;stroke-dasharray:none;stroke-opacity:1;marker-end:url(#DotM)"
       d="M 34.242753,16.967908 C 45.70432,15.498951 57.16578,14.030008 68.627132,12.561079"
       id="path4713"
       inkscape:path-effect="#path-effect4715"
       inkscape:original-d="M 34.242753,16.967908 C 45.704336,15.49908 57.165797,14.030139 68.627132,12.561079"
       sodipodi:nodetypes="cc" />
    <path
       style="fill:none;fill-opacity:1;stroke:#ff0000;stroke-width:0.221305;stroke-linecap:round;stroke-linejoin:round;stroke-miterlimit:4;stroke-dasharray:0.221305, 0.442609;stroke-dashoffset:0;stroke-opacity:1"
       d="m 33.986946,10.702143 c -7.064443,0.05269 -14.150855,0.66888 -21.09366,2.382954 -3.2801352,0.859832 -6.5829374,1.883092 -9.5856472,3.818021 -1.1702254,0.812166 -2.4237571,1.755449 -3.0325444,3.330929 -0.426484,1.08812 0.039135,2.335177 0.6640014,3.123209 1.3801162,1.76034 3.2377853,2.728776 5.0384973,3.591468 4.3396239,1.942992 8.9025289,2.927968 13.4554149,3.652415 8.396361,1.256551 16.891163,1.394256 25.31817,0.571902 5.40656,-0.572413 10.823803,-1.478888 16.044953,-3.404713 2.226686,-0.875558 4.497552,-1.864023 6.359137,-3.69991 0.712125,-0.754559 1.486315,-1.714657 1.471864,-2.983223 -0.173193,-1.634181 -1.288091,-2.731405 -2.318909,-3.542684 -2.758137,-2.080303 -5.895567,-3.15173 -8.997202,-4.062276 -6.559646,-1.811869 -13.278552,-2.535344 -19.980596,-2.739461 -1.114313,-0.03099 -2.228943,-0.04262 -3.343479,-0.03875 z"
       id="path2641-1" />
    <path
       style="fill:none;fill-opacity:1;stroke:#ff0000;stroke-width:0.221305;stroke-linecap:round;stroke-linejoin:round;stroke-miterlimit:4;stroke-dasharray:0.221305, 0.442609;stroke-dashoffset:0;stroke-opacity:1"
       d="m 33.986946,7.8607704 c -7.06445,0.052694 -14.150863,0.6688812 -21.09366,2.3829566 -3.2801362,0.85983 -6.5829384,1.88309 -9.5856463,3.818018 -1.1702277,0.812166 -2.4237586,1.755452 -3.032546,3.330932 -0.4264849,1.088115 0.039135,2.335175 0.6640007,3.123208 1.3801184,1.760336 3.237784,2.728771 5.0384958,3.591465 4.3396248,1.94299 8.9025318,2.927967 13.4554178,3.652414 8.396353,1.256552 16.891163,1.394256 25.31817,0.571901 5.40656,-0.572412 10.823803,-1.478886 16.044953,-3.404713 2.226686,-0.875557 4.497552,-1.864015 6.359137,-3.69991 0.712125,-0.754557 1.486315,-1.714652 1.471864,-2.983216 C 68.453939,16.609644 67.339041,15.512419 66.308223,14.701139 63.550086,12.620835 60.412656,11.54941 57.311021,10.638864 50.751375,8.8269954 44.032469,8.1035192 37.330425,7.8994012 36.216112,7.8684088 35.101482,7.8567781 33.986946,7.8606485 Z"
       id="path2641-1-2" />
    <path
       style="fill:none;stroke:#000000;stroke-width:0.221305;stroke-linecap:butt;stroke-linejoin:miter;stroke-miterlimit:4;stroke-dasharray:none;stroke-opacity:1;marker-end:url(#Arrow2Mend)"
       d="m 34.242753,16.967907 c 16.458477,0 32.9168,0 49.374997,0"
       id="path6853"
       inkscape:path-effect="#path-effect6855"
       inkscape:original-d="m 34.242753,16.967907 c 16.458477,1.15e-4 32.9168,1.15e-4 49.374997,0" />
    <path
       style="fill:none;fill-opacity:1;stroke:#ff0000;stroke-width:0.221305;stroke-linecap:round;stroke-linejoin:round;stroke-miterlimit:4;stroke-dasharray:0.221305, 0.442609;stroke-dashoffset:0;stroke-opacity:1"
       d="M 33.986946,5.0193977 C 26.922496,5.0720936 19.836091,5.6882785 12.893286,7.4023548 9.6131498,8.2621849 6.3103486,9.2854441 3.3076379,11.220373 2.137412,12.03254 0.8838811,12.975825 0.2750937,14.551301 c -0.426484,1.088119 0.039135,2.33518 0.6640014,3.123214 1.3801161,1.760338 3.2377852,2.728767 5.038497,3.591459 4.3396239,1.942991 8.9025289,2.927967 13.4554159,3.652413 8.396353,1.256552 16.891163,1.394258 25.31817,0.571902 5.40656,-0.572405 10.823803,-1.478886 16.044953,-3.404712 2.226686,-0.875556 4.497552,-1.864017 6.359137,-3.699905 0.712125,-0.754559 1.486315,-1.714659 1.471864,-2.983223 C 68.453939,13.768268 67.339041,12.671048 66.308223,11.859766 63.550086,9.7794635 60.412656,8.7080388 57.311021,7.7974919 50.751375,5.9856225 44.032469,5.2621458 37.330425,5.0580282 36.216112,5.0270397 35.101482,5.0154032 33.986946,5.0192746 Z"
       id="path2641-1-7" />
    <path
       style="fill:none;fill-opacity:1;stroke:#ff0000;stroke-width:0.221305;stroke-linecap:round;stroke-linejoin:round;stroke-miterlimit:4;stroke-dasharray:0.221305, 0.442609;stroke-dashoffset:0;stroke-opacity:1"
       d="M 33.986946,2.1780276 C 26.922503,2.2307244 19.836091,2.8469093 12.893287,4.5609839 9.6131508,5.4208135 6.3103495,6.444073 3.3076397,8.3790026 2.1374134,9.1911693 0.8838825,10.134457 0.2750952,11.709931 c -0.4264848,1.08812 0.039135,2.335181 0.6640014,3.123214 1.3801162,1.760337 3.2377845,2.728771 5.0384975,3.591464 4.3396219,1.942985 8.9025289,2.927963 13.4554139,3.652412 8.396353,1.256551 16.891163,1.394255 25.31817,0.571901 5.40656,-0.572412 10.823803,-1.478887 16.044953,-3.404707 2.226686,-0.875559 4.497552,-1.864022 6.359137,-3.699915 0.712125,-0.754556 1.486315,-1.714656 1.471864,-2.983221 C 68.453939,10.926898 67.339041,9.8296782 66.308223,9.0183976 63.550086,6.9380926 60.412656,5.8666673 57.311021,4.9561212 50.751375,3.1442516 44.032469,2.4207758 37.330425,2.2166589 36.216112,2.1856616 35.101482,2.1740339 33.986946,2.1779052 Z"
       id="path2641-1-0" />
    <path
       style="fill:#05005d;fill-opacity:1;stroke:none;stroke-width:0.103445px;stroke-linecap:butt;stroke-linejoin:miter;stroke-opacity:1"
       d="m 30.438379,15.229451 c -0.001,0.51272 -0.003,1.538041 0.0068,2.061561 0.0098,0.523519 0.03143,0.545276 0.112705,0.617299 0.08128,0.07202 0.222256,0.194344 0.37846,0.293351 0.156203,0.09901 0.327617,0.174737 0.508318,0.239856 0.1807,0.06512 0.370686,0.119645 0.547796,0.164865 0.17711,0.04522 0.341343,0.08114 0.55998,0.118351 0.218637,0.03721 0.49167,0.07572 0.776674,0.09951 0.285004,0.02379 0.581978,0.03286 0.913436,0.03558 0.331458,0.0027 0.697407,-9.01e-4 0.987724,-0.01917 0.290318,-0.01827 0.505014,-0.05119 0.75951,-0.09567 0.254496,-0.04449 0.548793,-0.100546 0.778608,-0.154412 0.229814,-0.05387 0.395167,-0.105539 0.558185,-0.158696 0.163018,-0.05316 0.323697,-0.107799 0.468473,-0.186582 0.144775,-0.07878 0.273683,-0.181719 0.358775,-0.275598 0.08509,-0.09388 0.126374,-0.178719 0.146785,-0.723861 0.02041,-0.545142 0.01991,-1.550591 0.01175,-2.045067 -0.0082,-0.494477 -0.02396,-0.477889 -0.06222,-0.432014 -0.03826,0.04587 -0.0989,0.12093 -0.206602,0.213348 -0.107698,0.09242 -0.262456,0.2022 -0.499639,0.3055 -0.237183,0.103299 -0.556826,0.200123 -0.88179,0.276393 -0.324963,0.07627 -0.65525,0.131976 -0.997218,0.170013 -0.341969,0.03804 -0.695625,0.0584 -1.02137,0.06392 -0.325744,0.0055 -0.623575,-0.0038 -0.907124,-0.02078 -0.283549,-0.01698 -0.552799,-0.04161 -0.87199,-0.08028 -0.319191,-0.03867 -0.688149,-0.09136 -0.985102,-0.16249 -0.296953,-0.07113 -0.521893,-0.160712 -0.712846,-0.255876 -0.190954,-0.09516 -0.347914,-0.195931 -0.451908,-0.280562 -0.103993,-0.08463 -0.154972,-0.153146 -0.191929,-0.197321 -0.03696,-0.04418 -0.0599,-0.06397 -0.07144,-0.07393 -0.01155,-0.01 -0.01183,-0.01 -0.01283,0.502759 z"
       id="path1813"
       inkscape:path-effect="#path-effect1815"
       inkscape:original-d="m 30.439379,14.71673 c -0.0022,1.025441 -0.0037,2.050763 -0.006,3.075969 0.02165,0.02185 0.04323,0.04362 0.06472,0.06521 0.141081,0.122443 0.282056,0.244768 0.422948,0.366977 0.171509,0.07584 0.34292,0.151577 0.514241,0.227189 0.190086,0.05464 0.380069,0.109176 0.569968,0.163583 0.164327,0.03603 0.328558,0.07196 0.492691,0.107758 0.273147,0.03864 0.54618,0.07715 0.81913,0.115541 0.297069,0.0092 0.594043,0.01829 0.890924,0.02722 0.36604,-0.0035 0.731989,-0.0071 1.097847,-0.01087 0.214794,-0.03281 0.42949,-0.06572 0.644103,-0.09874 0.294386,-0.05594 0.588683,-0.112 0.882881,-0.168174 0.165449,-0.05155 0.3308,-0.10323 0.496059,-0.155016 0.16078,-0.05453 0.321461,-0.109167 0.482054,-0.163928 0.129004,-0.102824 0.257913,-0.205759 0.386729,-0.308812 0.04142,-0.08475 0.08268,-0.169601 0.123878,-0.254578 -7.52e-4,-1.005367 -7.52e-4,-2.010816 -0.0015,-3.016395 -0.01572,0.01673 -0.0315,0.03333 -0.04745,0.04984 -0.0606,0.0752 -0.121223,0.150271 -0.181974,0.22523 -0.154675,0.109903 -0.309431,0.219688 -0.464279,0.329354 -0.319565,0.09694 -0.639206,0.193771 -0.958947,0.290478 -0.330205,0.05583 -0.660492,0.111535 -0.99087,0.167122 -0.353573,0.02049 -0.70723,0.04084 -1.060976,0.06108 -0.297754,-0.0092 -0.595585,-0.01853 -0.893511,-0.02797 -0.269177,-0.02453 -0.538428,-0.04915 -0.807785,-0.0739 -0.369032,-0.05258 -0.737989,-0.105278 -1.10705,-0.158103 -0.224853,-0.08948 -0.449797,-0.179058 -0.674831,-0.268762 -0.15687,-0.100654 -0.31383,-0.201422 -0.470887,-0.302307 -0.0509,-0.06842 -0.101878,-0.136936 -0.15296,-0.205577 -0.02285,-0.01969 -0.04578,-0.03949 -0.06887,-0.05942 z" />
    <path
       style="fill:none;stroke:#000000;stroke-width:0.219566;stroke-linecap:butt;stroke-linejoin:miter;stroke-miterlimit:4;stroke-dasharray:none;stroke-opacity:1"
       d="m 30.430326,13.680624 c 0,1.775181 0,3.55015 0,5.324897"
       id="path1422"
       inkscape:path-effect="#path-effect1424"
       inkscape:original-d="m 30.430326,13.680624 c 9e-5,1.775181 9e-5,3.55015 0,5.324897" />
    <ellipse
       style="fill:none;fill-opacity:1;stroke:#000000;stroke-width:0.564363;stroke-linecap:round;stroke-linejoin:round;stroke-miterlimit:4;stroke-dasharray:none"
       id="path846"
       cx="103.38608"
       cy="103.68132"
       rx="11.3564"
       ry="2.8411298"
       clip-path="url(#clipPath2157)"
       transform="matrix(0.34702914,0,0,0.44047538,-1.509531,-28.043051)" />
    <ellipse
       style="fill:none;fill-opacity:1;stroke:#000000;stroke-width:0.564363;stroke-linecap:round;stroke-linejoin:round;stroke-miterlimit:4;stroke-dasharray:none"
       id="path846-5-9"
       cx="103.38608"
       cy="103.68132"
       rx="11.3564"
       ry="2.8411298"
       clip-path="url(#clipPath2157-5-6)"
       transform="matrix(0.34723595,0,0,0.44047538,-1.5288391,-31.089001)" />
    <path
       style="fill:#e5e5e4;fill-opacity:1;stroke:#000000;stroke-width:0.22178;stroke-linecap:round;stroke-linejoin:round;stroke-miterlimit:4;stroke-dasharray:none;stroke-opacity:1"
       d="m 34.319816,12.517194 c -0.811359,0.006 -1.625231,0.07604 -2.422611,0.2709 -0.376723,0.09775 -0.756052,0.214069 -1.100911,0.434036 -0.134402,0.09233 -0.278368,0.19956 -0.348289,0.378662 -0.049,0.1237 0.0045,0.265465 0.07626,0.355049 0.158506,0.200119 0.37186,0.310208 0.578669,0.408281 0.498403,0.22088 1.022458,0.332856 1.545359,0.415209 0.964318,0.142847 1.939946,0.158505 2.907788,0.06502 0.620943,-0.06507 1.243115,-0.168123 1.842757,-0.387051 0.255734,-0.09954 0.516541,-0.211904 0.730345,-0.420609 0.08179,-0.08577 0.170705,-0.194926 0.16905,-0.339137 -0.0199,-0.185774 -0.14794,-0.310508 -0.266331,-0.402736 -0.316768,-0.236489 -0.677106,-0.358289 -1.033326,-0.4618 -0.753371,-0.205976 -1.52504,-0.288222 -2.294773,-0.31143 -0.127977,-0.0035 -0.255991,-0.005 -0.38399,-0.0045 z"
       id="path2641" />
    <path
       style="fill:none;stroke:#000000;stroke-width:0.217234;stroke-linecap:butt;stroke-linejoin:miter;stroke-miterlimit:4;stroke-dasharray:none;stroke-opacity:1;marker-end:url(#Arrow2Mend)"
       d="m 51.489919,17.05765 c -0.0033,-0.124551 -0.0066,-0.249209 -0.01527,-0.398877 -0.0087,-0.149668 -0.02273,-0.324345 -0.04065,-0.466056 -0.01792,-0.141712 -0.03974,-0.250486 -0.06381,-0.365775 -0.02407,-0.115289 -0.05041,-0.237108 -0.07323,-0.337036 -0.02282,-0.09993 -0.04211,-0.177941 -0.05905,-0.247142 -0.01694,-0.0692 -0.03151,-0.129572 -0.04612,-0.190073"
       id="path9284"
       inkscape:path-effect="#path-effect9286"
       inkscape:original-d="m 51.489919,17.05765 c -0.003,-0.124559 -0.0062,-0.24922 -0.0099,-0.373979 -0.01388,-0.174579 -0.02798,-0.349252 -0.04216,-0.524027 -0.02163,-0.10867 -0.04349,-0.217434 -0.06543,-0.326302 -0.02619,-0.121715 -0.05256,-0.243527 -0.07901,-0.365437 -0.01922,-0.07794 -0.03846,-0.155967 -0.0579,-0.2341 -0.01443,-0.06027 -0.029,-0.120642 -0.04373,-0.181114" />
    <g
       aria-label="Altitude"
       id="text13359"
       style="font-weight:bold;font-size:3.175px;line-height:1.25;font-family:Roboto;-inkscape-font-specification:'Roboto Bold';stroke-width:0.264583"
       transform="matrix(1.3005554,0,0,1.3005554,-13.646427,-27.72081)">
      <path
         d="M 66.049885,33.53458 65.32916,31.64863 h -0.352425 l -0.720725,1.88595 h 0.314325 l 0.200025,-0.523875 h 0.7493 l 0.200025,0.523875 z m -0.612775,-0.7747 h -0.587375 l 0.225425,-0.574675 c 0.02858,-0.0762 0.04762,-0.1397 0.0635,-0.20955 h 0.0127 c 0.01588,0.06985 0.03493,0.13335 0.0635,0.20955 z"
         style="font-weight:normal;font-family:Author;-inkscape-font-specification:Author"
         id="path32991" />
      <path
         d="m 66.554705,31.52163 -0.29845,0.01588 v 1.997075 h 0.29845 z"
         style="font-weight:normal;font-family:Author;-inkscape-font-specification:Author"
         id="path32993" />
      <path
         d="M 67.6977,32.13758 H 67.269075 V 31.766105 L 66.9738,31.83278 v 0.3048 h -0.19685 v 0.257175 h 0.19685 v 0.7112 c 0,0.2921 0.149225,0.45085 0.4572,0.45085 0.117475,0 0.2159,-0.0254 0.282575,-0.07302 l -0.01588,-0.254 c -0.0508,0.0381 -0.123825,0.06668 -0.2032,0.06668 -0.1397,0 -0.225425,-0.06668 -0.225425,-0.225425 v -0.676275 h 0.4064 z"
         style="font-weight:normal;font-family:Author;-inkscape-font-specification:Author"
         id="path32995" />
      <path
         d="m 68.110447,31.52798 c -0.1016,0 -0.1778,0.07303 -0.1778,0.168275 0,0.09842 0.0762,0.174625 0.1778,0.174625 0.09843,0 0.17145,-0.0762 0.17145,-0.174625 0,-0.09525 -0.07303,-0.168275 -0.17145,-0.168275 z m 0.14605,0.60325 -0.29845,0.0127 v 1.39065 h 0.29845 z"
         style="font-weight:normal;font-family:Author;-inkscape-font-specification:Author"
         id="path32997" />
      <path
         d="m 69.399492,32.13758 h -0.428625 v -0.371475 l -0.295275,0.06668 v 0.3048 h -0.19685 v 0.257175 h 0.19685 v 0.7112 c 0,0.2921 0.149225,0.45085 0.4572,0.45085 0.117475,0 0.2159,-0.0254 0.282575,-0.07302 l -0.01588,-0.254 c -0.0508,0.0381 -0.123825,0.06668 -0.2032,0.06668 -0.1397,0 -0.225425,-0.06668 -0.225425,-0.225425 V 32.39477 h 0.4064 z"
         style="font-weight:normal;font-family:Author;-inkscape-font-specification:Author"
         id="path32999" />
      <path
         d="m 70.898087,32.13123 -0.29845,0.0127 v 1.019175 c -0.1143,0.07937 -0.244475,0.130175 -0.365125,0.130175 -0.180975,0 -0.28575,-0.09208 -0.28575,-0.29845 v -0.8636 l -0.298449,0.0127 v 0.9144 c 0,0.346075 0.190499,0.498475 0.485774,0.498475 0.15875,0 0.31115,-0.0508 0.46355,-0.1651 v 0.142875 h 0.29845 z"
         style="font-weight:normal;font-family:Author;-inkscape-font-specification:Author"
         id="path33001" />
      <path
         d="m 72.488757,31.52163 -0.295275,0.01588 v 0.638175 c -0.0889,-0.04127 -0.20955,-0.06032 -0.32385,-0.06032 -0.428625,0 -0.720725,0.29845 -0.720725,0.733425 0,0.4445 0.295275,0.708025 0.650875,0.708025 0.14605,0 0.282575,-0.04127 0.3937,-0.123825 v 0.1016 h 0.295275 z m -0.295275,0.90805 v 0.76835 c -0.09208,0.06985 -0.200025,0.1016 -0.320675,0.1016 -0.244475,0 -0.415925,-0.17145 -0.415925,-0.4572 0,-0.2921 0.1905,-0.4699 0.454025,-0.4699 0.09843,0 0.212725,0.0254 0.282575,0.05715 z"
         style="font-weight:normal;font-family:Author;-inkscape-font-specification:Author"
         id="path33003" />
      <path
         d="m 74.025453,32.90593 c 0.0095,-0.06032 0.0127,-0.136525 0.0127,-0.1905 0,-0.3683 -0.257175,-0.600075 -0.612775,-0.600075 -0.390525,0 -0.682625,0.282575 -0.682625,0.708025 0,0.45085 0.3048,0.733425 0.809625,0.733425 0.168275,0 0.377825,-0.04762 0.485775,-0.127 l -0.0127,-0.263525 c -0.111125,0.07937 -0.295275,0.130175 -0.454025,0.130175 -0.295275,0 -0.485775,-0.149225 -0.517525,-0.390525 z m -0.600075,-0.5715 c 0.200025,0 0.333375,0.1397 0.333375,0.339725 0,0.01588 0,0.0381 -0.0032,0.0508 h -0.7112 c 0.02223,-0.238125 0.17145,-0.390525 0.381,-0.390525 z"
         style="font-weight:normal;font-family:Author;-inkscape-font-specification:Author"
         id="path33005" />
    </g>
    <path
       style="fill:none;stroke:#000000;stroke-width:0.219606;stroke-linecap:butt;stroke-linejoin:miter;stroke-miterlimit:4;stroke-dasharray:none;stroke-opacity:1"
       d="m 38.29959,13.689331 c 0,1.766438 0,3.532661 0,5.298659"
       id="path1426"
       inkscape:path-effect="#path-effect1428"
       inkscape:original-d="m 38.29959,13.689331 c 9.1e-5,1.766438 9.1e-5,3.532661 0,5.298659" />
    <ellipse
       style="fill:none;fill-opacity:1;stroke:#000000;stroke-width:0.635694;stroke-linecap:round;stroke-linejoin:round;stroke-miterlimit:4;stroke-dasharray:none"
       id="path846-5"
       cx="103.38608"
       cy="103.68132"
       rx="11.3564"
       ry="2.8411298"
       clip-path="url(#clipPath2157-5)"
       transform="matrix(0.3465625,0,0,0.44047538,-1.4651169,-26.709334)" />
    <circle
       style="fill:#ff0000;fill-opacity:1;stroke:none;stroke-width:0.256153;stroke-linecap:round;stroke-linejoin:round;stroke-miterlimit:4;stroke-dasharray:none;stroke-dashoffset:0;stroke-opacity:1"
       id="path35128"
       cx="68.617798"
       cy="12.561544"
       r="0.50711495" />
    <path
       style="fill:none;stroke:#000000;stroke-width:0.219556;stroke-linecap:butt;stroke-linejoin:miter;stroke-miterlimit:4;stroke-dasharray:none;stroke-opacity:1;marker-end:url(#Arrow2Mend-7)"
       d="m 107.91797,16.935074 c 9.07233,0 18.14459,0 27.21676,0"
       id="path6853-0"
       inkscape:path-effect="#path-effect6855-2"
       inkscape:original-d="m 107.91797,16.935074 c 9.07233,1.55e-4 18.14459,1.55e-4 27.21676,0" />
    <path
       style="fill:none;fill-opacity:1;stroke:#ff0000;stroke-width:0.221;stroke-linecap:round;stroke-linejoin:round;stroke-miterlimit:4;stroke-dasharray:0.221,0.442;stroke-dashoffset:0;stroke-opacity:1"
       d="m 107.81039,5.5373942 c -2.35028,0.057291 -4.70789,0.7264631 -7.01773,2.5880761 -1.091265,0.9338336 -2.190082,2.0451657 -3.189063,4.1466527 -0.389327,0.882068 -0.806371,1.906551 -1.008908,3.617636 -0.141893,1.181786 0.01308,2.536183 0.220906,3.39205 0.459168,1.911862 1.077189,2.963652 1.676278,3.900593 1.443763,2.110239 2.961807,3.179993 4.476517,3.9668 2.79341,1.364703 5.61959,1.514252 8.42318,0.621123 1.79873,-0.62168 3.60102,-1.606176 5.33804,-3.697769 0.74082,-0.950926 1.49631,-2.024473 2.11565,-4.018376 0.23691,-0.819511 0.49449,-1.862247 0.48967,-3.240002 -0.0577,-1.774854 -0.42853,-2.966517 -0.77148,-3.847635 -0.91761,-2.259352 -1.96141,-3.4229991 -2.9933,-4.411923 -2.18234,-1.9678266 -4.41769,-2.7535831 -6.64741,-2.9752635 -0.37071,-0.033735 -0.74154,-0.046337 -1.11235,-0.042143 z"
       id="path2641-1-0-6" />
    <path
       style="fill:#ff0000;fill-opacity:1;stroke:#ff0000;stroke-width:0.220573;stroke-linecap:butt;stroke-linejoin:miter;stroke-miterlimit:4;stroke-dasharray:none;stroke-opacity:1;marker-end:url(#DotM)"
       d="m 107.9112,16.96993 c 3.45898,-1.545558 6.91801,-3.09114 10.37708,-4.63674"
       id="path6853-0-5"
       inkscape:path-effect="#path-effect6855-2-7"
       inkscape:original-d="m 107.9112,16.96993 c 3.45906,-1.545372 6.91809,-3.090955 10.37708,-4.63674"
       sodipodi:nodetypes="cc" />
    <path
       style="fill:#e5e5e4;fill-opacity:1;stroke:#000000;stroke-width:0.219721;stroke-linecap:round;stroke-linejoin:round;stroke-miterlimit:4;stroke-dasharray:none;stroke-opacity:1"
       d="m 107.91458,14.874439 c -0.4247,0.01035 -0.85072,0.13128 -1.26812,0.467685 -0.19719,0.168757 -0.39574,0.369569 -0.57625,0.749327 -0.0703,0.1594 -0.14572,0.344522 -0.18231,0.653727 -0.0256,0.21356 0.003,0.458299 0.04,0.612964 0.083,0.345484 0.19464,0.535542 0.3029,0.70486 0.26089,0.381323 0.53519,0.574647 0.80892,0.716818 0.50476,0.246609 1.01544,0.273645 1.52206,0.112252 0.32504,-0.112348 0.65072,-0.290253 0.9646,-0.668219 0.13386,-0.171835 0.27037,-0.365835 0.38229,-0.72614 0.0428,-0.148089 0.0894,-0.336526 0.0884,-0.585496 -0.0104,-0.320716 -0.0774,-0.536063 -0.13941,-0.695278 -0.16582,-0.408282 -0.35442,-0.618556 -0.54089,-0.797262 -0.39435,-0.355601 -0.79829,-0.497587 -1.20119,-0.537657 -0.067,-0.0062 -0.134,-0.0084 -0.20101,-0.0079 z"
       id="path2641-18" />
    <path
       style="fill:none;stroke:#000000;stroke-width:0.221305;stroke-linecap:butt;stroke-linejoin:miter;stroke-miterlimit:4;stroke-dasharray:none;stroke-opacity:1;marker-end:url(#Arrow2Mend-9)"
       d="m 115.70168,16.964335 c -0.004,-0.187098 -0.009,-0.374412 -0.0198,-0.599255 -0.0113,-0.224843 -0.0296,-0.487247 -0.053,-0.700153 -0.0234,-0.212907 -0.0518,-0.376306 -0.0831,-0.549507 -0.0314,-0.173202 -0.0657,-0.356214 -0.0954,-0.506329 -0.0297,-0.150115 -0.0549,-0.267331 -0.077,-0.371302 -0.0221,-0.103971 -0.041,-0.194671 -0.06,-0.285536"
       id="path9284-8"
       inkscape:path-effect="#path-effect9286-2"
       inkscape:original-d="m 115.70168,16.964335 c -0.003,-0.187127 -0.009,-0.374401 -0.0128,-0.561831 -0.0182,-0.262276 -0.0364,-0.524689 -0.055,-0.787254 -0.0282,-0.163259 -0.0566,-0.326658 -0.0852,-0.490212 -0.0341,-0.182855 -0.0685,-0.365852 -0.10296,-0.549002 -0.025,-0.117088 -0.0501,-0.234317 -0.0755,-0.351695 -0.0188,-0.09055 -0.0378,-0.181244 -0.0569,-0.272088" />
    <g
       aria-label="Azimuth"
       id="text13359-9"
       style="font-weight:bold;font-size:3.175px;line-height:1.25;font-family:'Bebas Neue';-inkscape-font-specification:'Bebas Neue Bold';stroke-width:0.264583"
       transform="matrix(1.3005554,0,0,1.3005554,-34.143635,-31.036659)">
      <path
         d="m 120.38166,36.160488 -0.72073,-1.88595 h -0.35242 l -0.72073,1.88595 h 0.31433 l 0.20002,-0.523875 h 0.7493 l 0.20003,0.523875 z m -0.61278,-0.7747 h -0.58737 l 0.22542,-0.574675 c 0.0286,-0.0762 0.0476,-0.1397 0.0635,-0.20955 h 0.0127 c 0.0159,0.06985 0.0349,0.13335 0.0635,0.20955 z"
         style="font-weight:normal;font-family:Author;-inkscape-font-specification:Author"
         id="path33008" />
      <path
         d="m 120.50865,36.160488 h 1.17793 v -0.257175 h -0.81915 l 0.78105,-0.885825 v -0.254 h -1.10173 v 0.257175 h 0.74613 l -0.78423,0.885825 z"
         style="font-weight:normal;font-family:Author;-inkscape-font-specification:Author"
         id="path33010" />
      <path
         d="m 122.10885,34.153888 c -0.1016,0 -0.1778,0.07303 -0.1778,0.168275 0,0.09842 0.0762,0.174625 0.1778,0.174625 0.0984,0 0.17145,-0.0762 0.17145,-0.174625 0,-0.09525 -0.073,-0.168275 -0.17145,-0.168275 z m 0.14605,0.60325 -0.29845,0.0127 v 1.39065 h 0.29845 z"
         style="font-weight:normal;font-family:Author;-inkscape-font-specification:Author"
         id="path33012" />
      <path
         d="m 124.7441,36.160488 v -0.92075 c 0,-0.346075 -0.18733,-0.498475 -0.47943,-0.498475 -0.16827,0 -0.33655,0.06033 -0.50482,0.20955 -0.0635,-0.111125 -0.17145,-0.174625 -0.3048,-0.193675 -0.0603,-0.0095 -0.12065,-0.0127 -0.1905,-0.0063 -0.11113,0.0095 -0.23495,0.06032 -0.36195,0.155575 v -0.149225 l -0.29845,0.0127 v 1.39065 h 0.29845 v -1.025525 c 0.11112,-0.0762 0.2413,-0.130175 0.35242,-0.130175 0.13335,0 0.22543,0.05715 0.254,0.193675 0.01,0.02858 0.0159,0.0635 0.0159,0.104775 v 0.85725 h 0.29845 v -0.88265 c 0,-0.04763 -0.006,-0.09525 -0.0127,-0.1397 0.10477,-0.07303 0.21907,-0.117475 0.32067,-0.130175 0.0127,0 0.0286,-0.0032 0.0444,-0.0032 0.13335,0 0.22543,0.05715 0.254,0.193675 0.01,0.02858 0.0159,0.0635 0.0159,0.104775 v 0.85725 z"
         style="font-weight:normal;font-family:Author;-inkscape-font-specification:Author"
         id="path33014" />
      <path
         d="m 126.34112,34.757138 -0.29845,0.0127 v 1.019175 c -0.1143,0.07938 -0.24448,0.130175 -0.36513,0.130175 -0.18097,0 -0.28575,-0.09208 -0.28575,-0.29845 v -0.8636 l -0.29845,0.0127 v 0.9144 c 0,0.346075 0.1905,0.498475 0.48578,0.498475 0.15875,0 0.31115,-0.0508 0.46355,-0.1651 v 0.142875 h 0.29845 z"
         style="font-weight:normal;font-family:Author;-inkscape-font-specification:Author"
         id="path33016" />
      <path
         d="m 127.48411,34.763488 h -0.42862 v -0.371475 l -0.29528,0.06668 v 0.3048 h -0.19685 v 0.257175 h 0.19685 v 0.7112 c 0,0.2921 0.14923,0.45085 0.4572,0.45085 0.11748,0 0.2159,-0.0254 0.28258,-0.07303 l -0.0159,-0.254 c -0.0508,0.0381 -0.12382,0.06667 -0.2032,0.06667 -0.1397,0 -0.22542,-0.06667 -0.22542,-0.225425 v -0.676275 h 0.4064 z"
         style="font-weight:normal;font-family:Author;-inkscape-font-specification:Author"
         id="path33018" />
      <path
         d="m 129.01128,36.160488 v -0.92075 c 0,-0.346075 -0.1905,-0.498475 -0.48895,-0.498475 -0.16192,0 -0.32702,0.0508 -0.47942,0.1651 v -0.758825 l -0.29845,0.01588 v 1.997075 h 0.29845 v -1.025525 c 0.1143,-0.0762 0.25082,-0.130175 0.37465,-0.130175 0.18415,0 0.29527,0.09208 0.29527,0.29845 v 0.85725 z"
         style="font-weight:normal;font-family:Author;-inkscape-font-specification:Author"
         id="path33020" />
    </g>
    <circle
       style="fill:#ff0000;fill-opacity:1;stroke:none;stroke-width:0.256153;stroke-linecap:round;stroke-linejoin:round;stroke-miterlimit:4;stroke-dasharray:none;stroke-dashoffset:0;stroke-opacity:1"
       id="path35128-1"
       cx="118.27666"
       cy="12.339412"
       r="0.50711495" />
  </g>
</svg>
