<?xml version="1.0" encoding="UTF-8" standalone="no"?>
<!-- Created with matplotlib (https://matplotlib.org/) -->

<svg
   xmlns:dc="http://purl.org/dc/elements/1.1/"
   xmlns:cc="http://creativecommons.org/ns#"
   xmlns:rdf="http://www.w3.org/1999/02/22-rdf-syntax-ns#"
   xmlns:svg="http://www.w3.org/2000/svg"
   xmlns="http://www.w3.org/2000/svg"
   xmlns:sodipodi="http://sodipodi.sourceforge.net/DTD/sodipodi-0.dtd"
   xmlns:inkscape="http://www.inkscape.org/namespaces/inkscape"
   height="3.6296849in"
   version="1.1"
   viewBox="0 0 325.21509 261.33731"
   width="4.5168762in"
   id="svg54"
   sodipodi:docname="ccc.svg"
   inkscape:version="0.92.3 (2405546, 2018-03-11)"
   inkscape:export-filename="/home/jordan/Documents/dubins/ccc.png"
   inkscape:export-xdpi="300"
   inkscape:export-ydpi="300">
  <sodipodi:namedview
     pagecolor="#ffffff"
     bordercolor="#666666"
     borderopacity="1"
     objecttolerance="10"
     gridtolerance="10"
     guidetolerance="10"
     inkscape:pageopacity="0"
     inkscape:pageshadow="2"
     inkscape:window-width="1853"
     inkscape:window-height="1025"
     id="namedview56"
     showgrid="false"
     inkscape:zoom="1.0243055"
     inkscape:cx="-27.91811"
     inkscape:cy="184.80121"
     inkscape:window-x="67"
     inkscape:window-y="27"
     inkscape:window-maximized="1"
     inkscape:current-layer="svg54"
     showguides="false"
     fit-margin-top="0.125"
     fit-margin-left="0.125"
     fit-margin-right="0.125"
     fit-margin-bottom="0.125"
     units="in" />
  <metadata
     id="metadata2">
    <rdf:RDF>
      <cc:Work>
        <dc:type
           rdf:resource="http://purl.org/dc/dcmitype/StillImage" />
        <dc:date>2021-07-09T15:48:37.103574</dc:date>
        <dc:format>image/svg+xml</dc:format>
        <dc:creator>
          <cc:Agent>
            <dc:title>Matplotlib v3.3.4, https://matplotlib.org/</dc:title>
          </cc:Agent>
        </dc:creator>
        <dc:title />
      </cc:Work>
    </rdf:RDF>
  </metadata>
  <defs
     id="defs6"
     style="stroke-linecap:butt;stroke-linejoin:round">
    <style
       type="text/css"
       id="style4">*{stroke-linecap:butt;stroke-linejoin:round;}</style>
    <clipPath
       id="pac414278ae-5"
       style="stroke-linecap:butt;stroke-linejoin:round">
      <rect
         height="266.112"
         width="357.12"
         x="57.599998"
         y="41.472"
         id="rect49-9"
         style="stroke-linecap:butt;stroke-linejoin:round" />
    </clipPath>
    <clipPath
       id="pac414278ae-1"
       style="stroke-linecap:butt;stroke-linejoin:round">
      <rect
         height="266.112"
         width="357.12"
         x="57.599998"
         y="41.472"
         id="rect49-5"
         style="stroke-linecap:butt;stroke-linejoin:round" />
    </clipPath>
  </defs>
  <g
     id="patch_2"
     style="fill:#000000;fill-opacity:1;stroke-linecap:butt;stroke-linejoin:round"
     transform="matrix(0.70112826,0,0,0.70112826,-28.358219,24.143829)">
    <path
       clip-path="url(#pac414278ae)"
       d="m 151.21618,230.9307 c 0.90109,0 1.7654,-0.35801 2.40257,-0.99518 0.63717,-0.63717 0.99518,-1.50148 0.99518,-2.40258 0,-0.90109 -0.35801,-1.7654 -0.99518,-2.40257 -0.63717,-0.63717 -1.50148,-0.99518 -2.40257,-0.99518 -0.9011,0 -1.7654,0.35801 -2.40257,0.99518 -0.63717,0.63717 -0.99518,1.50148 -0.99518,2.40257 0,0.9011 0.35801,1.76541 0.99518,2.40258 0.63717,0.63717 1.50147,0.99518 2.40257,0.99518 z"
       style="fill:#000000;fill-opacity:1;stroke:#000000;stroke-linecap:butt;stroke-linejoin:miter"
       id="path11"
       inkscape:connector-curvature="0" />
  </g>
  <g
     id="patch_3"
     style="fill:#000000;fill-opacity:1;stroke-linecap:butt;stroke-linejoin:round"
     transform="matrix(0.7182211,0,0,0.7182211,16.927819,20.254645)">
    <path
       clip-path="url(#pac414278ae)"
       d="m 321.10382,230.9307 c 0.90109,0 1.7654,-0.35801 2.40257,-0.99518 0.63717,-0.63717 0.99518,-1.50148 0.99518,-2.40258 0,-0.90109 -0.35801,-1.7654 -0.99518,-2.40257 -0.63717,-0.63717 -1.50148,-0.99518 -2.40257,-0.99518 -0.90109,0 -1.7654,0.35801 -2.40257,0.99518 -0.63717,0.63717 -0.99518,1.50148 -0.99518,2.40257 0,0.9011 0.35801,1.76541 0.99518,2.40258 0.63717,0.63717 1.50148,0.99518 2.40257,0.99518 z"
       style="fill:#000000;fill-opacity:1;stroke:#000000;stroke-linecap:butt;stroke-linejoin:miter"
       id="path14"
       inkscape:connector-curvature="0" />
  </g>
  <g
     id="patch_4"
     style="fill:#000000;fill-opacity:1;stroke-linecap:butt;stroke-linejoin:round"
     transform="matrix(0.66792038,0,0,0.66792038,4.8714611,-3.5040083)">
    <path
       clip-path="url(#pac414278ae)"
       d="m 236.16,124.92081 c 0.90109,0 1.7654,-0.35801 2.40257,-0.99518 0.63717,-0.63717 0.99518,-1.50148 0.99518,-2.40257 0,-0.9011 -0.35801,-1.76541 -0.99518,-2.40258 -0.63717,-0.63717 -1.50148,-0.99518 -2.40257,-0.99518 -0.9011,0 -1.7654,0.35801 -2.40257,0.99518 -0.63717,0.63717 -0.99518,1.50148 -0.99518,2.40258 0,0.90109 0.35801,1.7654 0.99518,2.40257 0.63717,0.63717 1.50147,0.99518 2.40257,0.99518 z"
       style="fill:#000000;fill-opacity:1;stroke:#000000;stroke-linecap:butt;stroke-linejoin:miter"
       id="path17"
       inkscape:connector-curvature="0" />
  </g>
  <g
     id="patch_5"
     style="stroke-width:1.41732287;stroke-linecap:butt;stroke-linejoin:round;stroke-miterlimit:4;stroke-dasharray:none"
     transform="translate(-73.552462,-43.859338)">
    <path
       clip-path="url(#pac414278ae)"
       d="m 151.21618,295.488 c 18.02189,0 35.30808,-7.16017 48.05148,-19.90358 12.7434,-12.7434 19.90358,-30.02959 19.90358,-48.05148 0,-18.02189 -7.16018,-35.30808 -19.90358,-48.05148 -12.7434,-12.7434 -30.02959,-19.90357 -48.05148,-19.90357 -18.02189,0 -35.30808,7.16017 -48.05148,19.90357 -12.743403,12.7434 -19.903576,30.02959 -19.903576,48.05148 0,18.02189 7.160173,35.30808 19.903576,48.05148 12.7434,12.74341 30.02959,19.90358 48.05148,19.90358 z"
       style="fill:none;stroke:#0000ff;stroke-width:1.41732287;stroke-linecap:butt;stroke-linejoin:miter;stroke-miterlimit:4;stroke-dasharray:none"
       id="path20"
       inkscape:connector-curvature="0" />
  </g>
  <g
     id="patch_6"
     style="stroke-width:1.41732287;stroke-linecap:butt;stroke-linejoin:round;stroke-miterlimit:4;stroke-dasharray:none"
     transform="translate(-73.552462,-43.859338)">
    <path
       clip-path="url(#pac414278ae)"
       d="m 321.10382,295.488 c 18.02189,0 35.30808,-7.16017 48.05148,-19.90358 12.7434,-12.7434 19.90358,-30.02959 19.90358,-48.05148 0,-18.02189 -7.16018,-35.30808 -19.90358,-48.05148 -12.7434,-12.7434 -30.02959,-19.90357 -48.05148,-19.90357 -18.02189,0 -35.30808,7.16017 -48.05148,19.90357 -12.7434,12.7434 -19.90358,30.02959 -19.90358,48.05148 0,18.02189 7.16018,35.30808 19.90358,48.05148 12.7434,12.74341 30.02959,19.90358 48.05148,19.90358 z"
       style="fill:none;stroke:#0000ff;stroke-width:1.41732287;stroke-linecap:butt;stroke-linejoin:miter;stroke-miterlimit:4;stroke-dasharray:none"
       id="path23"
       inkscape:connector-curvature="0" />
  </g>
  <g
     id="patch_7"
     style="stroke-width:1.41732287;stroke-linecap:butt;stroke-linejoin:round;stroke-miterlimit:4;stroke-dasharray:none"
     transform="translate(-73.552462,-43.859338)">
    <path
       clip-path="url(#pac414278ae)"
       d="m 236.16,189.47811 c 18.02189,0 35.30808,-7.16017 48.05148,-19.90357 12.7434,-12.74341 19.90358,-30.02959 19.90358,-48.05148 0,-18.02189 -7.16018,-35.308083 -19.90358,-48.051485 C 271.46808,60.728173 254.18189,53.568 236.16,53.568 c -18.02189,0 -35.30808,7.160173 -48.05148,19.903575 -12.7434,12.743402 -19.90358,30.029595 -19.90358,48.051485 0,18.02189 7.16018,35.30807 19.90358,48.05148 12.7434,12.7434 30.02959,19.90357 48.05148,19.90357 z"
       style="fill:none;stroke:#ff0000;stroke-width:1.41732287;stroke-linecap:butt;stroke-linejoin:miter;stroke-miterlimit:4;stroke-dasharray:none"
       id="path26"
       inkscape:connector-curvature="0" />
  </g>
  <g
     id="line2d_1"
     style="stroke-linecap:butt;stroke-linejoin:round"
     transform="translate(-73.552462,-43.859338)">
    <path
       clip-path="url(#pac414278ae)"
       d="M 151.21618,227.53294 H 321.10382"
       style="fill:none;stroke:#000000;stroke-width:1.5;stroke-linecap:butt;stroke-linejoin:round;stroke-dasharray:5.55, 2.4;stroke-dashoffset:0"
       id="path29"
       inkscape:connector-curvature="0" />
  </g>
  <g
     id="line2d_2"
     style="stroke-linecap:butt;stroke-linejoin:round"
     transform="translate(-73.552462,-43.859338)">
    <path
       clip-path="url(#pac414278ae)"
       d="M 151.21618,227.53294 236.16,121.52306"
       style="fill:none;stroke:#000000;stroke-width:1.5;stroke-linecap:butt;stroke-linejoin:round;stroke-dasharray:5.55, 2.4;stroke-dashoffset:0"
       id="path32"
       inkscape:connector-curvature="0" />
  </g>
  <g
     id="line2d_3"
     style="stroke-linecap:butt;stroke-linejoin:round"
     transform="translate(-73.552462,-43.859338)">
    <path
       clip-path="url(#pac414278ae)"
       d="M 321.10382,227.53294 236.16,121.52306"
       style="fill:none;stroke:#000000;stroke-width:1.5;stroke-linecap:butt;stroke-linejoin:round;stroke-dasharray:5.55, 2.4;stroke-dashoffset:0"
       id="path35"
       inkscape:connector-curvature="0" />
  </g>
  <g
     id="patch_8"
     style="stroke-linecap:butt;stroke-linejoin:round"
     transform="translate(-73.552462,-43.859338)">
    <path
       clip-path="url(#pac414278ae)"
       d="m 219.17124,227.53294 -10.19326,3.39776 v -2.71821 h -57.7618 v -1.3591 h 57.7618 v -2.7182 z"
       style="stroke:#000000;stroke-linecap:butt;stroke-linejoin:miter"
       id="path38"
       inkscape:connector-curvature="0" />
  </g>
  <g
     id="patch_9"
     style="stroke-linecap:butt;stroke-linejoin:round"
     transform="translate(-73.552462,-43.859338)">
    <path
       clip-path="url(#pac414278ae)"
       d="m 195.38697,173.1689 -3.79075,10.05373 -2.10964,-1.71408 -37.74299,46.45291 -1.05482,-0.85704 37.74299,-46.45291 -2.10963,-1.71408 z"
       style="stroke:#000000;stroke-linecap:butt;stroke-linejoin:miter"
       id="path41"
       inkscape:connector-curvature="0" />
  </g>
  <g
     id="patch_10"
     style="stroke-linecap:butt;stroke-linejoin:round"
     transform="translate(-73.552462,-43.859338)">
    <path
       clip-path="url(#pac414278ae)"
       d="m 235.49644,122.61447 -3.09043,9.65565 -2.11588,-1.70636 -78.54498,97.39577 -1.05794,-0.85318 78.54498,-97.39577 -2.11589,-1.70636 z"
       style="stroke:#000000;stroke-linecap:butt;stroke-linejoin:miter"
       id="path44"
       inkscape:connector-curvature="0"
       sodipodi:nodetypes="cccccccc" />
  </g>
  <defs
     id="defs52">
    <clipPath
       id="pac414278ae"
       style="stroke-linecap:butt;stroke-linejoin:round">
      <rect
         height="266.112"
         width="357.12"
         x="57.599998"
         y="41.472"
         id="rect49"
         style="stroke-linecap:butt;stroke-linejoin:round" />
    </clipPath>
  </defs>
  <path
     style="fill:none;fill-opacity:1;stroke:#000000;stroke-width:1.41732287;stroke-linecap:round;stroke-linejoin:round;stroke-miterlimit:4;stroke-dasharray:none;stroke-dashoffset:0;stroke-opacity:1"
     d="m 88.330019,169.86232 a 18.606106,18.430359 0 0 1 6.904046,14.22877"
     id="path925" />
  <path
     transform="scale(-1,1)"
     style="fill:none;fill-opacity:1;stroke:#000000;stroke-width:1.41732287;stroke-linecap:round;stroke-linejoin:round;stroke-miterlimit:4;stroke-dasharray:none;stroke-dashoffset:0;stroke-opacity:1"
     d="m -235.60129,169.37588 a 18.606106,18.430359 0 0 1 6.90405,14.22878"
     id="path925-3" />
  <g
     aria-label="D"
     style="font-style:normal;font-variant:normal;font-weight:normal;font-stretch:normal;font-size:17.05337715px;line-height:1.25;font-family:'Courier 10 Pitch';-inkscape-font-specification:'Courier 10 Pitch';letter-spacing:0px;word-spacing:0px;fill:#000000;fill-opacity:1;stroke:none;stroke-width:0.42633444;stroke-linecap:butt;stroke-linejoin:round"
     id="text946">
    <path
       d="m 161.41298,197.32758 c 0.42634,0 0.81857,0.0341 1.17669,0.0341 1.73944,0 2.93318,-0.32401 3.81995,-1.24489 0.88678,-0.92089 1.38133,-2.21694 1.38133,-3.71764 0,-3.06961 -1.80766,-4.94548 -4.5362,-4.94548 -0.32402,0 -0.93794,0 -1.84177,0 h -1.31311 c -0.66508,0 -0.98909,0.0341 -0.98909,0.59687 0,0.46044 0.23874,0.59687 0.80151,0.59687 0.0682,0 0.13642,0 0.20464,0 v 7.50348 c -0.0853,0 -0.15348,0 -0.2217,0 -0.56276,0 -0.78445,0.11938 -0.78445,0.57982 0,0.39223 0.20464,0.59687 0.61392,0.59687 0.17053,0 0.27285,0 0.37517,0 z m 0,-1.17669 v -7.50348 c 0.34107,-0.0341 0.66508,-0.0341 0.97205,-0.0341 2.79675,0 4.02459,1.12552 4.02459,3.78585 0,2.62622 -1.22784,3.8029 -3.95638,3.8029 -0.32402,0 -0.68214,-0.0171 -1.04026,-0.0512 z"
       style="stroke-width:0.42633444;stroke-linecap:butt;stroke-linejoin:round"
       id="path79" />
  </g>
  <g
     aria-label="α"
     style="font-style:normal;font-variant:normal;font-weight:normal;font-stretch:normal;font-size:17.05337715px;line-height:1.25;font-family:'Courier 10 Pitch';-inkscape-font-specification:'Courier 10 Pitch';letter-spacing:0px;word-spacing:0px;fill:#000000;fill-opacity:1;stroke:none;stroke-width:0.42633444;stroke-linecap:butt;stroke-linejoin:round"
     id="text946-5">
    <path
       d="m 104.40149,173.11824 -0.36638,-1.9235 q -0.37471,-1.97346 -1.85689,-1.97346 -1.11579,0 -1.62373,0.91595 -0.641169,1.14911 -0.641169,2.66459 0,1.83191 0.624509,2.70623 0.63284,0.89097 1.64039,0.89097 1.1158,0 1.71533,-1.77362 z m 0.85766,-2.54801 0.82436,-2.43977 h 1.3656 l -1.707,5.0544 0.33308,1.82358 q 0.0749,0.40801 0.36638,0.74941 0.3414,0.39969 0.60786,0.39969 h 0.73276 v 1.29899 h -0.91595 q -0.78273,0 -1.48218,-0.69946 -0.3414,-0.34972 -0.48296,-1.08249 -0.38303,0.92428 -1.16576,1.64872 -0.36638,0.3414 -1.55712,0.3414 -1.95681,0 -2.906066,-1.26568 -0.974241,-1.30732 -0.974241,-3.5972 0,-2.44809 1.057509,-3.5972 1.174088,-1.28233 2.822798,-1.28233 2.58965,0 3.08093,2.64794 z"
       style="stroke-width:0.42633444;stroke-linecap:butt;stroke-linejoin:round"
       id="path82" />
  </g>
  <g
     aria-label="R"
     style="font-style:normal;font-variant:normal;font-weight:normal;font-stretch:normal;font-size:17.05337715px;line-height:1.25;font-family:'Courier 10 Pitch';-inkscape-font-specification:'Courier 10 Pitch';letter-spacing:0px;word-spacing:0px;fill:#000000;fill-opacity:1;stroke:none;stroke-width:0.42633444;stroke-linecap:butt;stroke-linejoin:round"
     id="text946-1">
    <path
       d="m 86.600588,155.07867 v -3.10371 h 1.091416 c 0.767402,0 1.05731,0.27285 1.654178,1.17668 l 1.620071,2.42158 c 0.289907,0.42634 0.426334,0.68214 0.869722,0.68214 h 0.920882 c 0.392228,0 0.579815,-0.20464 0.579815,-0.59687 0,-0.46044 -0.221694,-0.57982 -0.801509,-0.57982 -0.08527,0 -0.170533,0 -0.272854,0 l -1.671231,-2.558 c -0.187587,-0.27286 -0.392227,-0.49455 -0.716241,-0.69919 1.41543,-0.35812 2.216939,-1.33017 2.216939,-2.59212 0,-0.83561 -0.358121,-1.62007 -0.937936,-2.13167 -0.767402,-0.66508 -1.807658,-0.71624 -3.223088,-0.71624 h -3.512996 c -0.375174,0 -0.579815,0.18759 -0.579815,0.56276 0,0.39223 0.204641,0.56276 0.682135,0.56276 0.06821,0 0.153481,0 0.306961,0 h 0.477494 v 7.5717 h -0.477494 c -0.15348,0 -0.238747,0 -0.272854,0 -0.511601,0 -0.716242,0.13643 -0.716242,0.57982 0,0.39223 0.204641,0.59687 0.579815,0.59687 h 2.796754 c 0.579815,0 0.835615,-0.0853 0.835615,-0.59687 0,-0.44339 -0.272854,-0.59687 -0.886775,-0.59687 -0.375175,0 -0.562762,0.017 -0.562762,0.017 z m 0,-7.5717 h 1.773551 c 1.534804,0 2.285153,0.56276 2.285153,1.68829 0,1.09141 -0.784455,1.67123 -2.336313,1.67123 h -1.722391 z"
       style="stroke-width:0.42633444;stroke-linecap:butt;stroke-linejoin:round"
       id="path85" />
  </g>
  <g
     aria-label="R"
     style="font-style:normal;font-variant:normal;font-weight:normal;font-stretch:normal;font-size:17.05337715px;line-height:1.25;font-family:'Courier 10 Pitch';-inkscape-font-specification:'Courier 10 Pitch';letter-spacing:0px;word-spacing:0px;fill:#000000;fill-opacity:1;stroke:none;stroke-width:0.42633444;stroke-linecap:butt;stroke-linejoin:round"
     id="text946-1-3">
    <path
       d="m 126.38176,105.39213 v -3.10372 h 1.09142 c 0.7674,0 1.05731,0.27286 1.65418,1.17668 l 1.62007,2.42158 c 0.2899,0.42634 0.42633,0.68214 0.86972,0.68214 h 0.92088 c 0.39223,0 0.57982,-0.20464 0.57982,-0.59687 0,-0.46044 -0.2217,-0.57981 -0.80151,-0.57981 -0.0853,0 -0.17054,0 -0.27286,0 l -1.67123,-2.55801 c -0.18759,-0.27285 -0.39223,-0.49455 -0.71624,-0.69919 1.41543,-0.35812 2.21694,-1.33016 2.21694,-2.592112 0,-0.835615 -0.35812,-1.620071 -0.93794,-2.131672 -0.7674,-0.665082 -1.80765,-0.716242 -3.22308,-0.716242 h -3.513 c -0.37517,0 -0.57982,0.187587 -0.57982,0.562762 0,0.392227 0.20465,0.562761 0.68214,0.562761 0.0682,0 0.15348,0 0.30696,0 h 0.4775 v 7.571703 h -0.4775 c -0.15348,0 -0.23875,0 -0.27285,0 -0.5116,0 -0.71625,0.13642 -0.71625,0.57981 0,0.39223 0.20465,0.59687 0.57982,0.59687 h 2.79675 c 0.57982,0 0.83562,-0.0853 0.83562,-0.59687 0,-0.44339 -0.27286,-0.59687 -0.88678,-0.59687 -0.37517,0 -0.56276,0.0171 -0.56276,0.0171 z m 0,-7.571703 h 1.77355 c 1.53481,0 2.28516,0.562761 2.28516,1.688284 0,1.091419 -0.78446,1.671229 -2.33632,1.671229 h -1.72239 z"
       style="stroke-width:0.42633444;stroke-linecap:butt;stroke-linejoin:round"
       id="path88" />
  </g>
  <g
     aria-label="α"
     style="font-style:normal;font-variant:normal;font-weight:normal;font-stretch:normal;font-size:17.05337715px;line-height:1.25;font-family:'Courier 10 Pitch';-inkscape-font-specification:'Courier 10 Pitch';letter-spacing:0px;word-spacing:0px;fill:#000000;fill-opacity:1;stroke:none;stroke-width:0.42633444;stroke-linecap:butt;stroke-linejoin:round"
     id="text946-5-8">
    <path
       d="m 220.85323,173.11824 -0.36639,-1.9235 q -0.3747,-1.97346 -1.85688,-1.97346 -1.1158,0 -1.62374,0.91595 -0.64116,1.14911 -0.64116,2.66459 0,1.83191 0.62451,2.70623 0.63284,0.89097 1.64039,0.89097 1.1158,0 1.71533,-1.77362 z m 0.85766,-2.54801 0.82436,-2.43977 h 1.3656 l -1.707,5.0544 0.33307,1.82358 q 0.0749,0.40801 0.36638,0.74941 0.3414,0.39969 0.60786,0.39969 h 0.73276 v 1.29899 h -0.91595 q -0.78272,0 -1.48218,-0.69946 -0.3414,-0.34972 -0.48295,-1.08249 -0.38304,0.92428 -1.16576,1.64872 -0.36638,0.3414 -1.55712,0.3414 -1.95681,0 -2.90607,-1.26568 -0.97424,-1.30732 -0.97424,-3.5972 0,-2.44809 1.05751,-3.5972 1.17408,-1.28233 2.8228,-1.28233 2.58965,0 3.08093,2.64794 z"
       style="stroke-width:0.42633444;stroke-linecap:butt;stroke-linejoin:round"
       id="path91" />
  </g>
  <g
     style="font-style:normal;font-variant:normal;font-weight:normal;font-stretch:normal;font-size:17.05337715px;line-height:1.25;font-family:'Courier 10 Pitch';-inkscape-font-specification:'Courier 10 Pitch';letter-spacing:0px;word-spacing:0px;fill:#000000;fill-opacity:1;stroke:none;stroke-width:0.42633444;stroke-linecap:butt;stroke-linejoin:round"
     id="text946-5-8-1" />
  <g
     aria-label="β"
     style="font-style:normal;font-variant:normal;font-weight:normal;font-stretch:normal;font-size:17.05337715px;line-height:1.25;font-family:'Courier 10 Pitch';-inkscape-font-specification:'Courier 10 Pitch';letter-spacing:0px;word-spacing:0px;fill:#000000;fill-opacity:1;stroke:none;stroke-width:0.42633444;stroke-linecap:butt;stroke-linejoin:round"
     id="text946-5-8-8">
    <path
       d="m 160.87837,114.47807 v 4.12179 h -1.54046 v -12.81502 q 0,-3.79704 3.54723,-3.79704 3.61385,0 3.61385,3.20584 0,2.28155 -1.43222,3.11424 2.33152,0.74941 2.33152,2.97268 0,3.94692 -4.01354,3.94692 -1.76529,0 -2.50638,-0.74941 z m 0,-1.99844 q 0.92428,1.44054 2.56467,1.44054 2.39813,0 2.39813,-2.61463 0,-2.34817 -3.86366,-2.16498 V 107.725 q 3.02265,0 3.02265,-2.66459 0,-1.82358 -1.94848,-1.82358 -2.17331,0 -2.17331,2.59797 z"
       style="stroke-width:0.42633444;stroke-linecap:butt;stroke-linejoin:round"
       id="path95" />
  </g>
  <path
     transform="scale(-1,1)"
     style="fill:none;fill-opacity:1;stroke:#000000;stroke-width:1.41732287;stroke-linecap:round;stroke-linejoin:round;stroke-miterlimit:4;stroke-dasharray:none;stroke-dashoffset:0;stroke-opacity:1"
     d="M -150.83923,93.67817 A 18.606106,18.430359 0 0 1 -174.8682,93.265641"
     id="path925-3-6" />
  <g
     aria-label="C0"
     style="font-style:normal;font-variant:normal;font-weight:normal;font-stretch:normal;font-size:17.05337715px;line-height:1.25;font-family:'Courier 10 Pitch';-inkscape-font-specification:'Courier 10 Pitch';letter-spacing:0px;word-spacing:0px;fill:#000000;fill-opacity:1;stroke:none;stroke-width:0.42633444;stroke-linecap:butt;stroke-linejoin:round"
     id="text946-1-35">
    <path
       d="m 68.796697,186.04688 c -0.801508,-0.34106 -1.551857,-0.52865 -2.319259,-0.52865 -2.762647,0 -4.774946,2.23399 -4.774946,5.20128 0,3.05255 2.046406,5.16717 4.740839,5.16717 1.074363,0 1.961139,-0.28991 2.882021,-0.88677 0.613922,-0.39223 0.937936,-0.66509 0.937936,-1.04026 0,-0.34107 -0.255801,-0.59687 -0.613922,-0.59687 -0.289907,0 -0.630975,0.37518 -1.176683,0.68214 -0.648028,0.35812 -1.347217,0.5457 -1.961138,0.5457 -1.858818,0 -3.291302,-1.44953 -3.291302,-3.87111 0,-2.62622 1.330163,-4.07576 3.257195,-4.07576 1.10847,0 1.961138,0.61392 2.165779,1.39838 0.187587,0.75035 0.10232,1.15963 0.818562,1.15963 0.494548,0 0.596868,-0.2217 0.596868,-0.66508 0,-0.11938 -0.03411,-0.78446 -0.03411,-2.06346 0,-0.57982 -0.03411,-0.83562 -0.613921,-0.83562 -0.324014,0 -0.494548,0.11938 -0.613922,0.40928 z"
       style="stroke-width:0.42633444;stroke-linecap:butt;stroke-linejoin:round"
       id="path99" />
    <path
       d="m 74.632576,199.23596 c 1.319078,0 2.216939,-1.2969 2.216939,-3.59144 0,-2.29453 -0.897861,-3.59144 -2.216939,-3.59144 -1.319079,0 -2.216939,1.29691 -2.216939,3.59144 0,2.29454 0.89786,3.59144 2.216939,3.59144 z m 0,-6.40695 c 0.798098,0 1.307994,0.95328 1.307994,2.81551 0,1.86223 -0.509896,2.8266 -1.307994,2.8266 -0.798098,0 -1.319079,-0.96437 -1.319079,-2.8266 0,-1.86223 0.520981,-2.81551 1.319079,-2.81551 z"
       style="font-size:64.99999762%;baseline-shift:sub;stroke-linecap:butt;stroke-linejoin:round"
       id="path101" />
  </g>
  <g
     aria-label="C1"
     style="font-style:normal;font-variant:normal;font-weight:normal;font-stretch:normal;font-size:17.05337715px;line-height:1.25;font-family:'Courier 10 Pitch';-inkscape-font-specification:'Courier 10 Pitch';letter-spacing:0px;word-spacing:0px;fill:#000000;fill-opacity:1;stroke:none;stroke-width:0.42633444;stroke-linecap:butt;stroke-linejoin:round"
     id="text946-1-35-8">
    <path
       d="m 259.66993,186.13557 c -0.80151,-0.34107 -1.55186,-0.52866 -2.31926,-0.52866 -2.76265,0 -4.77494,2.23399 -4.77494,5.20128 0,3.05256 2.0464,5.16718 4.74084,5.16718 1.07436,0 1.96113,-0.28991 2.88202,-0.88678 0.61392,-0.39223 0.93793,-0.66508 0.93793,-1.04026 0,-0.34106 -0.2558,-0.59686 -0.61392,-0.59686 -0.28991,0 -0.63097,0.37517 -1.17668,0.68213 -0.64803,0.35812 -1.34722,0.54571 -1.96114,0.54571 -1.85882,0 -3.2913,-1.44954 -3.2913,-3.87112 0,-2.62622 1.33016,-4.07576 3.25719,-4.07576 1.10847,0 1.96114,0.61393 2.16578,1.39838 0.18759,0.75035 0.10232,1.15963 0.81856,1.15963 0.49455,0 0.59687,-0.22169 0.59687,-0.66508 0,-0.11937 -0.0341,-0.78446 -0.0341,-2.06346 0,-0.57981 -0.0341,-0.83561 -0.61392,-0.83561 -0.32401,0 -0.49455,0.11937 -0.61392,0.40928 z"
       style="stroke-width:0.42633444;stroke-linecap:butt;stroke-linejoin:round"
       id="path104" />
    <path
       d="m 264.2089,193.33891 1.01979,-0.24386 v 5.2874 h -0.89786 c -0.50989,0 -0.74267,0.0222 -0.74267,0.37688 0,0.25495 0.1441,0.38796 0.4323,0.38796 h 3.23673 c 0.2882,0 0.4323,-0.13301 0.4323,-0.38796 0,-0.35471 -0.23277,-0.37688 -0.74267,-0.37688 h -0.86461 v -5.85272 c 0,-0.22169 -0.0887,-0.35471 -0.22169,-0.35471 -0.0665,0 -0.1441,0.0111 -0.23278,0.0333 l -1.60728,0.43231 c -0.23278,0.0665 -0.35471,0.19952 -0.35471,0.37688 0,0.19952 0.1441,0.34362 0.37688,0.34362 0.0554,0 0.11085,-0.0111 0.16627,-0.0222 z"
       style="font-size:64.99999762%;baseline-shift:sub;stroke-linecap:butt;stroke-linejoin:round"
       id="path106" />
  </g>
  <g
     aria-label="C2"
     style="font-style:normal;font-variant:normal;font-weight:normal;font-stretch:normal;font-size:17.05337715px;line-height:1.25;font-family:'Courier 10 Pitch';-inkscape-font-specification:'Courier 10 Pitch';letter-spacing:0px;word-spacing:0px;fill:#000000;fill-opacity:1;stroke:none;stroke-width:0.42633444;stroke-linecap:butt;stroke-linejoin:round"
     id="text946-1-35-8-1">
    <path
       d="m 162.33592,59.665833 c -0.80151,-0.341068 -1.55186,-0.528655 -2.31926,-0.528655 -2.76265,0 -4.77495,2.233992 -4.77495,5.20128 0,3.052554 2.04641,5.167173 4.74084,5.167173 1.07436,0 1.96114,-0.289907 2.88202,-0.886775 0.61392,-0.392228 0.93794,-0.665082 0.93794,-1.040256 0,-0.341068 -0.2558,-0.596869 -0.61392,-0.596869 -0.28991,0 -0.63098,0.375175 -1.17669,0.682135 -0.64803,0.358121 -1.34721,0.545708 -1.96114,0.545708 -1.85881,0 -3.2913,-1.449537 -3.2913,-3.871116 0,-2.62622 1.33017,-4.075757 3.2572,-4.075757 1.10847,0 1.96114,0.613921 2.16578,1.398377 0.18758,0.750348 0.10232,1.159629 0.81856,1.159629 0.49455,0 0.59687,-0.221694 0.59687,-0.665081 0,-0.119374 -0.0341,-0.784456 -0.0341,-2.063459 0,-0.579815 -0.0341,-0.835616 -0.61392,-0.835616 -0.32402,0 -0.49455,0.119374 -0.61392,0.409282 z"
       style="stroke-width:0.42633444;stroke-linecap:butt;stroke-linejoin:round"
       id="path109" />
    <path
       d="m 166.2874,72.677559 h 3.56927 c 0.16627,0 0.2882,-0.121931 0.31037,-0.35471 l 0.0554,-0.421218 c 0,-0.03325 0.0111,-0.07759 0.0111,-0.110847 0,-0.288202 -0.15519,-0.443388 -0.38797,-0.443388 -0.23278,0 -0.37688,0.155186 -0.41013,0.476642 h -2.47189 l 0.66508,-0.642912 c 1.40776,-1.396672 2.56057,-2.216939 2.56057,-3.502764 0,-1.130639 -0.89786,-2.00633 -2.10609,-2.00633 -0.73159,0 -1.4521,0.288202 -1.90657,0.73159 -0.16627,0.166271 -0.17736,0.266033 -0.17736,0.476642 0,0.37688 0.0554,0.565319 0.32146,0.565319 0.37688,0 0.45447,-0.321456 0.58749,-0.498811 0.24386,-0.321456 0.69834,-0.520981 1.15281,-0.520981 0.69833,0 1.18606,0.520981 1.18606,1.29691 0,0.908945 -0.90895,1.662704 -2.32779,3.003952 -0.76484,0.73159 -1.19714,1.097385 -1.19714,1.474264 0,0.332541 0.18844,0.476642 0.56532,0.476642 z"
       style="font-size:64.99999762%;baseline-shift:sub;stroke-linecap:butt;stroke-linejoin:round"
       id="path111" />
  </g>
  <g
     id="patch_2-3"
     style="fill:#000000;fill-opacity:1;stroke-linecap:butt;stroke-linejoin:round"
     transform="matrix(0.70112826,0,0,0.70112826,14.55103,-28.850128)">
    <path
       clip-path="url(#pac414278ae-5)"
       d="m 151.21618,230.9307 c 0.90109,0 1.7654,-0.35801 2.40257,-0.99518 0.63717,-0.63717 0.99518,-1.50148 0.99518,-2.40258 0,-0.90109 -0.35801,-1.7654 -0.99518,-2.40257 -0.63717,-0.63717 -1.50148,-0.99518 -2.40257,-0.99518 -0.9011,0 -1.7654,0.35801 -2.40257,0.99518 -0.63717,0.63717 -0.99518,1.50148 -0.99518,2.40257 0,0.9011 0.35801,1.76541 0.99518,2.40258 0.63717,0.63717 1.50147,0.99518 2.40257,0.99518 z"
       style="fill:#000000;fill-opacity:1;stroke:#000000;stroke-linecap:butt;stroke-linejoin:miter"
       id="path11-4"
       inkscape:connector-curvature="0" />
  </g>
  <g
     id="patch_2-0"
     style="fill:#000000;fill-opacity:1;stroke-linecap:butt;stroke-linejoin:round"
     transform="matrix(0.70112826,0,0,0.70112826,99.120528,-28.941654)">
    <path
       clip-path="url(#pac414278ae-1)"
       d="m 151.21618,230.9307 c 0.90109,0 1.7654,-0.35801 2.40257,-0.99518 0.63717,-0.63717 0.99518,-1.50148 0.99518,-2.40258 0,-0.90109 -0.35801,-1.7654 -0.99518,-2.40257 -0.63717,-0.63717 -1.50148,-0.99518 -2.40257,-0.99518 -0.9011,0 -1.7654,0.35801 -2.40257,0.99518 -0.63717,0.63717 -0.99518,1.50148 -0.99518,2.40257 0,0.9011 0.35801,1.76541 0.99518,2.40258 0.63717,0.63717 1.50147,0.99518 2.40257,0.99518 z"
       style="fill:#000000;fill-opacity:1;stroke:#000000;stroke-linecap:butt;stroke-linejoin:miter"
       id="path11-8"
       inkscape:connector-curvature="0" />
  </g>
  <g
     style="font-style:normal;font-variant:normal;font-weight:normal;font-stretch:normal;font-size:17.05337715px;line-height:1.25;font-family:'Courier 10 Pitch';-inkscape-font-specification:'Courier 10 Pitch';letter-spacing:0px;word-spacing:0px;fill:#000000;fill-opacity:1;stroke:none;stroke-width:0.42633444;stroke-linecap:butt;stroke-linejoin:round"
     id="text946-1-35-8-3" />
  <g
     aria-label="TP1"
     style="font-style:normal;font-variant:normal;font-weight:normal;font-stretch:normal;font-size:17.05337715px;line-height:1.25;font-family:'Courier 10 Pitch';-inkscape-font-specification:'Courier 10 Pitch';letter-spacing:0px;word-spacing:0px;fill:#000000;fill-opacity:1;stroke:none;stroke-width:0.42633444;stroke-linecap:butt;stroke-linejoin:round"
     id="text946-1-35-8-5">
    <path
       d="m 215.9006,129.96762 0.0682,-2.16578 h 2.38747 v 7.50349 h -1.26195 c -0.15348,0 -0.23875,0 -0.27285,0 -0.5116,0 -0.71625,0.13642 -0.71625,0.57981 0,0.39223 0.20465,0.59687 0.57982,0.59687 h 4.67262 c 0.37518,0 0.57982,-0.20464 0.57982,-0.59687 0,-0.40928 -0.20464,-0.57981 -0.66508,-0.57981 -0.0512,0 -0.15348,0 -0.32402,0 h -1.279 v -7.50349 h 2.38747 l 0.0853,2.16578 c 0.017,0.71624 0.0682,0.97204 0.64803,0.97204 0.37517,0 0.57981,-0.20464 0.57981,-0.59687 0,-0.0341 -0.0171,-0.15348 -0.0171,-0.40928 l -0.0853,-2.74559 c -0.0171,-0.40928 -0.20464,-0.57982 -0.63097,-0.57982 h -7.23063 c -0.42634,0 -0.61393,0.17054 -0.63098,0.57982 l -0.0853,2.74559 c -0.017,0.2558 -0.017,0.39223 -0.017,0.39223 0,0.40928 0.20464,0.61392 0.57982,0.61392 0.57981,0 0.63097,-0.2558 0.64802,-0.97204 z"
       style="stroke-width:0.42633444;stroke-linecap:butt;stroke-linejoin:round"
       id="path115" />
    <path
       d="m 229.62111,135.30533 h -1.73944 v -2.54096 h 1.44953 c 2.7456,0 4.12692,-1.05731 4.12692,-3.0696 0,-2.0123 -1.38132,-3.08667 -4.12692,-3.08667 h -3.85406 c -0.39223,0 -0.57981,0.20465 -0.57981,0.59687 0,0.56276 0.32401,0.59687 1.09141,0.59687 h 0.57982 v 7.50349 h -1.07437 c -0.40928,0 -0.59686,0.18758 -0.59686,0.57981 0,0.39223 0.18758,0.59687 0.57981,0.59687 h 4.07576 c 0.57981,0 0.83561,-0.0853 0.83561,-0.59687 0,-0.40928 -0.23874,-0.57981 -0.7674,-0.57981 z m -1.73944,-7.50349 h 1.5348 c 1.73945,0 2.62622,0.63098 2.62622,1.92703 0,1.29606 -0.88677,1.94409 -2.62622,1.94409 h -1.5348 z"
       style="stroke-width:0.42633444;stroke-linecap:butt;stroke-linejoin:round"
       id="path117" />
    <path
       d="m 236.44523,134.08431 1.01979,-0.24387 v 5.2874 h -0.89786 c -0.50989,0 -0.74267,0.0222 -0.74267,0.37688 0,0.25495 0.1441,0.38797 0.4323,0.38797 h 3.23673 c 0.28821,0 0.43231,-0.13302 0.43231,-0.38797 0,-0.35471 -0.23278,-0.37688 -0.74268,-0.37688 h -0.8646 v -5.85272 c 0,-0.22169 -0.0887,-0.35471 -0.2217,-0.35471 -0.0665,0 -0.1441,0.0111 -0.23278,0.0333 l -1.60728,0.4323 c -0.23278,0.0665 -0.35471,0.19952 -0.35471,0.37688 0,0.19952 0.1441,0.34362 0.37688,0.34362 0.0554,0 0.11085,-0.0111 0.16627,-0.0222 z"
       style="font-size:64.99999762%;baseline-shift:sub;stroke-linecap:butt;stroke-linejoin:round"
       id="path119" />
  </g>
  <g
     aria-label="TP0"
     style="font-style:normal;font-variant:normal;font-weight:normal;font-stretch:normal;font-size:17.05337715px;line-height:1.25;font-family:'Courier 10 Pitch';-inkscape-font-specification:'Courier 10 Pitch';letter-spacing:0px;word-spacing:0px;fill:#000000;fill-opacity:1;stroke:none;stroke-width:0.42633444;stroke-linecap:butt;stroke-linejoin:round"
     id="text946-1-35-8-5-0">
    <path
       d="m 86.018356,129.87894 0.06821,-2.16578 h 2.387473 v 7.50348 h -1.26195 c -0.153481,0 -0.238748,0 -0.272854,0 -0.511602,0 -0.716242,0.13643 -0.716242,0.57982 0,0.39223 0.20464,0.59687 0.579815,0.59687 h 4.672625 c 0.375174,0 0.579815,-0.20464 0.579815,-0.59687 0,-0.40928 -0.204641,-0.57982 -0.665082,-0.57982 -0.05116,0 -0.15348,0 -0.324014,0 h -1.279003 v -7.50348 h 2.387472 l 0.08527,2.16578 c 0.01705,0.71624 0.06821,0.97204 0.648029,0.97204 0.375174,0 0.579814,-0.20464 0.579814,-0.59687 0,-0.0341 -0.01705,-0.15348 -0.01705,-0.40928 l -0.08527,-2.74559 c -0.01705,-0.40929 -0.20464,-0.57982 -0.630975,-0.57982 h -7.230632 c -0.426334,0 -0.613921,0.17053 -0.630975,0.57982 l -0.08527,2.74559 c -0.01705,0.2558 -0.01705,0.39223 -0.01705,0.39223 0,0.40928 0.204641,0.61392 0.579815,0.61392 0.579815,0 0.630975,-0.2558 0.648028,-0.97204 z"
       style="stroke-width:0.42633444;stroke-linecap:butt;stroke-linejoin:round"
       id="path122" />
    <path
       d="m 99.738864,135.21664 h -1.739445 v -2.54095 h 1.449537 c 2.745594,0 4.126914,-1.05731 4.126914,-3.06961 0,-2.0123 -1.38132,-3.08666 -4.126914,-3.08666 h -3.854063 c -0.392228,0 -0.579815,0.20464 -0.579815,0.59687 0,0.56276 0.324014,0.59687 1.091416,0.59687 h 0.579815 v 7.50348 h -1.074363 c -0.409281,0 -0.596868,0.18759 -0.596868,0.57982 0,0.39223 0.187587,0.59687 0.579815,0.59687 h 4.075757 c 0.57981,0 0.83562,-0.0853 0.83562,-0.59687 0,-0.40928 -0.23875,-0.57982 -0.767406,-0.57982 z m -1.739445,-7.50348 h 1.534804 c 1.739447,0 2.626217,0.63097 2.626217,1.92703 0,1.29606 -0.88677,1.94408 -2.626217,1.94408 h -1.534804 z"
       style="stroke-width:0.42633444;stroke-linecap:butt;stroke-linejoin:round"
       id="path124" />
    <path
       d="m 107.85989,139.98136 c 1.31908,0 2.21694,-1.29691 2.21694,-3.59144 0,-2.29454 -0.89786,-3.59145 -2.21694,-3.59145 -1.31907,0 -2.21693,1.29691 -2.21693,3.59145 0,2.29453 0.89786,3.59144 2.21693,3.59144 z m 0,-6.40696 c 0.7981,0 1.308,0.95329 1.308,2.81552 0,1.86222 -0.5099,2.82659 -1.308,2.82659 -0.79809,0 -1.31907,-0.96437 -1.31907,-2.82659 0,-1.86223 0.52098,-2.81552 1.31907,-2.81552 z"
       style="font-size:64.99999762%;baseline-shift:sub;stroke-linecap:butt;stroke-linejoin:round"
       id="path126" />
  </g>
</svg>
