<?xml version="1.0" encoding="UTF-8" standalone="no"?>
<svg
   xmlns:dc="http://purl.org/dc/elements/1.1/"
   xmlns:cc="http://creativecommons.org/ns#"
   xmlns:rdf="http://www.w3.org/1999/02/22-rdf-syntax-ns#"
   xmlns:svg="http://www.w3.org/2000/svg"
   xmlns="http://www.w3.org/2000/svg"
   xmlns:xlink="http://www.w3.org/1999/xlink"
   xmlns:sodipodi="http://sodipodi.sourceforge.net/DTD/sodipodi-0.dtd"
   xmlns:inkscape="http://www.inkscape.org/namespaces/inkscape"
   width="3.1714828in"
   height="1.6910931in"
   viewBox="0 0 80.555666 42.953763"
   version="1.1"
   id="svg951"
   inkscape:version="1.0.2 (e86c8708, 2021-01-15)"
   sodipodi:docname="dubins_problem.svg">
  <defs
     id="defs945">
    <inkscape:path-effect
       effect="bspline"
       id="path-effect1970"
       is_visible="true"
       lpeversion="1"
       weight="33.333333"
       steps="2"
       helper_size="0"
       apply_no_weight="true"
       apply_with_weight="true"
       only_selected="false" />
    <inkscape:path-effect
       effect="bspline"
       id="path-effect1968"
       is_visible="true"
       lpeversion="1"
       weight="33.333333"
       steps="2"
       helper_size="0"
       apply_no_weight="true"
       apply_with_weight="true"
       only_selected="false" />
    <inkscape:path-effect
       effect="bspline"
       id="path-effect1966"
       is_visible="true"
       lpeversion="1"
       weight="33.333333"
       steps="2"
       helper_size="0"
       apply_no_weight="true"
       apply_with_weight="true"
       only_selected="false" />
    <inkscape:path-effect
       effect="bspline"
       id="path-effect1964"
       is_visible="true"
       lpeversion="1"
       weight="33.333333"
       steps="2"
       helper_size="0"
       apply_no_weight="true"
       apply_with_weight="true"
       only_selected="false" />
    <inkscape:path-effect
       effect="bspline"
       id="path-effect1962"
       is_visible="true"
       lpeversion="1"
       weight="33.333333"
       steps="2"
       helper_size="0"
       apply_no_weight="true"
       apply_with_weight="true"
       only_selected="false" />
    <inkscape:path-effect
       effect="bspline"
       id="path-effect1960"
       is_visible="true"
       lpeversion="1"
       weight="33.333333"
       steps="2"
       helper_size="0"
       apply_no_weight="true"
       apply_with_weight="true"
       only_selected="false" />
    <inkscape:path-effect
       effect="bspline"
       id="path-effect1958"
       is_visible="true"
       lpeversion="1"
       weight="33.333333"
       steps="2"
       helper_size="0"
       apply_no_weight="true"
       apply_with_weight="true"
       only_selected="false" />
    <inkscape:path-effect
       effect="bspline"
       id="path-effect1956"
       is_visible="true"
       lpeversion="1"
       weight="33.333333"
       steps="2"
       helper_size="0"
       apply_no_weight="true"
       apply_with_weight="true"
       only_selected="false" />
    <inkscape:path-effect
       effect="bspline"
       id="path-effect1954"
       is_visible="true"
       lpeversion="1"
       weight="33.333333"
       steps="2"
       helper_size="0"
       apply_no_weight="true"
       apply_with_weight="true"
       only_selected="false" />
    <inkscape:path-effect
       effect="bspline"
       id="path-effect1952"
       is_visible="true"
       lpeversion="1"
       weight="33.333333"
       steps="2"
       helper_size="0"
       apply_no_weight="true"
       apply_with_weight="true"
       only_selected="false" />
    <inkscape:path-effect
       effect="bspline"
       id="path-effect1950"
       is_visible="true"
       lpeversion="1"
       weight="33.333333"
       steps="2"
       helper_size="0"
       apply_no_weight="true"
       apply_with_weight="true"
       only_selected="false" />
    <inkscape:path-effect
       effect="bspline"
       id="path-effect1948"
       is_visible="true"
       lpeversion="1"
       weight="33.333333"
       steps="2"
       helper_size="0"
       apply_no_weight="true"
       apply_with_weight="true"
       only_selected="false" />
    <inkscape:path-effect
       effect="bspline"
       id="path-effect1776"
       is_visible="true"
       lpeversion="1"
       weight="33.333333"
       steps="2"
       helper_size="0"
       apply_no_weight="true"
       apply_with_weight="true"
       only_selected="false" />
    <inkscape:path-effect
       effect="bspline"
       id="path-effect1772"
       is_visible="true"
       lpeversion="1"
       weight="33.333333"
       steps="2"
       helper_size="0"
       apply_no_weight="true"
       apply_with_weight="true"
       only_selected="false" />
    <inkscape:path-effect
       effect="bspline"
       id="path-effect1768"
       is_visible="true"
       lpeversion="1"
       weight="33.333333"
       steps="2"
       helper_size="0"
       apply_no_weight="true"
       apply_with_weight="true"
       only_selected="false" />
    <inkscape:path-effect
       effect="bspline"
       id="path-effect1752"
       is_visible="true"
       lpeversion="1"
       weight="33.333333"
       steps="2"
       helper_size="0"
       apply_no_weight="true"
       apply_with_weight="true"
       only_selected="false" />
    <inkscape:path-effect
       effect="bspline"
       id="path-effect1748"
       is_visible="true"
       lpeversion="1"
       weight="33.333333"
       steps="2"
       helper_size="0"
       apply_no_weight="true"
       apply_with_weight="true"
       only_selected="false" />
    <inkscape:path-effect
       effect="bspline"
       id="path-effect1744"
       is_visible="true"
       lpeversion="1"
       weight="33.333333"
       steps="2"
       helper_size="0"
       apply_no_weight="true"
       apply_with_weight="true"
       only_selected="false" />
    <inkscape:path-effect
       effect="bspline"
       id="path-effect1740"
       is_visible="true"
       lpeversion="1"
       weight="33.333333"
       steps="2"
       helper_size="0"
       apply_no_weight="true"
       apply_with_weight="true"
       only_selected="false" />
    <inkscape:path-effect
       effect="bspline"
       id="path-effect1736"
       is_visible="true"
       lpeversion="1"
       weight="33.333333"
       steps="2"
       helper_size="0"
       apply_no_weight="true"
       apply_with_weight="true"
       only_selected="false" />
    <inkscape:path-effect
       effect="bspline"
       id="path-effect1732"
       is_visible="true"
       lpeversion="1"
       weight="33.333333"
       steps="2"
       helper_size="0"
       apply_no_weight="true"
       apply_with_weight="true"
       only_selected="false" />
    <inkscape:path-effect
       effect="bspline"
       id="path-effect1728"
       is_visible="true"
       lpeversion="1"
       weight="33.333333"
       steps="2"
       helper_size="0"
       apply_no_weight="true"
       apply_with_weight="true"
       only_selected="false" />
    <inkscape:path-effect
       effect="bspline"
       id="path-effect1724"
       is_visible="true"
       lpeversion="1"
       weight="33.333333"
       steps="2"
       helper_size="0"
       apply_no_weight="true"
       apply_with_weight="true"
       only_selected="false" />
    <inkscape:path-effect
       effect="bspline"
       id="path-effect1718"
       is_visible="true"
       lpeversion="1"
       weight="33.333333"
       steps="2"
       helper_size="0"
       apply_no_weight="true"
       apply_with_weight="true"
       only_selected="false" />
    <clipPath
       id="pce9c1affc5"
       style="stroke-linecap:butt;stroke-linejoin:round">
      <rect
         height="266.112"
         width="357.12"
         x="57.599998"
         y="41.472"
         id="rect179"
         style="stroke-linecap:butt;stroke-linejoin:round" />
    </clipPath>
    <clipPath
       id="clipPath1526"
       style="stroke-linecap:butt;stroke-linejoin:round">
      <rect
         height="266.112"
         width="357.12"
         x="57.599998"
         y="41.472"
         id="rect1524"
         style="stroke-linecap:butt;stroke-linejoin:round" />
    </clipPath>
    <clipPath
       id="clipPath1530"
       style="stroke-linecap:butt;stroke-linejoin:round">
      <rect
         height="266.112"
         width="357.12"
         x="57.599998"
         y="41.472"
         id="rect1528"
         style="stroke-linecap:butt;stroke-linejoin:round" />
    </clipPath>
    <clipPath
       id="clipPath1534"
       style="stroke-linecap:butt;stroke-linejoin:round">
      <rect
         height="266.112"
         width="357.12"
         x="57.599998"
         y="41.472"
         id="rect1532"
         style="stroke-linecap:butt;stroke-linejoin:round" />
    </clipPath>
    <clipPath
       id="clipPath1538"
       style="stroke-linecap:butt;stroke-linejoin:round">
      <rect
         height="266.112"
         width="357.12"
         x="57.599998"
         y="41.472"
         id="rect1536"
         style="stroke-linecap:butt;stroke-linejoin:round" />
    </clipPath>
    <clipPath
       id="clipPath1542"
       style="stroke-linecap:butt;stroke-linejoin:round">
      <rect
         height="266.112"
         width="357.12"
         x="57.599998"
         y="41.472"
         id="rect1540"
         style="stroke-linecap:butt;stroke-linejoin:round" />
    </clipPath>
    <clipPath
       id="clipPath1546"
       style="stroke-linecap:butt;stroke-linejoin:round">
      <rect
         height="266.112"
         width="357.12"
         x="57.599998"
         y="41.472"
         id="rect1544"
         style="stroke-linecap:butt;stroke-linejoin:round" />
    </clipPath>
    <path
       inkscape:connector-curvature="0"
       style="stroke:#0000ff;stroke-linecap:butt;stroke-linejoin:round"
       id="mba096d9d1a"
       d="M 0,0.707107 C 0.187527,0.707107 0.367398,0.632602 0.5,0.5 0.632602,0.367398 0.707107,0.187527 0.707107,0 0.707107,-0.187527 0.632602,-0.367398 0.5,-0.5 0.367398,-0.632602 0.187527,-0.707107 0,-0.707107 c -0.187527,0 -0.367398,0.074505 -0.5,0.207107 -0.132602,0.132602 -0.207107,0.312473 -0.207107,0.5 0,0.187527 0.074505,0.367398 0.207107,0.5 0.132602,0.132602 0.312473,0.207107 0.5,0.207107 z" />
    <path
       inkscape:connector-curvature="0"
       style="stroke:#ff0000;stroke-linecap:butt;stroke-linejoin:round"
       id="me7671b0261"
       d="M 0,0.707107 C 0.187527,0.707107 0.367398,0.632602 0.5,0.5 0.632602,0.367398 0.707107,0.187527 0.707107,0 0.707107,-0.187527 0.632602,-0.367398 0.5,-0.5 0.367398,-0.632602 0.187527,-0.707107 0,-0.707107 c -0.187527,0 -0.367398,0.074505 -0.5,0.207107 -0.132602,0.132602 -0.207107,0.312473 -0.207107,0.5 0,0.187527 0.074505,0.367398 0.207107,0.5 0.132602,0.132602 0.312473,0.207107 0.5,0.207107 z" />
    <clipPath
       id="pce9c1affc5-6"
       style="stroke-linecap:butt;stroke-linejoin:round">
      <rect
         height="266.112"
         width="357.12"
         x="57.599998"
         y="41.472"
         id="rect179-1"
         style="stroke-linecap:butt;stroke-linejoin:round" />
    </clipPath>
    <clipPath
       id="clipPath957"
       style="stroke-linecap:butt;stroke-linejoin:round">
      <rect
         height="266.112"
         width="357.12"
         x="57.599998"
         y="41.472"
         id="rect955"
         style="stroke-linecap:butt;stroke-linejoin:round" />
    </clipPath>
    <clipPath
       id="clipPath961"
       style="stroke-linecap:butt;stroke-linejoin:round">
      <rect
         height="266.112"
         width="357.12"
         x="57.599998"
         y="41.472"
         id="rect959"
         style="stroke-linecap:butt;stroke-linejoin:round" />
    </clipPath>
    <clipPath
       id="clipPath965"
       style="stroke-linecap:butt;stroke-linejoin:round">
      <rect
         height="266.112"
         width="357.12"
         x="57.599998"
         y="41.472"
         id="rect963"
         style="stroke-linecap:butt;stroke-linejoin:round" />
    </clipPath>
    <clipPath
       id="clipPath969"
       style="stroke-linecap:butt;stroke-linejoin:round">
      <rect
         height="266.112"
         width="357.12"
         x="57.599998"
         y="41.472"
         id="rect967"
         style="stroke-linecap:butt;stroke-linejoin:round" />
    </clipPath>
    <clipPath
       id="clipPath973"
       style="stroke-linecap:butt;stroke-linejoin:round">
      <rect
         height="266.112"
         width="357.12"
         x="57.599998"
         y="41.472"
         id="rect971"
         style="stroke-linecap:butt;stroke-linejoin:round" />
    </clipPath>
    <clipPath
       id="clipPath977"
       style="stroke-linecap:butt;stroke-linejoin:round">
      <rect
         height="266.112"
         width="357.12"
         x="57.599998"
         y="41.472"
         id="rect975"
         style="stroke-linecap:butt;stroke-linejoin:round" />
    </clipPath>
  </defs>
  <sodipodi:namedview
     id="base"
     pagecolor="#ffffff"
     bordercolor="#666666"
     borderopacity="1.0"
     inkscape:pageopacity="0.0"
     inkscape:pageshadow="2"
     inkscape:zoom="7.4422123"
     inkscape:cx="64.37668"
     inkscape:cy="95.25265"
     inkscape:document-units="mm"
     inkscape:current-layer="layer1"
     inkscape:document-rotation="0"
     showgrid="false"
     inkscape:window-width="1680"
     inkscape:window-height="1050"
     inkscape:window-x="0"
     inkscape:window-y="0"
     inkscape:window-maximized="0"
     fit-margin-top="0.125"
     fit-margin-left="0.125"
     fit-margin-right="0.125"
     fit-margin-bottom="0.125"
     units="in" />
  <metadata
     id="metadata948">
    <rdf:RDF>
      <cc:Work
         rdf:about="">
        <dc:format>image/svg+xml</dc:format>
        <dc:type
           rdf:resource="http://purl.org/dc/dcmitype/StillImage" />
        <dc:title></dc:title>
      </cc:Work>
    </rdf:RDF>
  </metadata>
  <g
     inkscape:label="Layer 1"
     inkscape:groupmode="layer"
     id="layer1"
     transform="translate(-83.734331,-40.741161)">
    <g
       style="stroke-width:1.09987482;stroke-linecap:butt;stroke-linejoin:round;stroke-miterlimit:4;stroke-dasharray:none;fill:none;fill-opacity:1"
       id="patch_27"
       transform="matrix(0.87318747,0,0,0.85438417,-64.407892,-52.993954)">
      <path
         inkscape:connector-curvature="0"
         id="path162"
         style="fill:none;stroke:#008000;stroke-width:1.09987482;stroke-linecap:butt;stroke-linejoin:miter;stroke-miterlimit:4;stroke-dasharray:none;fill-opacity:1"
         d="m 236.16,154.688 -0.5952,0.1984 v 0 H 196.48 v -0.3968 h 39.0848 v 0 z"
         clip-path="url(#pce9c1affc5-6)" />
    </g>
    <g
       id="g2205"
       transform="rotate(-90,147.47858,14.776172)">
      <path
         style="fill:none;stroke:#000000;stroke-width:0.5;stroke-linecap:round;stroke-linejoin:round;stroke-miterlimit:4;stroke-dasharray:1.5, 1.5;stroke-dashoffset:0;stroke-opacity:1"
         d="m 103.10636,22.284534 c 0.6054,-0.02243 1.21108,-0.04486 1.7215,-0.05474 0.51042,-0.0099 0.92537,-0.0072 1.19776,0.005 0.27238,0.0122 0.40215,0.03391 0.6084,0.07974 0.20625,0.04583 0.48895,0.115776 0.70026,0.184265 0.21132,0.06849 0.35121,0.135519 0.44304,0.193819 0.0918,0.0583 0.13553,0.107835 0.1851,0.176352 0.0496,0.06852 0.10492,0.155936 0.17196,0.402238 0.067,0.246302 0.14572,0.651404 0.1909,0.88019 0.0452,0.228786 0.0568,0.281234 0.0729,0.352642 0.016,0.07141 0.0364,0.161756 0.0451,0.354127 0.009,0.192371 0.006,0.486725 -0.009,0.687829 -0.0146,0.201104 -0.0409,0.308953 -0.0598,0.397842 -0.0189,0.08889 -0.0306,0.158823 -0.0554,0.295809 -0.0248,0.136987 -0.0627,0.340997 -0.1093,0.540643 -0.0466,0.199646 -0.10202,0.394904 -0.15596,0.53189 -0.054,0.136987 -0.1064,0.215661 -0.17929,0.285598 -0.0729,0.06994 -0.16613,0.131118 -0.33517,0.199591 -0.16905,0.06847 -0.41386,0.144248 -0.66305,0.202528 -0.24918,0.05828 -0.50273,0.09908 -0.73735,0.126763 -0.23461,0.02768 -0.45028,0.04226 -0.79126,0.03351 -0.34099,-0.0088 -0.8073,-0.04081 -1.20213,-0.05283 -0.39483,-0.01202 -0.71743,-0.004 -1.03926,0.0039"
         id="path1774-7"
         inkscape:path-effect="#path-effect1970"
         inkscape:original-d="m 103.10636,22.284534 c 0.60541,-0.02215 1.21109,-0.04459 1.81705,-0.06731 0.41487,0.0028 0.82982,0.0055 1.24489,0.0081 0.12968,0.02182 0.25945,0.04353 0.38933,0.06514 0.28261,0.07005 0.56531,0.139996 0.84811,0.209842 0.1398,0.06713 0.27969,0.134167 0.41969,0.201098 0.0436,0.04965 0.0873,0.09919 0.13115,0.148638 0.0553,0.08754 0.11065,0.174969 0.16612,0.262301 0.0786,0.40522 0.15728,0.810323 0.23607,1.215332 0.0116,0.05256 0.0232,0.105022 0.035,0.157381 0.0203,0.09045 0.0407,0.180798 0.0612,0.271045 -0.003,0.294469 -0.006,0.588823 -0.009,0.883083 -0.0263,0.107938 -0.0526,0.215772 -0.0787,0.323506 -0.0118,0.07005 -0.0234,0.139995 -0.035,0.209841 -0.038,0.204118 -0.0759,0.408126 -0.11366,0.612038 -0.0555,0.195374 -0.11085,0.390639 -0.16613,0.585806 -0.0526,0.07879 -0.10502,0.157483 -0.15738,0.236073 -0.0934,0.06131 -0.18662,0.122508 -0.27979,0.183611 -0.24492,0.07588 -0.48973,0.151653 -0.73444,0.227328 -0.25367,0.04091 -0.50722,0.08171 -0.76068,0.122407 -0.21577,0.01467 -0.43144,0.02925 -0.64701,0.04372 -0.46642,-0.03196 -0.93273,-0.06402 -1.39894,-0.09618 -0.32343,0.0083 -0.64603,0.01626 -0.96787,0.02396"
         sodipodi:nodetypes="ccccccccccccccccccccccc" />
      <path
         style="fill:none;stroke:#000000;stroke-width:0.5;stroke-linecap:round;stroke-linejoin:round;stroke-miterlimit:4;stroke-dasharray:1.5, 1.5;stroke-dashoffset:0;stroke-opacity:1"
         d="m 103.10636,22.284534 c -1.96021,-0.01884 -3.920302,-0.03768 -4.988635,-0.0357 -1.068334,0.002 -1.244889,0.02476 -1.428564,0.04042 -0.183674,0.01566 -0.374471,0.0242 -0.589478,0.04129 -0.215006,0.01709 -0.454211,0.04272 -0.677759,0.07263 -0.223548,0.0299 -0.431429,0.06408 -0.583783,0.09256 -0.152353,0.02848 -0.249176,0.05127 -0.330339,0.07834 -0.08116,0.02707 -0.14666,0.05839 -0.210725,0.103976 -0.06406,0.04558 -0.126714,0.105385 -0.175096,0.182286 -0.04838,0.0769 -0.08255,0.170873 -0.12241,0.338886 -0.03986,0.168014 -0.08542,0.410066 -0.116737,0.734704 -0.03132,0.324638 -0.0484,0.731853 -0.05409,1.123415 -0.0057,0.391561 1e-5,0.767452 0.02138,1.099207 0.02137,0.331756 0.05838,0.61937 0.09826,0.831513 0.03987,0.212144 0.08259,0.348833 0.12815,0.451332 0.04556,0.102499 0.09397,0.170836 0.17083,0.229196 0.07686,0.05836 0.18222,0.106767 0.30466,0.146637 0.12244,0.03987 0.261975,0.07119 0.623633,0.113914 0.361657,0.04272 0.945426,0.09682 1.327024,0.13527 0.381598,0.03844 0.560997,0.06123 1.627912,0.06644 1.066914,0.0052 3.021279,-0.0072 4.975789,-0.01955"
         id="path1722-5"
         inkscape:path-effect="#path-effect1950"
         inkscape:original-d="m 103.10636,22.284534 c -1.96021,-0.01866 -3.920304,-0.0375 -5.880295,-0.05652 -0.176663,0.02288 -0.353218,0.04567 -0.529673,0.06835 -0.190903,0.0086 -0.381698,0.01719 -0.572393,0.02563 -0.239313,0.02573 -0.478518,0.05136 -0.717623,0.07689 -0.207987,0.03427 -0.415867,0.06845 -0.623652,0.102518 -0.09692,0.02288 -0.193743,0.04566 -0.290464,0.06835 -0.0656,0.03143 -0.131097,0.06275 -0.196492,0.09397 -0.06275,0.05991 -0.125404,0.119706 -0.18795,0.179406 -0.03428,0.09408 -0.06845,0.188051 -0.102518,0.281924 -0.04566,0.242162 -0.09123,0.484213 -0.136691,0.726167 -0.01718,0.407333 -0.03428,0.814548 -0.05126,1.22167 0.0056,0.376007 0.01127,0.751898 0.0171,1.127695 0.03692,0.287726 0.07394,0.57534 0.11106,0.862857 0.04261,0.136795 0.08533,0.273482 0.128145,0.410071 0.04832,0.06845 0.09672,0.136792 0.145234,0.205035 0.105267,0.04852 0.210629,0.09692 0.316099,0.145235 0.139437,0.03143 0.278973,0.06275 0.418613,0.09397 0.583692,0.05421 1.167461,0.108316 1.751345,0.162321 0.179308,0.02288 0.358708,0.04566 0.538215,0.06835 1.954336,-0.01219 3.9087,-0.02457 5.86321,-0.03713"
         sodipodi:nodetypes="ccccccccccccccccccccc" />
    </g>
    <g
       style="stroke-linecap:butt;stroke-linejoin:round"
       id="PathCollection_7"
       transform="matrix(0.85438417,0,0,0.85438417,-60.713419,-52.993954)">
      <g
         style="stroke-linecap:butt;stroke-linejoin:round"
         id="g49"
         clip-path="url(#pce9c1affc5-6)">
        <use
           height="100%"
           width="100%"
           id="use47"
           y="134.84801"
           xlink:href="#mba096d9d1a"
           x="196.48"
           style="fill:#0000ff;stroke:#0000ff;stroke-linecap:butt;stroke-linejoin:round" />
      </g>
    </g>
    <g
       style="stroke-linecap:butt;stroke-linejoin:round"
       id="PathCollection_8"
       transform="matrix(0.85438417,0,0,0.85438417,-60.713419,-52.993954)">
      <g
         style="stroke-linecap:butt;stroke-linejoin:round"
         id="g54"
         clip-path="url(#pce9c1affc5-6)">
        <use
           height="100%"
           width="100%"
           id="use52"
           y="134.84801"
           xlink:href="#mba096d9d1a"
           x="236.16"
           style="fill:#0000ff;stroke:#0000ff;stroke-linecap:butt;stroke-linejoin:round" />
      </g>
    </g>
    <g
       style="stroke-linecap:butt;stroke-linejoin:round"
       id="patch_8"
       transform="matrix(0.85438417,0,0,0.85438417,-60.713419,-52.993954)">
      <path
         inkscape:connector-curvature="0"
         id="path105"
         style="fill:none;stroke:#0000ff;stroke-width:1.5;stroke-linecap:butt;stroke-linejoin:miter"
         d="m 176.64,134.848 c 0,5.25988 2.09171,10.3097 5.811,14.029 3.7193,3.71929 8.76912,5.811 14.029,5.811"
         clip-path="url(#pce9c1affc5-6)" />
    </g>
    <g
       style="stroke-linecap:butt;stroke-linejoin:round"
       id="patch_9"
       transform="matrix(0.85438417,0,0,0.85438417,-60.713419,-52.993954)">
      <path
         inkscape:connector-curvature="0"
         id="path108"
         style="fill:none;stroke:#0000ff;stroke-width:1.5;stroke-linecap:butt;stroke-linejoin:miter"
         d="m 236.16,154.688 c 5.25988,0 10.3097,-2.09171 14.029,-5.811 3.71929,-3.7193 5.811,-8.76912 5.811,-14.029"
         clip-path="url(#pce9c1affc5-6)" />
    </g>
    <g
       style="stroke-linecap:butt;stroke-linejoin:round"
       id="patch_25"
       transform="matrix(0.85438417,0,0,0.85438417,-60.713419,-52.993954)">
      <path
         inkscape:connector-curvature="0"
         id="path156"
         style="stroke:#000000;stroke-linecap:butt;stroke-linejoin:miter"
         d="m 176.64,154.688 -0.992,-2.976 h 0.7936 v -16.864 h 0.3968 v 16.864 h 0.7936 z"
         clip-path="url(#pce9c1affc5-6)" />
    </g>
    <g
       style="stroke-linecap:butt;stroke-linejoin:round;stroke-width:1.11191199;stroke-miterlimit:4;stroke-dasharray:none"
       id="patch_26"
       transform="matrix(0.85438417,0,0,0.85438417,-60.713419,-52.993954)">
      <path
         inkscape:connector-curvature="0"
         id="path159"
         style="stroke:#000000;stroke-linecap:butt;stroke-linejoin:miter;stroke-width:1.11191199;stroke-miterlimit:4;stroke-dasharray:none"
         d="m 256,115.008 0.992,2.976 h -0.7936 v 16.864 h -0.3968 v -16.864 h -0.7936 z"
         clip-path="url(#pce9c1affc5-6)" />
    </g>
    <g
       style="fill:#000000;fill-opacity:1;stroke:#000000;stroke-width:1.35531;stroke-linecap:butt;stroke-linejoin:round;stroke-miterlimit:4;stroke-dasharray:none;stroke-opacity:1"
       id="patch_2"
       transform="matrix(0,0.84851536,-0.84851536,0,221.32305,-192.32009)">
      <path
         inkscape:connector-curvature="0"
         id="path87"
         style="fill:#000000;fill-opacity:1;stroke:#000000;stroke-width:1.35531;stroke-linecap:butt;stroke-linejoin:miter;stroke-miterlimit:4;stroke-dasharray:none;stroke-opacity:1"
         d="m 295.68,154.688 c 1.73383,0 3.46021,-0.22728 5.13497,-0.67603 1.67476,-0.44875 3.28348,-1.11511 4.78503,-1.98203"
         clip-path="url(#pce9c1affc5)" />
    </g>
    <path
       style="fill:#ffffff;fill-opacity:1;stroke:#000000;stroke-width:0.0167859;stroke-linecap:round;stroke-linejoin:round;stroke-miterlimit:4;stroke-dasharray:none"
       d="m 87.147462,64.92297 c 0.03359,0.0038 0.143508,0.02707 0.244269,0.05165 0.100761,0.02457 0.194612,0.04737 0.208558,0.05067 0.03742,0.0088 0.119728,-0.02669 0.152735,-0.06591 0.06836,-0.08125 0.166236,-0.321765 0.349116,-0.857948 l 0.09089,-0.266475 -0.0056,-1.282416 c -0.0062,-1.422173 -0.01775,-1.785264 -0.07492,-2.353869 -0.04247,-0.422313 -0.106228,-0.78054 -0.191696,-1.077006 -0.08907,-0.308949 -0.122424,-0.370846 -0.199856,-0.370846 -0.113874,0 -0.155154,0.161977 -0.173738,0.681734 -0.0058,0.161828 -0.01066,1.444997 -0.01085,2.851484 -3.65e-4,2.430186 -0.0013,2.556964 -0.01976,2.551479 -0.01068,-0.0032 -0.03231,-0.0088 -0.04804,-0.01258 -0.02699,-0.0064 -0.02835,-0.01008 -0.02409,-0.06437 0.0025,-0.03166 -0.0086,-1.231676 -0.0246,-2.666694 -0.03156,-2.828436 -0.02563,-2.649899 -0.08859,-2.665702 -0.01475,-0.0037 -0.0373,-0.0034 -0.05012,6.57e-4 -0.05812,0.01845 -0.05654,-0.149254 -0.02543,2.695329 0.01588,1.451809 0.02584,2.64268 0.02214,2.646383 -0.01046,0.01046 -0.07592,-0.007 -0.06888,-0.0184 0.0034,-0.0056 3.65e-4,-1.10062 -0.0069,-2.433464 -0.01318,-2.423719 -0.0072,-3.39726 0.02329,-3.789043 0.04037,-0.51877 0.177485,-1.812795 0.216473,-2.042981 0.04961,-0.292897 0.131044,-0.504443 0.234736,-0.609798 0.160688,-0.163265 0.620285,-0.270373 1.419466,-0.330802 0.252703,-0.01911 1.463511,-0.01897 1.75985,2.01e-4 0.58501,0.03784 0.968447,0.09078 1.269234,0.175216 0.249433,0.07002 0.387362,0.199346 0.469184,0.439912 0.08194,0.240924 0.200893,1.050572 0.243534,1.657653 0.0094,0.134348 0.02459,0.33767 0.03368,0.451826 0.0091,0.114155 0.02139,0.316511 0.02734,0.449677 0.01382,0.309088 0.01402,2.30236 3.65e-4,3.739618 -0.0058,0.610674 -0.012,1.381012 -0.01379,1.71186 l -0.0033,0.601546 -0.02776,0.0054 c -0.01526,0.003 -0.02899,0.0042 -0.0305,0.0027 -0.0015,-0.0015 0.01165,-1.193873 0.02925,-2.649768 0.0176,-1.455894 0.028,-2.657602 0.02311,-2.67046 -0.0201,-0.05286 -0.115641,-0.05762 -0.142678,-0.0071 -0.01046,0.01956 -0.02435,0.941281 -0.05671,3.76643 -0.0061,0.534341 -0.01344,1.113878 -0.01627,1.287861 l -0.0051,0.316334 -0.03499,0.0091 c -0.01924,0.005 -0.03691,0.0071 -0.03926,0.0048 -0.0024,-0.0024 9.13e-4,-1.095603 0.0074,-2.429449 0.0081,-1.690564 0.0081,-2.522707 7e-6,-2.747164 -0.02286,-0.632617 -0.0797,-0.849392 -0.222723,-0.849392 -0.108078,0 -0.166199,0.123841 -0.294424,0.627328 -0.118436,0.465057 -0.142946,0.616641 -0.160677,0.993733 -0.01209,0.257278 -0.03302,2.085284 -0.03328,2.907802 l -1.59e-4,0.503968 0.08769,0.239944 c 0.04823,0.131968 0.125608,0.357651 0.171951,0.501514 0.09532,0.295912 0.123539,0.349525 0.209947,0.398875 0.09057,0.05173 0.132194,0.05186 0.340942,0.0011 0.159169,-0.03874 0.305057,-0.06652 0.35318,-0.06725 0.02548,-3.65e-4 0.0046,0.018 -0.07262,0.06387 -0.14207,0.08441 -0.23117,0.20187 -0.27565,0.363384 -0.02956,0.107334 -0.03287,0.437748 -0.0093,0.927586 0.0281,0.583743 0.0285,1.255339 9.13e-4,1.476137 -0.04599,0.367715 -0.102511,0.617665 -0.218441,0.966086 -0.122765,0.368954 -0.201989,0.529787 -0.305697,0.620603 -0.0821,0.07189 -0.14474,0.0899 -0.660393,0.189813 -0.652901,0.126512 -0.749304,0.146164 -0.904907,0.184469 -0.191888,0.04724 -0.390765,0.05802 -0.716153,0.03884 -0.264998,-0.01563 -0.333836,-0.02588 -0.457001,-0.0681 -0.05449,-0.01868 -0.174753,-0.04516 -0.277578,-0.06112 -0.445183,-0.06912 -0.969085,-0.193717 -1.125401,-0.267638 -0.03064,-0.0145 -0.06909,-0.03875 -0.08543,-0.0539 -0.111545,-0.10343 -0.239253,-0.396092 -0.334789,-0.767223 -0.185676,-0.721307 -0.20574,-1.204626 -0.129477,-3.118927 0.0081,-0.204156 0.0071,-0.248291 -0.006,-0.268763 -0.0087,-0.01347 -0.0695,-0.05201 -0.135183,-0.08565 -0.06568,-0.03363 -0.146903,-0.07916 -0.18049,-0.101171 l -0.06107,-0.04002 z m 0.224533,-6.595815 c 0.0326,0.02283 0.0783,0.02192 0.107375,-0.0021 0.02217,-0.01835 0.02408,-0.03489 0.03437,-0.29701 0.01616,-0.411471 0.07872,-1.043871 0.13989,-1.414045 0.08317,-0.503248 0.200095,-0.657205 0.553646,-0.728987 0.51424,-0.104407 1.369746,-0.136796 2.476538,-0.09376 0.727444,0.02828 1.059087,0.06759 1.354586,0.160558 0.230875,0.07263 0.293706,0.132902 0.343598,0.329581 0.06145,0.242232 0.132377,0.812915 0.223967,1.801983 0.0176,0.190078 0.02199,0.213243 0.04469,0.235942 0.01384,0.01384 0.03812,0.02517 0.05394,0.02517 0.03395,0 0.08327,-0.04523 0.08327,-0.07637 0,-0.02918 -0.06016,-0.650576 -0.09526,-0.983982 -0.05214,-0.495175 -0.10503,-0.863994 -0.149655,-1.043517 -0.07582,-0.305032 -0.226782,-0.414547 -0.704402,-0.511024 -0.380389,-0.07684 -1.073087,-0.116648 -2.029271,-0.116627 -0.822305,1.7e-5 -1.370734,0.04086 -1.71233,0.127509 -0.244726,0.06208 -0.373647,0.164075 -0.478576,0.37862 -0.07782,0.159123 -0.121851,0.363469 -0.175919,0.81649 -0.0633,0.530338 -0.09141,0.880937 -0.09357,1.166778 -0.0015,0.202754 -9.13e-4,0.207954 0.02311,0.224839 z m 0.413234,7.262217 c 0.03664,0.0877 0.189652,0.213584 0.368801,0.303416 0.165286,0.08288 0.458342,0.170442 0.825454,0.246626 0.06412,0.01331 0.121016,0.0283 0.126433,0.03333 0.01004,0.0093 0.0213,0.166837 0.139998,1.959133 0.03721,0.56182 0.07235,1.032807 0.0781,1.046636 0.02278,0.05485 0.10555,0.05995 0.139209,0.0086 0.01638,-0.02499 0.01021,-0.138845 -0.08309,-1.534835 -0.05542,-0.829314 -0.102233,-1.523599 -0.104015,-1.542855 l -0.0032,-0.03501 0.144762,-0.02294 c 0.273685,-0.04337 0.479551,-0.05963 0.772089,-0.06098 0.187728,-9.13e-4 0.313062,0.0036 0.371956,0.01331 0.114826,0.0189 0.274876,0.05718 0.287195,0.0687 0.0054,0.005 -0.03589,0.682931 -0.09395,1.542745 -0.07508,1.111974 -0.100327,1.538938 -0.09179,1.552599 0.04076,0.06525 0.128557,0.05422 0.14786,-0.01857 0.0059,-0.02217 0.05354,-0.694842 0.105907,-1.494825 0.05237,-0.799981 0.09879,-1.466613 0.103164,-1.481401 0.0075,-0.02548 0.01716,-0.02821 0.183865,-0.05214 0.331461,-0.04759 0.489826,-0.09099 0.673895,-0.184698 0.222657,-0.11335 0.39978,-0.245857 0.444624,-0.332626 0.05427,-0.105016 0.01506,-0.30199 -0.174363,-0.875986 -0.09966,-0.301981 -0.156379,-0.421746 -0.223959,-0.4729 -0.0588,-0.04451 -0.15518,-0.07513 -0.285765,-0.09081 -0.20229,-0.02428 -0.886172,-0.037 -2.075965,-0.0386 -1.165583,-0.0016 -1.223223,-7.31e-4 -1.262432,0.01879 -0.08244,0.041 -0.116347,0.110311 -0.305057,0.62355 -0.178283,0.484878 -0.225427,0.634056 -0.225557,0.713736 -6.8e-5,0.03836 0.0071,0.08697 0.01588,0.108019 z m 0.101221,-7.375777 c 0.04127,0.299206 0.203254,1.045498 0.249741,1.150627 0.04295,0.09713 0.109984,0.145685 0.242123,0.175386 0.09836,0.02211 1.455457,0.0403 2.549774,0.03417 0.700661,-0.0039 0.795683,-0.0065 0.85451,-0.02333 0.0832,-0.02377 0.130468,-0.0595 0.160321,-0.121169 0.02097,-0.04333 0.110621,-0.367936 0.279669,-1.012673 0.04955,-0.188985 0.05836,-0.237776 0.05916,-0.327543 9.13e-4,-0.09913 -0.0015,-0.110157 -0.0378,-0.183203 -0.07111,-0.142722 -0.232154,-0.278014 -0.429305,-0.360664 -0.169776,-0.07117 -0.456149,-0.144132 -0.720008,-0.183434 -0.489347,-0.07289 -1.431109,-0.08956 -1.904191,-0.03372 -0.390635,0.04611 -0.808313,0.167538 -1.038146,0.301803 -0.121356,0.07089 -0.242198,0.19207 -0.264711,0.265442 -0.02205,0.07187 -0.02238,0.16427 -0.0011,0.318302 z m 0.0399,10.493598 c 0.007,0.01333 0.01826,0.02792 0.02498,0.03241 0.0067,0.0045 0.173789,0.0082 0.371269,0.0083 l 0.359053,1.66e-4 -0.0062,0.04164 c -0.0034,0.0229 -0.01194,0.1256 -0.01899,0.228222 l -0.01282,0.186587 0.0255,0.02715 c 0.03435,0.03657 0.09014,0.03681 0.118686,5.48e-4 0.01767,-0.02247 0.02388,-0.06705 0.0398,-0.285906 0.02317,-0.318582 0.02332,-0.304517 -0.0036,-0.331454 -0.02143,-0.02143 -0.03701,-0.02221 -0.443695,-0.02221 -0.419294,0 -0.421604,1.22e-4 -0.444126,0.0243 -0.02556,0.02744 -0.02855,0.05475 -0.0099,0.09024 z m 3.372017,0.422179 c 0.006,0.07863 0.01174,0.101254 0.02891,0.113807 0.0293,0.02142 0.07639,0.01967 0.105542,-0.0039 0.02357,-0.01909 0.02418,-0.0258 0.02313,-0.258149 l -0.0011,-0.238551 0.358518,0.0038 c 0.352728,0.0037 0.358861,0.0034 0.379661,-0.01957 0.02623,-0.02898 0.02733,-0.08257 0.0023,-0.110258 -0.02596,-0.02869 -0.108293,-0.03437 -0.521178,-0.03596 -0.311985,-0.0013 -0.343938,3.65e-4 -0.363628,0.01822 -0.01998,0.01808 -0.02151,0.03493 -0.02062,0.225999 5.48e-4,0.113555 0.0043,0.250626 0.0085,0.304605 z"
       id="path1812" />
    <g
       id="g1794"
       transform="matrix(-0.3834152,0,0,-0.3834152,101.27765,102.00751)">
      <path
         style="fill:none;stroke:#000000;stroke-width:0.4;stroke-linecap:round;stroke-linejoin:round;stroke-miterlimit:4;stroke-dasharray:none;stroke-opacity:1"
         d="m 22.356266,114.10013 c 0.113447,1.19749 0.226867,2.3947 0.327696,3.26006 0.10083,0.86537 0.189042,1.39885 0.256281,1.73701 0.06724,0.33817 0.113445,0.48099 0.18912,0.62171 0.07567,0.14071 0.180691,0.27933 0.373977,0.39686 0.193287,0.11753 0.474725,0.21414 0.846488,0.30653 0.371763,0.0924 0.833831,0.18061 1.697078,0.2478 0.863247,0.0672 2.127641,0.11339 3.221931,0.12809 1.09429,0.0147 2.018432,-0.002 2.831262,-0.0525 0.81283,-0.0504 1.514342,-0.13443 1.97218,-0.22267 0.457839,-0.0882 0.672056,-0.18064 0.846318,-0.30032 0.174262,-0.11969 0.308683,-0.26671 0.428384,-0.46409 0.119702,-0.19738 0.224714,-0.44522 0.315043,-0.85265 0.09033,-0.40743 0.165941,-0.97451 0.239458,-1.61932 0.07352,-0.64482 0.144927,-1.36733 0.182743,-1.91342 0.03782,-0.54608 0.04202,-0.91574 0.04622,-1.28566"
         id="path1716"
         inkscape:path-effect="#path-effect1718"
         inkscape:original-d="m 22.356266,114.10013 c 0.113684,1.19747 0.227103,2.39468 0.340259,3.59162 0.08848,0.53377 0.176695,1.06725 0.264645,1.60048 0.04647,0.14309 0.09268,0.28591 0.138624,0.42847 0.105285,0.13889 0.210301,0.27751 0.315055,0.41587 0.281719,0.0969 0.563162,0.1935 0.844346,0.28985 0.462353,0.0885 0.924424,0.1767 1.386239,0.26465 1.264709,0.0465 2.529103,0.0927 3.793256,0.13862 0.924443,-0.0165 1.848585,-0.0333 2.772481,-0.0504 0.701799,-0.0837 1.403305,-0.16776 2.104562,-0.25204 0.214506,-0.0922 0.428739,-0.18457 0.642713,-0.27725 0.134688,-0.14676 0.26911,-0.29378 0.40327,-0.44107 0.105283,-0.24759 0.210298,-0.49542 0.315052,-0.74353 0.07588,-0.56685 0.151493,-1.13393 0.226841,-1.7013 0.07168,-0.72227 0.143089,-1.44478 0.214235,-2.16757 0.0045,-0.36941 0.0087,-0.73907 0.0126,-1.10899" />
      <path
         style="fill:none;stroke:#000000;stroke-width:0.4;stroke-linecap:round;stroke-linejoin:round;stroke-miterlimit:4;stroke-dasharray:none;stroke-opacity:1"
         d="m 21.693805,97.252813 c -0.04914,5.112497 -0.09827,10.224707 -0.09311,13.011067 0.0052,2.78636 0.06458,3.24684 0.105416,3.72589 0.04084,0.47905 0.06312,0.97667 0.107689,1.53744 0.04457,0.56076 0.111416,1.18465 0.189412,1.76769 0.07799,0.58304 0.167121,1.12523 0.241405,1.52259 0.07428,0.39736 0.133703,0.64989 0.204303,0.86157 0.0706,0.21168 0.152297,0.3825 0.271187,0.54959 0.118891,0.1671 0.274861,0.33049 0.475429,0.45668 0.200567,0.12619 0.44566,0.21531 0.883865,0.31926 0.438204,0.10396 1.069507,0.22279 1.916208,0.30447 0.846701,0.0817 1.908775,0.12624 2.930022,0.14108 1.021247,0.0148 2.001623,-3e-5 2.866887,-0.0558 0.865264,-0.0557 1.615399,-0.15228 2.1687,-0.25627 0.553302,-0.10399 0.909803,-0.2154 1.17713,-0.33423 0.267327,-0.11883 0.445572,-0.24508 0.597779,-0.44554 0.152207,-0.20047 0.278466,-0.47527 0.382454,-0.7946 0.103988,-0.31934 0.185686,-0.68327 0.297107,-1.62652 0.111421,-0.94326 0.252536,-2.46581 0.352801,-3.46107 0.100265,-0.99526 0.159681,-1.46316 0.173265,-4.24582 0.01358,-2.78266 -0.0187,-7.87992 -0.05098,-12.977557"
         id="path1722"
         inkscape:path-effect="#path-effect1724"
         inkscape:original-d="m 21.693805,97.252813 c -0.04866,5.112497 -0.0978,10.224707 -0.147401,15.336637 0.05968,0.46076 0.119101,0.92124 0.178254,1.38146 0.02255,0.4979 0.04483,0.99552 0.06684,1.49288 0.06711,0.62416 0.133955,1.24804 0.200535,1.87166 0.08939,0.54246 0.178519,1.08464 0.267381,1.62657 0.05968,0.25279 0.1191,0.50531 0.178254,0.75757 0.08197,0.1711 0.163663,0.34192 0.245098,0.51248 0.15624,0.16367 0.312208,0.32707 0.467916,0.4902 0.245368,0.0894 0.490462,0.17852 0.735296,0.26738 0.631592,0.1191 1.262894,0.23794 1.893945,0.35651 1.062381,0.0448 2.124453,0.0894 3.186284,0.13369 0.980678,-0.0146 1.961055,-0.0294 2.941185,-0.0446 0.75043,-0.0963 1.500566,-0.19284 2.250451,-0.28966 0.35678,-0.11114 0.713279,-0.22255 1.069522,-0.33422 0.178523,-0.12601 0.356772,-0.25226 0.53476,-0.37879 0.126532,-0.27455 0.252791,-0.54935 0.378791,-0.82443 0.08197,-0.36367 0.163663,-0.7276 0.245097,-1.0918 0.141385,-1.52235 0.282501,-3.0449 0.423354,-4.56775 0.05968,-0.46766 0.1191,-0.93556 0.178253,-1.40374 -0.0318,-5.09718 -0.06408,-10.19444 -0.09684,-15.292077"
         sodipodi:nodetypes="ccccccccccccccccccccc" />
      <path
         style="fill:none;stroke:#000000;stroke-width:0.4;stroke-linecap:round;stroke-linejoin:round;stroke-miterlimit:4;stroke-dasharray:none;stroke-opacity:1"
         d="m 36.281467,97.139684 c 0.04971,4.570886 0.09942,9.141486 0.149118,13.711786"
         id="path1726"
         inkscape:path-effect="#path-effect1728"
         inkscape:original-d="m 36.281467,97.139684 c 0.05019,4.570876 0.0999,9.141476 0.149118,13.711786"
         sodipodi:nodetypes="cc" />
      <path
         style="fill:none;stroke:#000000;stroke-width:0.4;stroke-linecap:round;stroke-linejoin:round;stroke-miterlimit:4;stroke-dasharray:none;stroke-opacity:1"
         d="m 22.267996,97.125977 c -0.05485,4.582873 -0.109701,9.165463 -0.164546,13.747783"
         id="path1730"
         inkscape:path-effect="#path-effect1732"
         inkscape:original-d="m 22.267996,97.125977 c -0.05438,4.582883 -0.10923,9.165473 -0.164546,13.747783"
         sodipodi:nodetypes="cc" />
      <path
         style="fill:none;stroke:#000000;stroke-width:0.4;stroke-linecap:round;stroke-linejoin:round;stroke-miterlimit:4;stroke-dasharray:none;stroke-opacity:1"
         d="m 22.905591,96.658029 c -0.02229,4.426901 -0.04457,8.853531 -0.04828,11.245101 -0.0037,2.39158 0.01114,2.74808 0.03344,3.07489 0.02229,0.32681 0.052,0.62389 0.09659,0.88015 0.04459,0.25625 0.10401,0.47164 0.182032,0.56431 0.07802,0.0927 0.174604,0.063 0.33789,-0.40856 0.163286,-0.47152 0.393525,-1.38505 0.530938,-2.02749 0.137414,-0.64244 0.181976,-1.01378 0.211698,-2.69978 0.02972,-1.68599 0.04457,-4.68654 0.05943,-7.687406"
         id="path1734"
         inkscape:path-effect="#path-effect1736"
         inkscape:original-d="m 22.905591,96.658029 c -0.02202,4.426901 -0.0443,8.853531 -0.06685,13.279891 0.01512,0.35678 0.02997,0.71328 0.04456,1.06953 0.02997,0.29736 0.05968,0.59444 0.08913,0.89126 0.05968,0.21566 0.119101,0.43105 0.178254,0.64618 0.09682,-0.0294 0.193373,-0.0592 0.289662,-0.0891 0.230514,-0.91331 0.460753,-1.82684 0.690733,-2.74065 0.04483,-0.37111 0.08939,-0.74246 0.13369,-1.11409 0.01512,-3.00039 0.02997,-6.00094 0.04456,-9.001806" />
      <path
         style="fill:none;stroke:#000000;stroke-width:0.4;stroke-linecap:round;stroke-linejoin:round;stroke-miterlimit:4;stroke-dasharray:none;stroke-opacity:1"
         d="m 24.30933,99.599245 c -0.222696,-0.601297 -0.445505,-1.2029 -0.597787,-1.678258 -0.152282,-0.475358 -0.23398,-0.824431 -0.356416,-1.013957 -0.122436,-0.189526 -0.28583,-0.219235 -0.367683,-0.234117 -0.08185,-0.01488 -0.08185,-0.01488 -0.260013,0.02966 -0.17816,0.04454 -0.643012,0.160754 -0.856194,0.199215 -0.213181,0.03846 -0.391434,0.05331 -0.521401,0.02003 -0.129967,-0.03328 -0.211662,-0.114976 -0.208067,-0.193105 0.0036,-0.07813 0.09272,-0.152401 0.308151,-0.278681 0.21543,-0.12628 0.557076,-0.30453 0.705578,-0.790857 0.148502,-0.486326 0.10394,-1.281025 0.06309,-2.120313 -0.04085,-0.839287 -0.07799,-1.72311 -0.08914,-2.391576 -0.01115,-0.668466 0.0037,-1.121518 0.05197,-1.630306 0.04827,-0.508789 0.129963,-1.073247 0.278499,-1.682317 0.148537,-0.609071 0.363922,-1.262654 0.527324,-1.689757 0.163402,-0.427104 0.274808,-0.627635 0.389949,-0.794786 0.115141,-0.167151 0.233974,-0.300838 0.3826,-0.401142 0.148626,-0.100303 0.326877,-0.167147 0.950808,-0.297118 0.62393,-0.12997 1.693431,-0.323075 2.295013,-0.441918 0.601581,-0.118844 0.735269,-0.163407 0.902402,-0.207966 0.167134,-0.04456 0.367665,-0.08912 0.787349,-0.100236 0.419684,-0.01111 1.058413,0.01117 1.470645,0.04462 0.412232,0.03345 0.597908,0.07802 0.72417,0.122645 0.126261,0.04463 0.193104,0.08919 0.427059,0.13367 0.233955,0.04448 0.635018,0.08904 1.225501,0.204186 0.590482,0.115144 1.370326,0.300821 1.827091,0.449449 0.456764,0.148629 0.590452,0.260035 0.742655,0.471753 0.152203,0.211717 0.323026,0.523654 0.501238,1.021285 0.178212,0.497631 0.363889,1.180923 0.493838,1.893932 0.129949,0.71301 0.204219,1.455719 0.230198,2.250426 0.02598,0.794707 0.0037,1.641395 -0.02601,2.573521 -0.02971,0.932127 -0.06685,1.949638 -0.103972,2.966914"
         id="path1738"
         inkscape:path-effect="#path-effect1740"
         inkscape:original-d="m 24.30933,99.599245 c -0.22255,-0.601351 -0.445359,-1.202954 -0.668442,-1.804846 -0.08143,-0.348816 -0.163129,-0.697889 -0.245099,-1.04724 -0.163135,-0.02945 -0.326531,-0.05915 -0.490198,-0.08913 2.65e-4,2.65e-4 2.65e-4,2.66e-4 0,2e-6 -0.356243,0.08939 -0.824153,0.193372 -1.069522,0.267382 -0.177989,0.01512 -0.356242,0.02997 -0.53476,0.04456 -0.08144,-0.08144 -0.163135,-0.163133 -0.245099,-0.245097 0.08939,-0.07401 0.178518,-0.14828 0.267381,-0.222817 0.341924,-0.177993 0.68357,-0.356243 1.024958,-0.534761 -0.0443,-0.794465 -0.08886,-1.589164 -0.13369,-2.384142 -0.03687,-0.883594 -0.07401,-1.767417 -0.111409,-2.651523 0.01512,-0.452806 0.02997,-0.905858 0.04456,-1.359184 0.08197,-0.564216 0.163663,-1.128675 0.245098,-1.693409 0.215659,-0.653345 0.431044,-1.306929 0.64617,-1.96079 0.111675,-0.200275 0.223081,-0.400806 0.334225,-0.601606 0.119103,-0.133429 0.237936,-0.267116 0.356508,-0.401071 0.178521,-0.06658 0.356771,-0.133426 0.53476,-0.200535 1.069808,-0.192848 2.139309,-0.385952 3.208566,-0.579325 0.133957,-0.0443 0.267645,-0.08886 0.40107,-0.13369 0.200804,-0.0443 0.401336,-0.08886 0.601606,-0.13369 0.63902,0.02255 1.277749,0.04483 1.916227,0.06684 0.185949,0.04483 0.371626,0.08939 0.557043,0.13369 0.06711,0.04483 0.133954,0.08939 0.200535,0.133691 0.401343,0.04483 0.802406,0.08939 1.203212,0.13369 0.78014,0.185949 1.559984,0.371626 2.339579,0.557042 0.133957,0.111676 0.267645,0.223082 0.40107,0.334226 0.171095,0.312215 0.341918,0.624152 0.51248,0.935831 0.185949,0.683584 0.371626,1.366876 0.557042,2.049917 0.07454,0.743003 0.148809,1.485712 0.222817,2.228171 -0.02202,0.846986 -0.0443,1.693674 -0.06684,2.540114 -0.03687,1.017816 -0.07401,2.035327 -0.111408,3.052593" />
      <path
         style="fill:none;stroke:#000000;stroke-width:0.4;stroke-linecap:round;stroke-linejoin:round;stroke-miterlimit:4;stroke-dasharray:none;stroke-opacity:1"
         d="m 35.628445,96.658029 c 0.0074,4.649711 0.01485,9.299161 0.0037,11.861551 -0.01115,2.56239 -0.04086,3.03773 -0.08172,3.38679 -0.04086,0.34905 -0.09285,0.57186 -0.144682,0.6684 -0.05183,0.0965 -0.103816,0.0669 -0.285886,-0.51612 -0.182071,-0.58297 -0.494008,-1.71931 -0.646309,-3.88441 -0.152302,-2.16509 -0.144875,-5.35874 -0.137448,-8.552713"
         id="path1742"
         inkscape:path-effect="#path-effect1744"
         inkscape:original-d="m 35.628445,96.658029 c 0.0077,4.649711 0.01511,9.299161 0.02228,13.948351 -0.02945,0.47561 -0.05915,0.95095 -0.08913,1.42603 -0.05173,0.22308 -0.103717,0.44589 -0.155972,0.66845 -0.05173,-0.0295 -0.103717,-0.0592 -0.155972,-0.0891 -0.311684,-1.13613 -0.623623,-2.27247 -0.935831,-3.4091 0.0077,-3.19351 0.01511,-6.38716 0.02228,-9.581133" />
      <path
         style="fill:none;stroke:#000000;stroke-width:0.4;stroke-linecap:round;stroke-linejoin:round;stroke-miterlimit:4;stroke-dasharray:none;stroke-opacity:1"
         d="m 36.207774,96.034139 c 0.334542,0.17099 0.668765,0.341817 0.854357,0.468157 0.185593,0.12634 0.222732,0.208043 0.211499,0.289611 -0.01123,0.08157 -0.07065,0.16326 -0.271013,0.163273 -0.200367,1.3e-5 -0.542013,-0.08168 -0.794538,-0.144812 -0.252526,-0.06313 -0.415921,-0.107691 -0.548325,-0.124678 -0.132404,-0.01699 -0.233731,-0.0063 -0.453097,0.499086 -0.219366,0.505373 -0.541155,1.459777 -0.870556,2.436755"
         id="path1746"
         inkscape:path-effect="#path-effect1748"
         inkscape:original-d="m 36.207774,96.034139 c 0.334489,0.171093 0.668713,0.341919 1.00267,0.512482 0.0374,0.08196 0.07454,0.163663 0.111411,0.2451 -0.05916,0.08197 -0.118573,0.163663 -0.178255,0.245099 -0.341395,-0.08144 -0.683041,-0.163137 -1.024959,-0.245099 -0.163137,-0.0443 -0.326533,-0.08886 -0.490196,-0.133694 -0.101066,0.01095 -0.202391,0.02167 -0.303983,0.0321 -0.32621,1.003718 -0.658643,1.954533 -0.988361,2.931404" />
      <path
         style="fill:none;stroke:#000000;stroke-width:0.4;stroke-linecap:round;stroke-linejoin:round;stroke-miterlimit:4;stroke-dasharray:none;stroke-opacity:1"
         d="m 26.129443,110.88743 c 1.544587,0 4.633497,0 6.216444,0.0193 1.582946,0.0193 1.659906,0.0578 1.824673,0.68446 0.164767,0.62666 0.417589,1.84131 0.524712,2.52829 0.107122,0.68698 0.06865,0.84637 -0.06323,1.01665 -0.131874,0.17028 -0.357214,0.35165 -0.675943,0.51378 -0.318728,0.16213 -0.730941,0.30503 -1.156882,0.42046 -0.425941,0.11543 -0.865633,0.20337 -1.374019,0.25835 -0.508385,0.055 -1.085484,0.077 -1.778015,0.077 -0.69253,1e-5 -1.500467,-0.022 -2.162761,-0.0742 -0.662295,-0.0522 -1.178934,-0.13465 -1.643365,-0.23905 -0.464431,-0.10441 -0.876643,-0.23082 -1.192693,-0.37915 -0.316049,-0.14834 -0.535896,-0.31872 -0.692607,-0.49456 -0.156711,-0.17584 -0.250145,-0.35721 -0.28597,-0.5139 -0.03582,-0.1567 -0.01384,-0.28861 0.1483,-0.92071 0.162138,-0.6321 0.464427,-1.76431 0.615599,-2.33052 0.151172,-0.56621 0.151168,-0.56621 1.695754,-0.56621 z"
         id="path1750"
         inkscape:path-effect="#path-effect1752"
         inkscape:original-d="m 24.584857,110.88743 c 3.089173,2.7e-4 6.178083,2.7e-4 9.266728,0 0.07721,0.0387 0.154159,0.0772 0.230844,0.11542 0.253097,1.21497 0.50592,2.42962 0.758486,3.64404 -0.03821,0.15966 -0.07668,0.31905 -0.115422,0.47817 -0.225089,0.18165 -0.450432,0.36302 -0.676042,0.54414 -0.411967,0.14317 -0.82418,0.28607 -1.236665,0.42871 -0.439447,0.0882 -0.879139,0.17614 -1.319107,0.26382 -0.576855,0.0222 -1.153954,0.0442 -1.731327,0.066 -0.807704,-0.0217 -1.615641,-0.0437 -2.423859,-0.066 -0.516395,-0.0822 -1.033036,-0.16463 -1.549951,-0.24734 -0.411965,-0.12615 -0.824177,-0.25256 -1.236663,-0.37924 -0.219591,-0.17012 -0.439438,-0.3405 -0.659553,-0.51115 -0.09317,-0.18112 -0.186609,-0.36249 -0.280311,-0.54413 0.02225,-0.13165 0.04424,-0.26356 0.06596,-0.39574 0.302566,-1.13199 0.604855,-2.2642 0.906886,-3.3967 z" />
      <path
         style="fill:none;stroke:#000000;stroke-width:0.4;stroke-linecap:round;stroke-linejoin:round;stroke-miterlimit:4;stroke-dasharray:none;stroke-opacity:1"
         d="m 25.816342,85.623664 0.03231,1.357053 -2.00327,-0.03231"
         id="path1758" />
      <path
         style="fill:none;stroke:#000000;stroke-width:0.4;stroke-linecap:round;stroke-linejoin:round;stroke-miterlimit:4;stroke-dasharray:none;stroke-opacity:1"
         d="m 32.730858,85.623664 -0.09693,1.324744 h 2.003271"
         id="path1760" />
      <path
         style="fill:none;stroke:#000000;stroke-width:0.4;stroke-linecap:round;stroke-linejoin:round;stroke-miterlimit:4;stroke-dasharray:none;stroke-opacity:1"
         d="m 27.496505,85.752907 -0.549283,8.142325"
         id="path1762" />
      <path
         style="fill:none;stroke:#000000;stroke-width:0.4;stroke-linecap:round;stroke-linejoin:round;stroke-miterlimit:4;stroke-dasharray:none;stroke-opacity:1"
         d="m 30.986073,85.720596 0.549283,8.174636"
         id="path1764" />
      <path
         style="fill:none;stroke:#000000;stroke-width:0.4;stroke-linecap:round;stroke-linejoin:round;stroke-miterlimit:4;stroke-dasharray:none;stroke-opacity:1"
         d="m 26.947222,93.895232 c 0.280341,0.07548 0.560367,0.150868 0.845766,0.199303 0.285399,0.04843 0.576192,0.06997 0.985453,0.06996 0.409262,-1.6e-5 0.936994,-0.02155 1.416254,-0.07003 0.47926,-0.04848 0.910063,-0.123871 1.340661,-0.199226"
         id="path1766"
         inkscape:path-effect="#path-effect1768"
         inkscape:original-d="m 26.947222,93.895232 c 0.280292,0.07566 0.560319,0.151048 0.840081,0.226176 0.291066,0.0218 0.581859,0.04335 0.872392,0.06462 0.528019,-0.02127 1.055751,-0.04282 1.58323,-0.06462 0.431083,-0.07513 0.861886,-0.150519 1.292431,-0.226176" />
      <path
         style="fill:none;stroke:#000000;stroke-width:0.4;stroke-linecap:round;stroke-linejoin:round;stroke-miterlimit:4;stroke-dasharray:none;stroke-opacity:1"
         d="m 31.543854,93.653032 c 0.525221,0.113111 1.05013,0.226154 1.474147,0.336549 0.424018,0.110394 0.74712,0.218096 1.032529,0.352773 0.285409,0.134677 0.53312,0.296228 0.700016,0.436292 0.166895,0.140063 0.253056,0.258536 0.274463,0.398492 0.02141,0.139956 -0.02167,0.301507 -0.204774,0.823857 -0.183101,0.52235 -0.506203,1.405495 -0.700067,1.906286 -0.193863,0.500791 -0.258483,0.619263 -0.419877,0.673073 -0.161393,0.05381 -0.419875,0.04304 -1.933131,0.03226 -1.513256,-0.01077 -4.281161,-0.02154 -5.724361,-0.0699 -1.443201,-0.04836 -1.561672,-0.13452 -1.77718,-0.672993 -0.215507,-0.538473 -0.527839,-1.529319 -0.667926,-2.08944 -0.140087,-0.560121 -0.107777,-0.689362 -2.4e-5,-0.818718 0.107753,-0.129355 0.290844,-0.258596 0.554732,-0.426943 0.263887,-0.168348 0.608522,-0.375779 1.087885,-0.517189 0.479363,-0.141409 1.093257,-0.2168 1.706936,-0.292165"
         id="path1770"
         inkscape:path-effect="#path-effect1772"
         inkscape:original-d="m 31.543854,93.653032 c 0.525178,0.113309 1.050087,0.226353 1.574732,0.339132 0.323379,0.107972 0.646483,0.21567 0.969325,0.32311 0.247986,0.161821 0.495697,0.323373 0.743148,0.484661 0.08643,0.118739 0.172591,0.237212 0.258488,0.35542 -0.04282,0.161822 -0.0859,0.323373 -0.129244,0.484661 -0.32285,0.883446 -0.645951,1.766591 -0.969325,2.649487 -0.06436,0.11874 -0.128979,0.237212 -0.193863,0.35542 -0.258228,-0.0105 -0.51671,-0.02127 -0.775462,-0.03231 -2.76775,-0.0105 -5.535655,-0.02127 -8.303878,-0.03231 -0.118211,-0.0859 -0.236682,-0.172061 -0.355419,-0.258487 -0.31208,-0.990619 -0.624412,-1.981465 -0.937014,-2.972594 0.03258,-0.128982 0.06489,-0.258223 0.09693,-0.387731 0.183362,-0.128982 0.366453,-0.258223 0.549283,-0.387728 0.34492,-0.207179 0.689555,-0.41461 1.033946,-0.622318 0.614184,-0.07513 1.228078,-0.150521 1.841721,-0.226178"
         sodipodi:nodetypes="cccccccccccccccc" />
      <path
         style="fill:none;stroke:#000000;stroke-width:0.4;stroke-linecap:round;stroke-linejoin:round;stroke-miterlimit:4;stroke-dasharray:none;stroke-opacity:1"
         d="m 21.673471,95.802634 c -0.05172,-1.095981 -0.103453,-2.192293 -0.125791,-3.281631 -0.02234,-1.089337 -0.01527,-2.171597 0.01657,-2.882005 0.03184,-0.710408 0.08847,-1.048884 0.208,-1.58681 0.119529,-0.537926 0.301957,-1.27524 0.480586,-1.826379 0.17863,-0.551138 0.353457,-0.915993 0.50552,-1.1555 0.152064,-0.239506 0.281285,-0.353525 0.459943,-0.482764 0.178659,-0.129238 0.406695,-0.273661 1.049085,-0.448491 0.642391,-0.174831 1.698954,-0.380062 2.295655,-0.497885 0.5967,-0.117824 0.733521,-0.14823 0.919756,-0.190039 0.186235,-0.04181 0.42187,-0.09502 0.923603,-0.117796 0.501732,-0.02278 1.26945,-0.01518 1.793966,0.02287 0.524516,0.03804 0.805759,0.106455 1.037596,0.155852 0.231837,0.0494 0.414266,0.0798 0.771535,0.144418 0.357269,0.06462 0.889352,0.163431 1.410054,0.28507 0.520702,0.121639 1.029979,0.266061 1.387239,0.406744 0.35726,0.140683 0.562492,0.277504 0.744874,0.467592 0.182381,0.190087 0.342005,0.433324 0.520587,0.874213 0.178582,0.440889 0.376213,1.079387 0.528216,1.729299 0.152002,0.649911 0.258418,1.311214 0.330616,1.923117 0.0722,0.611903 0.110204,1.174392 0.08738,2.063741 -0.02282,0.88935 -0.106436,2.105537 -0.150668,2.931892 -0.04423,0.826355 -0.04909,1.262349 -0.05394,1.697619"
         id="path1774"
         inkscape:path-effect="#path-effect1776"
         inkscape:original-d="m 21.673471,95.802634 c -0.05122,-1.096005 -0.102955,-2.192316 -0.155202,-3.28893 0.0073,-1.082037 0.01441,-2.164296 0.02122,-3.246839 0.0569,-0.338225 0.113532,-0.676701 0.169902,-1.015447 0.1827,-0.737079 0.365128,-1.474393 0.547295,-2.211988 0.175099,-0.364607 0.349926,-0.729462 0.524492,-1.094589 0.12949,-0.113758 0.25871,-0.227778 0.387668,-0.342062 0.228309,-0.144163 0.456344,-0.288586 0.684119,-0.433276 1.05687,-0.204975 2.113434,-0.410205 3.169753,-0.615707 0.137091,-0.03014 0.273913,-0.06054 0.410472,-0.09122 0.23591,-0.05295 0.471546,-0.106153 0.706924,-0.159628 0.768014,0.0079 1.535732,0.01548 2.303201,0.02281 0.281519,0.06868 0.562763,0.137088 0.843748,0.205235 0.1827,0.03067 0.365128,0.06108 0.547296,0.09122 0.532368,0.09908 1.06445,0.197898 1.596279,0.29645 0.509564,0.144693 1.018841,0.289116 1.527865,0.433276 0.205505,0.137092 0.410737,0.273913 0.61571,0.410472 0.159895,0.243512 0.319518,0.486749 0.478882,0.729729 0.197903,0.638789 0.395534,1.277287 0.592905,1.915533 0.106685,0.661593 0.213101,1.322896 0.319254,1.983947 0.03827,0.562774 0.07628,1.125262 0.11402,1.687496 -0.08335,1.216501 -0.166963,2.432688 -0.250844,3.648636 -0.0044,0.436748 -0.0092,0.872743 -0.01457,1.308007"
         sodipodi:nodetypes="ccccccccccccccccccccccc" />
    </g>
    <path
       style="fill:#ffffff;fill-opacity:1;stroke:#000000;stroke-width:0.0167859;stroke-linecap:round;stroke-linejoin:round;stroke-miterlimit:4;stroke-dasharray:none"
       d="m 87.170728,66.849459 c 0.0048,-0.131294 0.02151,-0.461629 0.03714,-0.734076 0.01563,-0.272445 0.02845,-0.539755 0.02848,-0.594018 3.3e-5,-0.05426 0.0033,-0.147124 0.0072,-0.206356 l 0.0071,-0.107694 0.0319,0.01649 c 0.03184,0.01647 0.03189,0.01665 0.02597,0.102143 -0.01756,0.253707 -0.04298,1.204771 -0.04368,1.634538 -7.3e-4,0.490339 0.0064,0.642853 0.04442,0.943768 0.05205,0.411723 0.169919,0.880922 0.293564,1.168599 0.10429,0.242649 0.198159,0.360921 0.337571,0.425334 0.1842,0.08511 0.644938,0.197391 1.155659,0.281641 0.109922,0.01813 0.237331,0.04595 0.283131,0.06182 0.119524,0.04141 0.257526,0.05941 0.562701,0.07339 0.326164,0.01494 0.504056,0.0034 0.692645,-0.04507 0.06985,-0.01795 0.229424,-0.05259 0.354612,-0.07701 0.125188,-0.02442 0.397492,-0.07751 0.605123,-0.117987 0.398028,-0.0776 0.542932,-0.117623 0.621497,-0.171678 0.122258,-0.08411 0.240864,-0.267726 0.333629,-0.516488 0.111376,-0.298661 0.217593,-0.686417 0.260528,-0.951089 0.07767,-0.478754 0.08159,-0.755845 0.02792,-1.971138 -0.0174,-0.394193 -0.01116,-0.588469 0.02259,-0.701274 0.0098,-0.03266 0.01961,-0.05754 0.02187,-0.05528 0.0083,0.0083 0.03909,0.762425 0.05016,1.230532 0.01295,0.547269 3.66e-4,1.164877 -0.02816,1.381903 -0.01967,0.149672 -0.05129,0.302332 -0.116954,0.564691 -0.147865,0.590755 -0.2631,0.859319 -0.426687,0.994412 -0.163745,0.135225 -0.335288,0.186093 -1.258829,0.373282 -0.612054,0.124056 -0.702888,0.134135 -1.111977,0.123386 -0.321637,-0.0085 -0.392413,-0.01618 -0.727257,-0.07946 -0.721302,-0.136306 -0.980581,-0.195453 -1.215797,-0.277353 -0.28865,-0.100506 -0.404524,-0.210767 -0.520882,-0.495645 -0.19625,-0.480481 -0.343255,-1.242627 -0.359438,-1.863513 -0.0025,-0.09465 -5.48e-4,-0.279521 0.0042,-0.410816 z"
       id="path1814" />
    <path
       style="fill:#00222b;stroke:#000000;stroke-width:0.0124867;stroke-linecap:round;stroke-linejoin:round;stroke-miterlimit:4;stroke-dasharray:none"
       d="m 87.95092,65.40114 c 0.04147,-0.158965 0.344944,-0.982292 0.395045,-1.071772 0.01327,-0.0237 0.02536,-0.03328 0.05092,-0.04035 0.039,-0.01079 1.74363,-0.0042 2.449411,0.0095 0.793094,0.01537 0.934673,0.03129 0.996214,0.111977 0.06903,0.09051 0.29438,0.78576 0.333715,1.02959 0.0086,0.05307 0.0081,0.06502 -0.003,0.08666 -0.03804,0.07356 -0.338037,0.260878 -0.525716,0.328255 -0.0887,0.03184 -0.205846,0.05916 -0.371677,0.08668 -0.23294,0.03865 -0.241403,0.03911 -0.266042,0.01446 -0.02476,-0.02476 -0.08853,-0.04509 -0.262562,-0.08373 -0.16898,-0.03751 -0.265503,-0.04596 -0.523845,-0.04581 -0.25502,1.37e-4 -0.446639,0.01022 -0.628066,0.03305 -0.180885,0.02276 -0.425033,0.06554 -0.451712,0.07915 -0.01207,0.0062 -0.02665,0.02184 -0.03241,0.03485 l -0.01048,0.02366 -0.05432,-0.0113 c -0.205874,-0.04282 -0.567548,-0.139243 -0.665514,-0.177422 -0.19998,-0.07793 -0.404524,-0.206464 -0.436795,-0.274471 -0.01696,-0.03574 -0.01658,-0.04317 0.0069,-0.132999 z"
       id="path1828" />
    <path
       style="fill:#00222b;stroke:#000000;stroke-width:0.0124867;stroke-linecap:round;stroke-linejoin:round;stroke-miterlimit:4;stroke-dasharray:none"
       d="m 87.700097,60.115089 c 0.0053,-0.664179 0.01304,-0.928777 0.02972,-1.015912 l 0.0055,-0.02891 0.01517,0.04956 c 0.05335,0.174131 0.116338,0.465491 0.150893,0.697924 0.0991,0.666578 0.128241,1.363649 0.128339,3.069689 l 5.3e-5,0.918101 -0.09162,0.26713 c -0.09126,0.266077 -0.193376,0.54748 -0.221328,0.609916 -0.0142,0.03172 -0.01488,-0.0082 -0.02019,-1.182587 -0.0062,-1.365991 -0.0052,-2.299685 0.0034,-3.384909 z"
       id="path1830" />
    <path
       style="fill:#00222b;stroke:#000000;stroke-width:0.0124867;stroke-linecap:round;stroke-linejoin:round;stroke-miterlimit:4;stroke-dasharray:none"
       d="m 88.040993,57.957609 c 0.05881,-0.157437 0.430395,-0.331412 0.913104,-0.427518 0.278593,-0.05547 0.483426,-0.06989 0.987793,-0.06954 0.401886,2.74e-4 0.634018,0.0089 0.879632,0.03263 0.458649,0.04433 0.860024,0.147254 1.063398,0.272687 0.08366,0.0516 0.180598,0.149533 0.211969,0.214148 0.04467,0.09201 0.044,0.09683 -0.07869,0.565772 -0.14013,0.535626 -0.206488,0.779031 -0.218955,0.80314 -0.03416,0.06606 -0.06029,0.06701 -1.667389,0.06054 -0.740459,-0.003 -1.416909,-0.0087 -1.50322,-0.01262 -0.243268,-0.01116 -0.300117,-0.0262 -0.33687,-0.08913 -0.02777,-0.04754 -0.123143,-0.453166 -0.19178,-0.81562 -0.06131,-0.323779 -0.07874,-0.481649 -0.05899,-0.534498 z"
       id="path1832" />
    <path
       style="fill:#00222b;stroke:#000000;stroke-width:0.0124867;stroke-linecap:round;stroke-linejoin:round;stroke-miterlimit:4;stroke-dasharray:none"
       d="m 92.044725,62.456644 c 0.0069,-1.075978 0.01948,-1.895896 0.03238,-2.11442 0.01536,-0.260294 0.03778,-0.393623 0.128319,-0.763384 0.05533,-0.225957 0.114554,-0.437561 0.14207,-0.507608 l 0.01585,-0.04033 0.01357,0.06924 c 0.02272,0.116001 0.03793,0.263434 0.04789,0.464238 0.01581,0.318886 -0.002,5.272257 -0.01897,5.261795 -0.01758,-0.01086 -0.05105,-0.09659 -0.105063,-0.269079 -0.06215,-0.198481 -0.111643,-0.342362 -0.206381,-0.599948 l -0.05872,-0.15965 0.0013,-0.17899 c 7.31e-4,-0.09844 0.0042,-0.62128 0.0077,-1.161862 z"
       id="path1834" />
  </g>
</svg>
