<?xml version="1.0" encoding="UTF-8" standalone="no"?>
<!-- Created with Inkscape (http://www.inkscape.org/) -->

<svg
   xmlns:dc="http://purl.org/dc/elements/1.1/"
   xmlns:cc="http://creativecommons.org/ns#"
   xmlns:rdf="http://www.w3.org/1999/02/22-rdf-syntax-ns#"
   xmlns:svg="http://www.w3.org/2000/svg"
   xmlns="http://www.w3.org/2000/svg"
   xmlns:sodipodi="http://sodipodi.sourceforge.net/DTD/sodipodi-0.dtd"
   xmlns:inkscape="http://www.inkscape.org/namespaces/inkscape"
   width="455mm"
   height="59.10236mm"
   viewBox="0 0 455 59.10236"
   version="1.1"
   id="svg3900"
   inkscape:version="0.92.5 (2060ec1f9f, 2020-04-08)"
   sodipodi:docname="example-2.svg">
  <defs
     id="defs3894" />
  <sodipodi:namedview
     id="base"
     pagecolor="#ffffff"
     bordercolor="#666666"
     borderopacity="1.0"
     inkscape:pageopacity="0.0"
     inkscape:pageshadow="2"
     inkscape:zoom="0.35"
     inkscape:cx="486.63056"
     inkscape:cy="-82.596208"
     inkscape:document-units="mm"
     inkscape:current-layer="layer1"
     showgrid="false"
     fit-margin-top="0"
     fit-margin-left="0"
     fit-margin-right="0"
     fit-margin-bottom="0"
     inkscape:window-width="2488"
     inkscape:window-height="1376"
     inkscape:window-x="72"
     inkscape:window-y="27"
     inkscape:window-maximized="1" />
  <metadata
     id="metadata3897">
    <rdf:RDF>
      <cc:Work
         rdf:about="">
        <dc:format>image/svg+xml</dc:format>
        <dc:type
           rdf:resource="http://purl.org/dc/dcmitype/StillImage" />
        <dc:title></dc:title>
      </cc:Work>
    </rdf:RDF>
  </metadata>
  <g
     inkscape:label="Layer 1"
     inkscape:groupmode="layer"
     id="layer1"
     transform="translate(165.796,-67.877393)">
    <g
       id="g1924"
       transform="translate(-27.710538,-141.48645)">
      <g
         transform="translate(-337.91075,1.035562)"
         id="g1421">
        <rect
           style="opacity:1;fill:none;fill-opacity:1;stroke:#222222;stroke-width:0.51785964;stroke-linecap:round;stroke-linejoin:round;stroke-miterlimit:4;stroke-dasharray:none;stroke-dashoffset:0;stroke-opacity:1"
           id="rect917-5-6-7-2-97-1"
           width="30.175144"
           height="29.66396"
           x="249.30247"
           y="237.50775" />
        <path
           style="opacity:1;fill:#aaaaaa;fill-opacity:1;stroke:none;stroke-width:0.17857143;stroke-linecap:round;stroke-linejoin:round;stroke-miterlimit:4;stroke-dasharray:none;stroke-dashoffset:0;stroke-opacity:1"
           d="m 229.15857,217.60866 c 6.7472,6.62176 13.49443,13.24354 20.24158,19.86544 -0.009,0.24632 -0.36309,0.39264 -0.50134,0.59991 -6.5799,6.56166 -13.1598,13.12331 -19.73978,19.6849 -0.2554,-0.0185 -0.0573,-0.50834 -0.1203,-0.71091 -0.0212,-13.12984 -0.0201,-26.2597 7.9e-4,-39.38954 0.002,-0.0597 0.0786,-0.0885 0.1191,-0.0498 z"
           id="path1100-0-7-5-6-18-9-3-3-2"
           inkscape:connector-curvature="0"
           inkscape:export-xdpi="300"
           inkscape:export-ydpi="300" />
      </g>
      <g
         transform="translate(-351.75786,-3.983435)"
         id="g1425">
        <rect
           style="opacity:1;fill:none;fill-opacity:1;stroke:#222222;stroke-width:0.51785964;stroke-linecap:round;stroke-linejoin:round;stroke-miterlimit:4;stroke-dasharray:none;stroke-dashoffset:0;stroke-opacity:1"
           id="rect917-5-6-7-2-97-1-9"
           width="30.175144"
           height="29.66396"
           x="326.83026"
           y="242.52675" />
        <path
           style="opacity:1;fill:#aaaaaa;fill-opacity:1;stroke:none;stroke-width:0.18089442;stroke-linecap:round;stroke-linejoin:round;stroke-miterlimit:4;stroke-dasharray:none;stroke-dashoffset:0;stroke-opacity:1"
           d="m 298.65022,242.90011 c 9.45252,-0.0911 18.90508,-0.18207 28.35767,-0.27296 0.16779,0.18528 0.0209,0.54842 0.0697,0.79916 -0.0129,9.5366 -0.0258,19.07318 -0.0388,28.60978 -0.19367,0.17193 -0.39994,-0.3273 -0.58771,-0.42858 -9.29844,-9.51271 -18.58112,-19.04162 -27.8498,-28.58486 -0.0408,-0.0447 -0.007,-0.12127 0.049,-0.12257 z"
           id="path1100-0-7-5-6-18-9-3-3-2-3"
           inkscape:connector-curvature="0"
           inkscape:export-xdpi="300"
           inkscape:export-ydpi="300" />
      </g>
      <g
         transform="translate(-388.57496,-0.959616)"
         id="g1429">
        <rect
           style="opacity:1;fill:none;fill-opacity:1;stroke:#222222;stroke-width:0.51785964;stroke-linecap:round;stroke-linejoin:round;stroke-miterlimit:4;stroke-dasharray:none;stroke-dashoffset:0;stroke-opacity:1"
           id="rect917-5-6-7-2-97-1-1"
           width="30.175144"
           height="29.66396"
           x="419.05643"
           y="239.50293" />
        <path
           style="opacity:1;fill:#aaaaaa;fill-opacity:1;stroke:none;stroke-width:0.17857143;stroke-linecap:round;stroke-linejoin:round;stroke-miterlimit:4;stroke-dasharray:none;stroke-dashoffset:0;stroke-opacity:1"
           d="m 399.09867,259.68566 c 6.62176,-6.7472 13.24355,-13.49442 19.86545,-20.24158 0.24632,0.009 0.39264,0.36309 0.59991,0.50134 6.56166,6.5799 13.12331,13.1598 19.6849,19.73978 -0.0185,0.2554 -0.50834,0.0573 -0.7109,0.1203 -13.12985,0.0212 -26.25971,0.0201 -39.38955,-7.9e-4 -0.0597,-0.002 -0.0885,-0.0786 -0.0498,-0.1191 z"
           id="path1100-0-7-5-6-18-9-3-3-2-9"
           inkscape:connector-curvature="0"
           inkscape:export-xdpi="300"
           inkscape:export-ydpi="300" />
      </g>
      <g
         transform="translate(-441.3288,-2.849509)"
         id="g1433">
        <rect
           style="opacity:1;fill:none;fill-opacity:1;stroke:#222222;stroke-width:0.51785964;stroke-linecap:round;stroke-linejoin:round;stroke-miterlimit:4;stroke-dasharray:none;stroke-dashoffset:0;stroke-opacity:1"
           id="rect917-5-6-7-2-97-1-4"
           width="30.175144"
           height="29.66396"
           x="507.5029"
           y="241.39282" />
        <path
           style="opacity:1;fill:#222222;fill-opacity:1;stroke:#222222;stroke-width:0.18501422;stroke-linecap:round;stroke-linejoin:round;stroke-miterlimit:4;stroke-dasharray:none;stroke-dashoffset:0;stroke-opacity:1"
           d="m 507.80914,270.70915 c -0.0925,-9.73313 -0.18496,-19.46632 -0.27729,-29.19953 0.18823,-0.17278 0.55713,-0.0215 0.81186,-0.0718 9.6883,0.0133 19.37661,0.0265 29.06492,0.04 0.17465,0.19939 -0.33252,0.41181 -0.43541,0.60514 -9.66403,9.57449 -19.34452,19.13276 -29.0396,28.67659 -0.0455,0.042 -0.1232,0.007 -0.12451,-0.0505 z"
           id="path1100-0-7-5-6-18-9-3-3-2-7"
           inkscape:connector-curvature="0"
           inkscape:export-xdpi="300"
           inkscape:export-ydpi="300" />
      </g>
      <g
         transform="translate(-517.13913,-6.629263)"
         id="g1437">
        <rect
           style="opacity:1;fill:none;fill-opacity:1;stroke:#222222;stroke-width:0.51785964;stroke-linecap:round;stroke-linejoin:round;stroke-miterlimit:4;stroke-dasharray:none;stroke-dashoffset:0;stroke-opacity:1"
           id="rect917-5-6-7-2-97-1-8"
           width="30.175144"
           height="29.66396"
           x="619.00586"
           y="245.17258" />
        <path
           style="opacity:1;fill:#aaaaaa;fill-opacity:1;stroke:none;stroke-width:0.17857143;stroke-linecap:round;stroke-linejoin:round;stroke-miterlimit:4;stroke-dasharray:none;stroke-dashoffset:0;stroke-opacity:1"
           d="m 639.19436,264.95016 c -6.7472,-6.62175 -13.49443,-13.24354 -20.24159,-19.86545 0.009,-0.24632 0.36309,-0.39264 0.50134,-0.59991 6.5799,-6.56166 13.1598,-13.12331 19.73978,-19.6849 0.2554,0.0185 0.0573,0.50834 0.1203,0.71091 0.0212,13.12984 0.0201,26.2597 -7.9e-4,39.38954 -0.002,0.0597 -0.0786,0.0885 -0.1191,0.0498 z"
           id="path1100-0-7-5-6-18-9-3-3-2-4"
           inkscape:connector-curvature="0"
           inkscape:export-xdpi="300"
           inkscape:export-ydpi="300" />
      </g>
      <g
         transform="translate(-585.76797,-14.188788)"
         id="g1441">
        <rect
           style="opacity:1;fill:none;fill-opacity:1;stroke:#222222;stroke-width:0.51785964;stroke-linecap:round;stroke-linejoin:round;stroke-miterlimit:4;stroke-dasharray:none;stroke-dashoffset:0;stroke-opacity:1"
           id="rect917-5-6-7-2-97-1-5"
           width="30.175144"
           height="29.66396"
           x="723.32733"
           y="252.7321" />
        <path
           style="opacity:1;fill:#aaaaaa;fill-opacity:1;stroke:none;stroke-width:0.18530361;stroke-linecap:round;stroke-linejoin:round;stroke-miterlimit:4;stroke-dasharray:none;stroke-dashoffset:0;stroke-opacity:1"
           d="m 753.30814,252.62636 c -9.95234,0.0907 -19.90475,0.18145 -29.85718,0.27204 -0.17667,-0.18466 -0.022,-0.54658 -0.0734,-0.79647 0.0136,-9.50458 0.0272,-19.00913 0.0408,-28.5137 0.2039,-0.17135 0.42109,0.3262 0.6188,0.42715 9.79012,9.48075 19.56366,18.97766 29.32246,28.48886 0.043,0.0446 0.007,0.12085 -0.0516,0.12215 z"
           id="path1100-0-7-5-6-18-9-3-3-2-0"
           inkscape:connector-curvature="0"
           inkscape:export-xdpi="300"
           inkscape:export-ydpi="300" />
      </g>
      <g
         transform="translate(-605.98441,1.686212)"
         id="g1445">
        <rect
           style="opacity:1;fill:none;fill-opacity:1;stroke:#222222;stroke-width:0.51785964;stroke-linecap:round;stroke-linejoin:round;stroke-miterlimit:4;stroke-dasharray:none;stroke-dashoffset:0;stroke-opacity:1"
           id="rect917-5-6-7-2-97-1-3"
           width="30.175144"
           height="29.66396"
           x="799.30054"
           y="236.8571" />
        <path
           style="opacity:1;fill:#aaaaaa;fill-opacity:1;stroke:none;stroke-width:0.17857143;stroke-linecap:round;stroke-linejoin:round;stroke-miterlimit:4;stroke-dasharray:none;stroke-dashoffset:0;stroke-opacity:1"
           d="m 819.12773,216.89741 c -6.62175,6.74719 -13.24354,13.49443 -19.86545,20.24159 -0.24632,-0.009 -0.39264,-0.36309 -0.59991,-0.50134 -6.56166,-6.5799 -13.12331,-13.1598 -19.6849,-19.73978 0.0185,-0.2554 0.50834,-0.0573 0.71091,-0.1203 13.12984,-0.0212 26.2597,-0.0201 39.38954,7.9e-4 0.0597,0.002 0.0885,0.0786 0.0498,0.1191 z"
           id="path1100-0-7-5-6-18-9-3-3-2-6"
           inkscape:connector-curvature="0"
           inkscape:export-xdpi="300"
           inkscape:export-ydpi="300" />
      </g>
      <g
         transform="translate(-607.78594,-10.409033)"
         id="g1449">
        <rect
           style="opacity:1;fill:none;fill-opacity:1;stroke:#222222;stroke-width:0.51785964;stroke-linecap:round;stroke-linejoin:round;stroke-miterlimit:4;stroke-dasharray:none;stroke-dashoffset:0;stroke-opacity:1"
           id="rect917-5-6-7-2-97-1-10"
           width="30.175144"
           height="29.66396"
           x="865.06836"
           y="248.95235" />
        <path
           style="opacity:1;fill:#aaaaaa;fill-opacity:1;stroke:none;stroke-width:0.17857143;stroke-linecap:round;stroke-linejoin:round;stroke-miterlimit:4;stroke-dasharray:none;stroke-dashoffset:0;stroke-opacity:1"
           d="m 864.96087,220.68897 c 0.089,9.45322 0.1774,18.90652 0.266,28.35988 -0.1812,0.1671 -0.5344,0.0209 -0.7787,0.0697 -9.2925,-0.0129 -18.58497,-0.0258 -27.87749,-0.0388 -0.16787,-0.19333 0.31899,-0.40003 0.41759,-0.58773 9.26926,-9.29925 18.55424,-18.58267 27.8532,-27.85211 0.044,-0.041 0.1185,-0.0103 0.1196,0.0489 z"
           id="path1100-0-7-5-6-18-9-3-3-2-63"
           inkscape:connector-curvature="0"
           inkscape:export-xdpi="300"
           inkscape:export-ydpi="300" />
      </g>
    </g>
  </g>
</svg>
