<?xml version="1.0" encoding="UTF-8" standalone="no"?>
<!-- Created with Inkscape (http://www.inkscape.org/) -->

<svg
   xmlns:dc="http://purl.org/dc/elements/1.1/"
   xmlns:cc="http://creativecommons.org/ns#"
   xmlns:rdf="http://www.w3.org/1999/02/22-rdf-syntax-ns#"
   xmlns:svg="http://www.w3.org/2000/svg"
   xmlns="http://www.w3.org/2000/svg"
   xmlns:sodipodi="http://sodipodi.sourceforge.net/DTD/sodipodi-0.dtd"
   xmlns:inkscape="http://www.inkscape.org/namespaces/inkscape"
   width="8.352994in"
   height="3.4074509in"
   viewBox="0 0 212.16605 86.549253"
   version="1.1"
   id="svg8"
   sodipodi:docname="tangram-puzzle-square.svg"
   inkscape:version="0.92.5 (2060ec1f9f, 2020-04-08)"
   inkscape:export-filename="/home/jordan/Blog/posts/02-tangrams/tangram-pieces.png"
   inkscape:export-xdpi="300"
   inkscape:export-ydpi="300">
  <defs
     id="defs2" />
  <sodipodi:namedview
     id="base"
     pagecolor="#ffffff"
     bordercolor="#666666"
     borderopacity="1.0"
     inkscape:pageopacity="0.0"
     inkscape:pageshadow="2"
     inkscape:zoom="0.98994949"
     inkscape:cx="422.34401"
     inkscape:cy="397.66928"
     inkscape:document-units="mm"
     inkscape:current-layer="layer1"
     showgrid="false"
     units="in"
     fit-margin-top="0"
     fit-margin-left="0"
     fit-margin-right="0"
     fit-margin-bottom="0"
     inkscape:snap-global="false"
     inkscape:window-width="2488"
     inkscape:window-height="1376"
     inkscape:window-x="72"
     inkscape:window-y="27"
     inkscape:window-maximized="1" />
  <metadata
     id="metadata5">
    <rdf:RDF>
      <cc:Work
         rdf:about="">
        <dc:format>image/svg+xml</dc:format>
        <dc:type
           rdf:resource="http://purl.org/dc/dcmitype/StillImage" />
        <dc:title></dc:title>
      </cc:Work>
    </rdf:RDF>
  </metadata>
  <g
     inkscape:label="Layer 1"
     inkscape:groupmode="layer"
     id="layer1"
     transform="translate(20.497458,-11.624479)">
    <g
       style="fill:#222222;fill-opacity:1;stroke:#222222;stroke-opacity:1"
       id="g1169"
       inkscape:export-xdpi="300"
       inkscape:export-ydpi="300"
       transform="translate(-7.8729467)">
      <path
         inkscape:connector-curvature="0"
         id="path1092"
         d="m 137.00362,33.995085 c 0.17421,0.375256 0.62497,0.65183 0.90408,0.989312 6.37502,6.362027 12.7211,12.753525 19.12665,19.084482 0.32139,-0.08285 0.50993,-0.482261 0.78379,-0.675819 6.47847,-6.414855 12.92206,-12.865092 19.38109,-19.299706 -0.15116,-0.271605 -0.78257,-0.04556 -1.11853,-0.119716 -13.00708,-0.0021 -26.01415,-0.0042 -39.02122,-0.0063 z"
         style="opacity:1;fill:#222222;fill-opacity:1;stroke:#222222;stroke-width:0.25253814;stroke-linecap:round;stroke-linejoin:round;stroke-miterlimit:4;stroke-dasharray:none;stroke-dashoffset:0;stroke-opacity:1" />
      <path
         inkscape:connector-curvature="0"
         id="path1094"
         d="m 136.08154,12.433142 c -6.87662,5.29e-4 -13.75324,0.0011 -20.62986,0.0019 -0.18307,0.13481 0.18623,0.295494 0.25787,0.426421 6.73296,6.723062 13.46592,13.446127 20.19888,20.16919 0.53174,0.04778 1.08113,0.0069 1.61967,0.02048 13.22092,0 26.44185,0 39.66277,0 0.18308,-0.134786 -0.18602,-0.295648 -0.25758,-0.426648 -6.7241,-6.724139 -13.44819,-13.448281 -20.17229,-20.172421 -0.53177,-0.04774 -1.08117,-0.0068 -1.61973,-0.02037 -6.35324,5.29e-4 -12.70649,0.0011 -19.05973,0.0016 z"
         style="opacity:1;fill:#222222;fill-opacity:1;stroke:#222222;stroke-width:0.12626907;stroke-linecap:round;stroke-linejoin:round;stroke-miterlimit:4;stroke-dasharray:none;stroke-dashoffset:0;stroke-opacity:1" />
      <path
         inkscape:connector-curvature="0"
         id="path1096"
         d="m 178.79349,12.442656 c -6.86263,5.29e-4 -13.72526,7.94e-4 -20.58789,0.0013 -0.16773,0.193575 0.31943,0.399624 0.41836,0.587216 13.55062,13.536856 27.08341,27.09164 40.65314,40.609329 0.24056,0.136819 0.12167,-0.29052 0.15182,-0.413401 0.0381,-13.571788 0.0166,-27.143672 0.0225,-40.715503 -0.20095,-0.159925 -0.56324,-0.02588 -0.82599,-0.07 -6.61065,2.65e-4 -13.2213,7.94e-4 -19.83194,0.0011 z"
         style="opacity:1;fill:#222222;fill-opacity:1;stroke:#222222;stroke-width:0.17857143;stroke-linecap:round;stroke-linejoin:round;stroke-miterlimit:4;stroke-dasharray:none;stroke-dashoffset:0;stroke-opacity:1" />
      <path
         inkscape:connector-curvature="0"
         id="path1098"
         d="m 178.43104,34.206072 c -6.65615,6.588585 -13.27589,13.214032 -19.91545,19.819445 -0.24449,0.267401 -0.54767,0.497591 -0.75485,0.788654 1.51997,1.566897 3.09612,3.093985 4.6377,4.645567 5.31163,5.295339 10.6233,10.590636 15.93497,15.885941 0.25545,-0.0282 0.42123,-0.374365 0.64026,-0.526349 6.75061,-6.604193 13.48005,-13.230016 20.22004,-19.845147 -0.009,-0.246343 -0.36262,-0.393089 -0.50072,-0.600554 -6.72122,-6.722279 -13.44241,-13.444585 -20.16358,-20.166912 -0.0328,5.3e-4 -0.0679,-0.04815 -0.0984,-5.29e-4 z"
         style="opacity:1;fill:#222222;fill-opacity:1;stroke:#222222;stroke-width:0.17857143;stroke-linecap:round;stroke-linejoin:round;stroke-miterlimit:4;stroke-dasharray:none;stroke-dashoffset:0;stroke-opacity:1" />
      <path
         inkscape:connector-curvature="0"
         id="path1100"
         d="m 199.31155,56.128322 c -6.74724,6.621764 -13.49443,13.243576 -20.24157,19.865435 0.009,0.246343 0.36311,0.392642 0.50137,0.599911 6.57988,6.561669 13.1598,13.123312 19.73974,19.684934 0.25539,-0.01852 0.0573,-0.50835 0.12029,-0.71092 0.0212,-13.129834 0.0201,-26.259694 -8e-4,-39.389528 -0.002,-0.05974 -0.0784,-0.08874 -0.11904,-0.04983 z"
         style="opacity:1;fill:#222222;fill-opacity:1;stroke:#222222;stroke-width:0.17857143;stroke-linecap:round;stroke-linejoin:round;stroke-miterlimit:4;stroke-dasharray:none;stroke-dashoffset:0;stroke-opacity:1" />
      <path
         inkscape:connector-curvature="0"
         id="path1104"
         d="m 157.05038,55.490856 c -13.86498,13.80781 -27.73121,27.61447 -41.5795,41.439054 -0.0181,0.235543 0.39352,0.0692 0.54869,0.121989 27.53193,0.02721 55.06388,0.01151 82.59582,0.01587 0.16774,-0.193587 -0.3196,-0.399452 -0.41861,-0.586965 -13.68316,-13.662649 -27.36589,-27.325727 -41.04757,-40.98986 -0.0329,2.64e-4 -0.0684,-0.0483 -0.0988,-9.3e-5 z"
         style="opacity:1;fill:#222222;fill-opacity:1;stroke:#222222;stroke-width:0.17857143;stroke-linecap:round;stroke-linejoin:round;stroke-miterlimit:4;stroke-dasharray:none;stroke-dashoffset:0;stroke-opacity:1" />
      <path
         inkscape:connector-curvature="0"
         id="path1106"
         d="m 114.62757,13.270183 c -0.0164,27.65466 -0.002,55.312748 -0.007,82.968726 0.40591,-0.0013 0.79503,-0.740535 1.1917,-1.016016 13.52364,-13.448739 27.03214,-26.913014 40.54772,-40.369976 -0.3445,-0.583433 -1.00638,-1.035524 -1.469,-1.570075 C 141.53425,39.91206 128.12724,26.591461 114.73996,13.251175 l -0.0611,-0.01937 z"
         style="opacity:1;fill:#222222;fill-opacity:1;stroke:#222222;stroke-width:0.35714287;stroke-linecap:round;stroke-linejoin:round;stroke-miterlimit:4;stroke-dasharray:none;stroke-dashoffset:0;stroke-opacity:1" />
    </g>
    <rect
       style="opacity:1;fill:none;fill-opacity:1;stroke:#222222;stroke-width:1;stroke-linecap:round;stroke-linejoin:round;stroke-miterlimit:4;stroke-dasharray:none;stroke-dashoffset:0;stroke-opacity:1"
       id="rect1011-6-2"
       width="85.72406"
       height="85.549255"
       x="-19.997458"
       y="12.124479"
       inkscape:export-xdpi="300"
       inkscape:export-ydpi="300" />
  </g>
</svg>
