<?xml version="1.0" encoding="UTF-8" standalone="no"?>
<!-- Created with Inkscape (http://www.inkscape.org/) -->

<svg
   xmlns:dc="http://purl.org/dc/elements/1.1/"
   xmlns:cc="http://creativecommons.org/ns#"
   xmlns:rdf="http://www.w3.org/1999/02/22-rdf-syntax-ns#"
   xmlns:svg="http://www.w3.org/2000/svg"
   xmlns="http://www.w3.org/2000/svg"
   xmlns:sodipodi="http://sodipodi.sourceforge.net/DTD/sodipodi-0.dtd"
   xmlns:inkscape="http://www.inkscape.org/namespaces/inkscape"
   width="455mm"
   height="29.7414mm"
   viewBox="0 0 455 29.7414"
   version="1.1"
   id="svg6365"
   inkscape:version="0.92.5 (2060ec1f9f, 2020-04-08)"
   sodipodi:docname="example-6.svg">
  <defs
     id="defs6359" />
  <sodipodi:namedview
     id="base"
     pagecolor="#ffffff"
     bordercolor="#666666"
     borderopacity="1.0"
     inkscape:pageopacity="0.0"
     inkscape:pageshadow="2"
     inkscape:zoom="0.35"
     inkscape:cx="-464.70195"
     inkscape:cy="27.632792"
     inkscape:document-units="mm"
     inkscape:current-layer="layer1"
     showgrid="false"
     fit-margin-top="0"
     fit-margin-left="0"
     fit-margin-right="0"
     fit-margin-bottom="0"
     inkscape:window-width="2488"
     inkscape:window-height="1376"
     inkscape:window-x="72"
     inkscape:window-y="27"
     inkscape:window-maximized="1" />
  <metadata
     id="metadata6362">
    <rdf:RDF>
      <cc:Work
         rdf:about="">
        <dc:format>image/svg+xml</dc:format>
        <dc:type
           rdf:resource="http://purl.org/dc/dcmitype/StillImage" />
        <dc:title></dc:title>
      </cc:Work>
    </rdf:RDF>
  </metadata>
  <g
     inkscape:label="Layer 1"
     inkscape:groupmode="layer"
     id="layer1"
     transform="translate(-85.910723,-126.40311)">
    <g
       id="g957"
       transform="matrix(-1,0,0,1,436.53386,90.326119)">
      <path
         inkscape:export-ydpi="300"
         inkscape:export-xdpi="300"
         inkscape:connector-curvature="0"
         id="path1100-0"
         d="m 109.2216,36.432234 c 9.45328,-0.0887 18.9066,-0.177389 28.35991,-0.265957 0.16781,0.180545 0.0209,0.53439 0.0697,0.7787 -0.0129,9.292488 -0.0258,18.584958 -0.0388,27.877448 -0.19369,0.16752 -0.39998,-0.31894 -0.58776,-0.41762 -9.2992,-9.26921 -18.58263,-18.5542 -27.85205,-27.853169 -0.0408,-0.04363 -0.007,-0.118157 0.049,-0.119423 z"
         style="opacity:1;fill:#222222;fill-opacity:1;stroke:#222222;stroke-width:0.17857143;stroke-linecap:round;stroke-linejoin:round;stroke-miterlimit:4;stroke-dasharray:none;stroke-dashoffset:0;stroke-opacity:1" />
      <path
         inkscape:export-ydpi="300"
         inkscape:export-xdpi="300"
         inkscape:connector-curvature="0"
         id="path1100-0-7"
         d="m 137.02468,65.463145 c -9.45328,0.0887 -18.9066,0.17739 -28.35991,0.26596 -0.16782,-0.18055 -0.0209,-0.53439 -0.0697,-0.7787 0.0129,-9.29249 0.0258,-18.58497 0.0388,-27.877465 0.19367,-0.167507 0.39998,0.31894 0.58775,0.417631 9.29919,9.269214 18.58262,18.554204 27.85204,27.853174 0.0408,0.0436 0.007,0.11816 -0.049,0.1194 z"
         style="opacity:1;fill:#222222;fill-opacity:1;stroke:#222222;stroke-width:0.17857143;stroke-linecap:round;stroke-linejoin:round;stroke-miterlimit:4;stroke-dasharray:none;stroke-dashoffset:0;stroke-opacity:1" />
    </g>
  </g>
</svg>
