<?xml version="1.0" encoding="UTF-8" standalone="no"?>
<!-- Created with Inkscape (http://www.inkscape.org/) -->

<svg
   xmlns:dc="http://purl.org/dc/elements/1.1/"
   xmlns:cc="http://creativecommons.org/ns#"
   xmlns:rdf="http://www.w3.org/1999/02/22-rdf-syntax-ns#"
   xmlns:svg="http://www.w3.org/2000/svg"
   xmlns="http://www.w3.org/2000/svg"
   xmlns:sodipodi="http://sodipodi.sourceforge.net/DTD/sodipodi-0.dtd"
   xmlns:inkscape="http://www.inkscape.org/namespaces/inkscape"
   width="455mm"
   height="79.639717mm"
   viewBox="0 0 454.99999 79.639717"
   version="1.1"
   id="svg3193"
   inkscape:version="0.92.5 (2060ec1f9f, 2020-04-08)"
   sodipodi:docname="example-1.svg">
  <defs
     id="defs3187" />
  <sodipodi:namedview
     id="base"
     pagecolor="#ffffff"
     bordercolor="#666666"
     borderopacity="1.0"
     inkscape:pageopacity="0.0"
     inkscape:pageshadow="2"
     inkscape:zoom="0.49497475"
     inkscape:cx="754.44514"
     inkscape:cy="314.57311"
     inkscape:document-units="mm"
     inkscape:current-layer="layer1"
     showgrid="false"
     fit-margin-top="0"
     fit-margin-left="0"
     fit-margin-right="0"
     fit-margin-bottom="0"
     inkscape:window-width="2488"
     inkscape:window-height="1376"
     inkscape:window-x="72"
     inkscape:window-y="27"
     inkscape:window-maximized="1" />
  <metadata
     id="metadata3190">
    <rdf:RDF>
      <cc:Work
         rdf:about="">
        <dc:format>image/svg+xml</dc:format>
        <dc:type
           rdf:resource="http://purl.org/dc/dcmitype/StillImage" />
        <dc:title></dc:title>
      </cc:Work>
    </rdf:RDF>
  </metadata>
  <g
     inkscape:label="Layer 1"
     inkscape:groupmode="layer"
     id="layer1"
     transform="translate(-145.89644,-16.522727)">
    <g
       id="g3840"
       transform="translate(20.766671)">
      <g
         transform="translate(540.04985,-150.60798)"
         id="g1389">
        <rect
           style="opacity:1;fill:none;fill-opacity:1;stroke:#222222;stroke-width:0.51800001;stroke-linecap:round;stroke-linejoin:round;stroke-miterlimit:4;stroke-dasharray:none;stroke-dashoffset:0;stroke-opacity:1"
           id="rect917-5"
           width="30.175144"
           height="29.66396"
           x="-393.81094"
           y="206.79324" />
        <path
           style="opacity:1;fill:#aaaaaa;fill-opacity:1;stroke:none;stroke-width:0.51800001;stroke-linecap:round;stroke-linejoin:round;stroke-miterlimit:4;stroke-dasharray:none;stroke-dashoffset:0;stroke-opacity:1"
           d="m -394.13578,206.8973 c 6.62176,-6.7472 13.24355,-13.49442 19.86543,-20.24155 0.24633,0.009 0.39264,0.36309 0.59991,0.50134 6.56166,6.5799 13.12331,13.1598 19.6849,19.73978 -0.0185,0.2554 -0.50834,0.0573 -0.71091,0.1203 -13.12984,0.0212 -26.2597,0.0201 -39.38954,-8e-4 -0.0597,-0.002 -0.0885,-0.0786 -0.0498,-0.11908 z"
           id="path1100-0-7-5-6"
           inkscape:connector-curvature="0"
           inkscape:export-xdpi="300"
           inkscape:export-ydpi="300" />
      </g>
      <g
         transform="translate(503.08668,-150.60798)"
         id="g1393">
        <rect
           style="opacity:1;fill:none;fill-opacity:1;stroke:#222222;stroke-width:0.51800001;stroke-linecap:round;stroke-linejoin:round;stroke-miterlimit:4;stroke-dasharray:none;stroke-dashoffset:0;stroke-opacity:1"
           id="rect917-5-6"
           width="30.175144"
           height="29.66396"
           x="-313.40503"
           y="206.79324" />
        <path
           style="opacity:1;fill:#aaaaaa;fill-opacity:1;stroke:none;stroke-width:0.51800001;stroke-linecap:round;stroke-linejoin:round;stroke-miterlimit:4;stroke-dasharray:none;stroke-dashoffset:0;stroke-opacity:1"
           d="m -313.58058,207.02662 c -0.0887,-9.45328 -0.17739,-18.9066 -0.26596,-28.35992 0.18055,-0.16781 0.53438,-0.0209 0.7787,-0.0697 9.29249,0.0129 18.58497,0.0258 27.87746,0.0388 0.16752,0.19368 -0.31893,0.39997 -0.41762,0.58776 -9.26921,9.29919 -18.5542,18.58262 -27.85317,27.85205 -0.0436,0.0408 -0.11816,0.007 -0.11942,-0.049 z"
           id="path1100-0-7-5-6-18"
           inkscape:connector-curvature="0"
           inkscape:export-xdpi="300"
           inkscape:export-ydpi="300" />
      </g>
      <g
         transform="translate(486.2121,-150.60798)"
         id="g1397">
        <rect
           style="opacity:1;fill:none;fill-opacity:1;stroke:#222222;stroke-width:0.51800001;stroke-linecap:round;stroke-linejoin:round;stroke-miterlimit:4;stroke-dasharray:none;stroke-dashoffset:0;stroke-opacity:1"
           id="rect917-5-6-7"
           width="30.175144"
           height="29.66396"
           x="-242.73962"
           y="206.79324" />
        <path
           style="opacity:1;fill:#aaaaaa;fill-opacity:1;stroke:none;stroke-width:0.51800001;stroke-linecap:round;stroke-linejoin:round;stroke-miterlimit:4;stroke-dasharray:none;stroke-dashoffset:0;stroke-opacity:1"
           d="m -242.67892,207.28095 c -6.7472,-6.62175 -13.49442,-13.24355 -20.24156,-19.86543 0.009,-0.24632 0.36309,-0.39264 0.50134,-0.59991 6.5799,-6.56166 13.1598,-13.12331 19.73978,-19.6849 0.2554,0.0185 0.0573,0.50834 0.1203,0.71091 0.0212,13.12984 0.0201,26.2597 -7.9e-4,39.38954 -0.002,0.0597 -0.0786,0.0885 -0.11909,0.0498 z"
           id="path1100-0-7-5-6-18-9"
           inkscape:connector-curvature="0"
           inkscape:export-xdpi="300"
           inkscape:export-ydpi="300" />
      </g>
      <g
         transform="translate(469.33746,-150.60798)"
         id="g1401">
        <rect
           style="opacity:1;fill:none;fill-opacity:1;stroke:#222222;stroke-width:0.51800001;stroke-linecap:round;stroke-linejoin:round;stroke-miterlimit:4;stroke-dasharray:none;stroke-dashoffset:0;stroke-opacity:1"
           id="rect917-5-6-7-2"
           width="30.175144"
           height="29.66396"
           x="-172.07416"
           y="206.79324" />
        <path
           style="opacity:1;fill:#aaaaaa;fill-opacity:1;stroke:none;stroke-width:0.51800001;stroke-linecap:round;stroke-linejoin:round;stroke-miterlimit:4;stroke-dasharray:none;stroke-dashoffset:0;stroke-opacity:1"
           d="m -172.01345,207.28095 c -6.7472,-6.62175 -13.49442,-13.24355 -20.24156,-19.86543 0.009,-0.24632 0.36309,-0.39264 0.50134,-0.59991 6.5799,-6.56166 13.1598,-13.12331 19.73978,-19.6849 0.2554,0.0185 0.0573,0.50834 0.1203,0.71091 0.0212,13.12984 0.0201,26.2597 -8e-4,39.38954 -0.002,0.0597 -0.0786,0.0885 -0.11909,0.0498 z"
           id="path1100-0-7-5-6-18-9-3"
           inkscape:connector-curvature="0"
           inkscape:export-xdpi="300"
           inkscape:export-ydpi="300" />
      </g>
      <g
         transform="translate(237.66889,-109.0306)"
         id="g1461">
        <rect
           style="opacity:1;fill:none;fill-opacity:1;stroke:#222222;stroke-width:0.51800001;stroke-linecap:round;stroke-linejoin:round;stroke-miterlimit:4;stroke-dasharray:none;stroke-dashoffset:0;stroke-opacity:1"
           id="rect917-5-6-7-2-7"
           width="30.175144"
           height="29.66396"
           x="121.11441"
           y="165.21587" />
        <path
           style="opacity:1;fill:#aaaaaa;fill-opacity:1;stroke:none;stroke-width:0.51800001;stroke-linecap:round;stroke-linejoin:round;stroke-miterlimit:4;stroke-dasharray:none;stroke-dashoffset:0;stroke-opacity:1"
           d="m 121.51369,165.4419 c -9.45328,0.0887 -18.9066,0.1774 -28.359935,0.26597 -0.16781,-0.18054 -0.0209,-0.53438 -0.0697,-0.7787 0.0129,-9.29249 0.0258,-18.58497 0.0388,-27.87746 0.19368,-0.16752 0.39997,0.31893 0.58776,0.41762 9.299195,9.26921 18.582625,18.5542 27.852055,27.85317 0.0408,0.0436 0.007,0.11816 -0.049,0.11943 z"
           id="path1100-0-7-5-6-18-9-3-5"
           inkscape:connector-curvature="0"
           inkscape:export-xdpi="300"
           inkscape:export-ydpi="300" />
      </g>
      <g
         transform="translate(463.19038,-150.60798)"
         id="g1409">
        <rect
           style="opacity:1;fill:none;fill-opacity:1;stroke:#222222;stroke-width:0.51800001;stroke-linecap:round;stroke-linejoin:round;stroke-miterlimit:4;stroke-dasharray:none;stroke-dashoffset:0;stroke-opacity:1"
           id="rect917-5-6-7-2-9"
           width="30.175144"
           height="29.66396"
           x="-30.74334"
           y="206.79324" />
        <path
           style="opacity:1;fill:#aaaaaa;fill-opacity:1;stroke:none;stroke-width:0.51800001;stroke-linecap:round;stroke-linejoin:round;stroke-miterlimit:4;stroke-dasharray:none;stroke-dashoffset:0;stroke-opacity:1"
           d="m -30.646875,206.59714 c -6.62176,6.7472 -13.24354,13.49442 -19.86543,20.24157 -0.24632,-0.009 -0.39264,-0.36309 -0.59991,-0.50134 -6.56166,-6.57991 -13.12331,-13.15981 -19.6849,-19.73978 0.0185,-0.25541 0.50834,-0.0573 0.71091,-0.12031 13.12983,-0.0212 26.2597,-0.0201 39.38954,8.1e-4 0.0597,0.002 0.0885,0.0786 0.0498,0.11909 z"
           id="path1100-0-7-5-6-18-9-3-2"
           inkscape:connector-curvature="0"
           inkscape:export-xdpi="300"
           inkscape:export-ydpi="300" />
      </g>
      <g
         transform="translate(237.66889,-109.0306)"
         id="g1457">
        <rect
           style="opacity:1;fill:none;fill-opacity:1;stroke:#222222;stroke-width:0.51800001;stroke-linecap:round;stroke-linejoin:round;stroke-miterlimit:4;stroke-dasharray:none;stroke-dashoffset:0;stroke-opacity:1"
           id="rect917-5-6-7-2-2"
           width="30.175144"
           height="29.66396"
           x="257.33838"
           y="165.21587" />
        <path
           style="opacity:1;fill:#aaaaaa;fill-opacity:1;stroke:none;stroke-width:0.52363998;stroke-linecap:round;stroke-linejoin:round;stroke-miterlimit:4;stroke-dasharray:none;stroke-dashoffset:0;stroke-opacity:1"
           d="m 257.56998,165.39063 c 0.091,9.78296 0.18213,19.56596 0.27306,29.34898 -0.18535,0.17365 -0.54861,0.0216 -0.79944,0.0722 -9.53992,-0.0134 -19.07984,-0.0267 -28.61977,-0.0402 -0.17198,-0.20044 0.32742,-0.41391 0.42874,-0.60825 9.51602,-9.62351 19.04826,-19.2307 28.59485,-28.82339 0.0448,-0.0422 0.12131,-0.007 0.1226,0.0507 z"
           id="path1100-0-7-5-6-18-9-3-8"
           inkscape:connector-curvature="0"
           inkscape:export-xdpi="300"
           inkscape:export-ydpi="300" />
      </g>
      <g
         transform="translate(418.34147,-150.49571)"
         id="g1417">
        <rect
           style="opacity:1;fill:none;fill-opacity:1;stroke:#222222;stroke-width:0.51800001;stroke-linecap:round;stroke-linejoin:round;stroke-miterlimit:4;stroke-dasharray:none;stroke-dashoffset:0;stroke-opacity:1"
           id="rect917-5-6-7-2-97"
           width="30.175144"
           height="29.66396"
           x="110.58749"
           y="206.79324" />
        <path
           style="opacity:1;fill:#aaaaaa;fill-opacity:1;stroke:none;stroke-width:0.51800001;stroke-linecap:round;stroke-linejoin:round;stroke-miterlimit:4;stroke-dasharray:none;stroke-dashoffset:0;stroke-opacity:1"
           d="m 110.41102,206.50791 c 6.7472,6.62176 13.49443,13.24354 20.24158,19.86544 -0.009,0.24632 -0.36309,0.39264 -0.50134,0.59991 -6.5799,6.56166 -13.1598,13.12331 -19.73978,19.6849 -0.2554,-0.0185 -0.0573,-0.50834 -0.1203,-0.71091 -0.0212,-13.12984 -0.0201,-26.2597 7.9e-4,-39.38954 0.002,-0.0597 0.0786,-0.0885 0.1191,-0.0498 z"
           id="path1100-0-7-5-6-18-9-3-3"
           inkscape:connector-curvature="0"
           inkscape:export-xdpi="300"
           inkscape:export-ydpi="300" />
      </g>
    </g>
  </g>
</svg>
